G04 #@! TF.GenerationSoftware,KiCad,Pcbnew,(5.0.1)-3*
G04 #@! TF.CreationDate,2020-02-29T11:56:56-05:00*
G04 #@! TF.ProjectId,jebaoDosingAdapter,6A6562616F446F73696E674164617074,rev?*
G04 #@! TF.SameCoordinates,PX46492a0PY53724e0*
G04 #@! TF.FileFunction,Copper,L2,Bot,Signal*
G04 #@! TF.FilePolarity,Positive*
%FSLAX46Y46*%
G04 Gerber Fmt 4.6, Leading zero omitted, Abs format (unit mm)*
G04 Created by KiCad (PCBNEW (5.0.1)-3) date 2/29/2020 11:56:56 AM*
%MOMM*%
%LPD*%
G01*
G04 APERTURE LIST*
G04 #@! TA.AperFunction,ComponentPad*
%ADD10C,1.400000*%
G04 #@! TD*
G04 #@! TA.AperFunction,Conductor*
%ADD11C,0.100000*%
G04 #@! TD*
G04 #@! TA.AperFunction,ComponentPad*
%ADD12C,1.700000*%
G04 #@! TD*
G04 #@! TA.AperFunction,ComponentPad*
%ADD13O,1.950000X1.700000*%
G04 #@! TD*
G04 #@! TA.AperFunction,ComponentPad*
%ADD14O,1.700000X2.000000*%
G04 #@! TD*
G04 #@! TA.AperFunction,ComponentPad*
%ADD15R,1.600000X1.600000*%
G04 #@! TD*
G04 #@! TA.AperFunction,ComponentPad*
%ADD16C,1.600000*%
G04 #@! TD*
G04 #@! TA.AperFunction,ViaPad*
%ADD17C,0.800000*%
G04 #@! TD*
G04 #@! TA.AperFunction,Conductor*
%ADD18C,0.500000*%
G04 #@! TD*
G04 APERTURE END LIST*
D10*
G04 #@! TO.P,J3,1*
G04 #@! TO.N,+12V*
X11160000Y12872000D03*
G04 #@! TO.P,J3,2*
G04 #@! TO.N,/P5*
X8860000Y14022000D03*
G04 #@! TO.P,J3,3*
G04 #@! TO.N,/P6*
X11160000Y14772000D03*
G04 #@! TO.P,J3,4*
G04 #@! TO.N,/P7*
X8860000Y15922000D03*
G04 #@! TO.P,J3,5*
G04 #@! TO.N,/P8*
X11160000Y16672000D03*
G04 #@! TO.P,J3,6*
G04 #@! TO.N,+12V*
X8860000Y17822000D03*
G04 #@! TD*
D11*
G04 #@! TO.N,GND*
G04 #@! TO.C,J1*
G36*
X34999504Y22054796D02*
X35023773Y22051196D01*
X35047571Y22045235D01*
X35070671Y22036970D01*
X35092849Y22026480D01*
X35113893Y22013867D01*
X35133598Y21999253D01*
X35151777Y21982777D01*
X35168253Y21964598D01*
X35182867Y21944893D01*
X35195480Y21923849D01*
X35205970Y21901671D01*
X35214235Y21878571D01*
X35220196Y21854773D01*
X35223796Y21830504D01*
X35225000Y21806000D01*
X35225000Y20606000D01*
X35223796Y20581496D01*
X35220196Y20557227D01*
X35214235Y20533429D01*
X35205970Y20510329D01*
X35195480Y20488151D01*
X35182867Y20467107D01*
X35168253Y20447402D01*
X35151777Y20429223D01*
X35133598Y20412747D01*
X35113893Y20398133D01*
X35092849Y20385520D01*
X35070671Y20375030D01*
X35047571Y20366765D01*
X35023773Y20360804D01*
X34999504Y20357204D01*
X34975000Y20356000D01*
X33525000Y20356000D01*
X33500496Y20357204D01*
X33476227Y20360804D01*
X33452429Y20366765D01*
X33429329Y20375030D01*
X33407151Y20385520D01*
X33386107Y20398133D01*
X33366402Y20412747D01*
X33348223Y20429223D01*
X33331747Y20447402D01*
X33317133Y20467107D01*
X33304520Y20488151D01*
X33294030Y20510329D01*
X33285765Y20533429D01*
X33279804Y20557227D01*
X33276204Y20581496D01*
X33275000Y20606000D01*
X33275000Y21806000D01*
X33276204Y21830504D01*
X33279804Y21854773D01*
X33285765Y21878571D01*
X33294030Y21901671D01*
X33304520Y21923849D01*
X33317133Y21944893D01*
X33331747Y21964598D01*
X33348223Y21982777D01*
X33366402Y21999253D01*
X33386107Y22013867D01*
X33407151Y22026480D01*
X33429329Y22036970D01*
X33452429Y22045235D01*
X33476227Y22051196D01*
X33500496Y22054796D01*
X33525000Y22056000D01*
X34975000Y22056000D01*
X34999504Y22054796D01*
X34999504Y22054796D01*
G37*
D12*
G04 #@! TD*
G04 #@! TO.P,J1,1*
G04 #@! TO.N,GND*
X34250000Y21206000D03*
D13*
G04 #@! TO.P,J1,2*
G04 #@! TO.N,Net-(J1-Pad2)*
X34250000Y18706000D03*
G04 #@! TO.P,J1,3*
G04 #@! TO.N,Net-(J1-Pad3)*
X34250000Y16206000D03*
G04 #@! TO.P,J1,4*
G04 #@! TO.N,Net-(J1-Pad4)*
X34250000Y13706000D03*
G04 #@! TO.P,J1,5*
G04 #@! TO.N,Net-(J1-Pad5)*
X34250000Y11206000D03*
G04 #@! TD*
D11*
G04 #@! TO.N,GND*
G04 #@! TO.C,J2*
G36*
X22936504Y5440796D02*
X22960773Y5437196D01*
X22984571Y5431235D01*
X23007671Y5422970D01*
X23029849Y5412480D01*
X23050893Y5399867D01*
X23070598Y5385253D01*
X23088777Y5368777D01*
X23105253Y5350598D01*
X23119867Y5330893D01*
X23132480Y5309849D01*
X23142970Y5287671D01*
X23151235Y5264571D01*
X23157196Y5240773D01*
X23160796Y5216504D01*
X23162000Y5192000D01*
X23162000Y3692000D01*
X23160796Y3667496D01*
X23157196Y3643227D01*
X23151235Y3619429D01*
X23142970Y3596329D01*
X23132480Y3574151D01*
X23119867Y3553107D01*
X23105253Y3533402D01*
X23088777Y3515223D01*
X23070598Y3498747D01*
X23050893Y3484133D01*
X23029849Y3471520D01*
X23007671Y3461030D01*
X22984571Y3452765D01*
X22960773Y3446804D01*
X22936504Y3443204D01*
X22912000Y3442000D01*
X21712000Y3442000D01*
X21687496Y3443204D01*
X21663227Y3446804D01*
X21639429Y3452765D01*
X21616329Y3461030D01*
X21594151Y3471520D01*
X21573107Y3484133D01*
X21553402Y3498747D01*
X21535223Y3515223D01*
X21518747Y3533402D01*
X21504133Y3553107D01*
X21491520Y3574151D01*
X21481030Y3596329D01*
X21472765Y3619429D01*
X21466804Y3643227D01*
X21463204Y3667496D01*
X21462000Y3692000D01*
X21462000Y5192000D01*
X21463204Y5216504D01*
X21466804Y5240773D01*
X21472765Y5264571D01*
X21481030Y5287671D01*
X21491520Y5309849D01*
X21504133Y5330893D01*
X21518747Y5350598D01*
X21535223Y5368777D01*
X21553402Y5385253D01*
X21573107Y5399867D01*
X21594151Y5412480D01*
X21616329Y5422970D01*
X21639429Y5431235D01*
X21663227Y5437196D01*
X21687496Y5440796D01*
X21712000Y5442000D01*
X22912000Y5442000D01*
X22936504Y5440796D01*
X22936504Y5440796D01*
G37*
D12*
G04 #@! TD*
G04 #@! TO.P,J2,1*
G04 #@! TO.N,GND*
X22312000Y4442000D03*
D14*
G04 #@! TO.P,J2,2*
G04 #@! TO.N,+12V*
X19812000Y4442000D03*
G04 #@! TD*
D15*
G04 #@! TO.P,C1,1*
G04 #@! TO.N,+12V*
X23836000Y26794000D03*
D16*
G04 #@! TO.P,C1,2*
G04 #@! TO.N,GND*
X26336000Y26794000D03*
G04 #@! TD*
D17*
G04 #@! TO.N,/P7*
X14438000Y16634000D03*
G04 #@! TD*
D18*
G04 #@! TO.N,+12V*
X11342000Y12872000D02*
X11160000Y12872000D01*
X19812000Y4442000D02*
X19772000Y4442000D01*
X19772000Y4442000D02*
X11342000Y12872000D01*
G04 #@! TO.N,/P7*
X11390000Y19682000D02*
X14438000Y16634000D01*
X7834000Y19682000D02*
X11390000Y19682000D01*
X7072000Y18920000D02*
X7834000Y19682000D01*
X7072000Y16634000D02*
X7072000Y18920000D01*
X8860000Y15922000D02*
X7784000Y15922000D01*
X7784000Y15922000D02*
X7072000Y16634000D01*
G04 #@! TD*
M02*
