G04 #@! TF.GenerationSoftware,KiCad,Pcbnew,(5.0.1)-3*
G04 #@! TF.CreationDate,2019-09-14T23:59:44-04:00*
G04 #@! TF.ProjectId,jebaoDosingAdapter,6A6562616F446F73696E674164617074,rev?*
G04 #@! TF.SameCoordinates,PX46492a0PY53724e0*
G04 #@! TF.FileFunction,Copper,L1,Top,Signal*
G04 #@! TF.FilePolarity,Positive*
%FSLAX46Y46*%
G04 Gerber Fmt 4.6, Leading zero omitted, Abs format (unit mm)*
G04 Created by KiCad (PCBNEW (5.0.1)-3) date 9/14/2019 11:59:44 PM*
%MOMM*%
%LPD*%
G01*
G04 APERTURE LIST*
G04 #@! TA.AperFunction,ComponentPad*
%ADD10C,1.300000*%
G04 #@! TD*
G04 #@! TA.AperFunction,SMDPad,CuDef*
%ADD11R,2.000000X0.600000*%
G04 #@! TD*
G04 #@! TA.AperFunction,Conductor*
%ADD12C,0.100000*%
G04 #@! TD*
G04 #@! TA.AperFunction,ComponentPad*
%ADD13C,1.700000*%
G04 #@! TD*
G04 #@! TA.AperFunction,ComponentPad*
%ADD14O,1.950000X1.700000*%
G04 #@! TD*
G04 #@! TA.AperFunction,ComponentPad*
%ADD15O,1.700000X2.000000*%
G04 #@! TD*
G04 #@! TA.AperFunction,Conductor*
%ADD16C,0.350000*%
G04 #@! TD*
G04 #@! TA.AperFunction,Conductor*
%ADD17C,0.500000*%
G04 #@! TD*
G04 #@! TA.AperFunction,Conductor*
%ADD18C,0.254000*%
G04 #@! TD*
G04 APERTURE END LIST*
D10*
G04 #@! TO.P,J3,1*
G04 #@! TO.N,+12V*
X11160000Y12872000D03*
G04 #@! TO.P,J3,2*
G04 #@! TO.N,/O2*
X8860000Y14022000D03*
G04 #@! TO.P,J3,3*
G04 #@! TO.N,/O3*
X11160000Y14772000D03*
G04 #@! TO.P,J3,4*
G04 #@! TO.N,/O1*
X8860000Y15922000D03*
G04 #@! TO.P,J3,5*
G04 #@! TO.N,/O4*
X11160000Y16672000D03*
G04 #@! TO.P,J3,6*
G04 #@! TO.N,+12V*
X8860000Y17822000D03*
G04 #@! TD*
D11*
G04 #@! TO.P,U1,1*
G04 #@! TO.N,Net-(J1-Pad1)*
X27670000Y11050000D03*
G04 #@! TO.P,U1,2*
G04 #@! TO.N,Net-(J1-Pad2)*
X27670000Y12320000D03*
G04 #@! TO.P,U1,3*
G04 #@! TO.N,Net-(J1-Pad3)*
X27670000Y13590000D03*
G04 #@! TO.P,U1,4*
G04 #@! TO.N,Net-(J1-Pad4)*
X27670000Y14860000D03*
G04 #@! TO.P,U1,5*
G04 #@! TO.N,Net-(U1-Pad5)*
X27670000Y16130000D03*
G04 #@! TO.P,U1,6*
G04 #@! TO.N,Net-(U1-Pad6)*
X27670000Y17400000D03*
G04 #@! TO.P,U1,7*
G04 #@! TO.N,Net-(U1-Pad7)*
X27670000Y18670000D03*
G04 #@! TO.P,U1,8*
G04 #@! TO.N,Net-(U1-Pad8)*
X27670000Y19940000D03*
G04 #@! TO.P,U1,9*
G04 #@! TO.N,GND*
X27670000Y21210000D03*
G04 #@! TO.P,U1,10*
G04 #@! TO.N,+12V*
X18270000Y21210000D03*
G04 #@! TO.P,U1,11*
G04 #@! TO.N,Net-(U1-Pad11)*
X18270000Y19940000D03*
G04 #@! TO.P,U1,12*
G04 #@! TO.N,Net-(U1-Pad12)*
X18270000Y18670000D03*
G04 #@! TO.P,U1,13*
G04 #@! TO.N,Net-(U1-Pad13)*
X18270000Y17400000D03*
G04 #@! TO.P,U1,14*
G04 #@! TO.N,Net-(U1-Pad14)*
X18270000Y16130000D03*
G04 #@! TO.P,U1,15*
G04 #@! TO.N,/O4*
X18270000Y14860000D03*
G04 #@! TO.P,U1,16*
G04 #@! TO.N,/O3*
X18270000Y13590000D03*
G04 #@! TO.P,U1,17*
G04 #@! TO.N,/O2*
X18270000Y12320000D03*
G04 #@! TO.P,U1,18*
G04 #@! TO.N,/O1*
X18270000Y11050000D03*
G04 #@! TD*
D12*
G04 #@! TO.N,Net-(J1-Pad1)*
G04 #@! TO.C,J1*
G36*
X33983504Y12402796D02*
X34007773Y12399196D01*
X34031571Y12393235D01*
X34054671Y12384970D01*
X34076849Y12374480D01*
X34097893Y12361867D01*
X34117598Y12347253D01*
X34135777Y12330777D01*
X34152253Y12312598D01*
X34166867Y12292893D01*
X34179480Y12271849D01*
X34189970Y12249671D01*
X34198235Y12226571D01*
X34204196Y12202773D01*
X34207796Y12178504D01*
X34209000Y12154000D01*
X34209000Y10954000D01*
X34207796Y10929496D01*
X34204196Y10905227D01*
X34198235Y10881429D01*
X34189970Y10858329D01*
X34179480Y10836151D01*
X34166867Y10815107D01*
X34152253Y10795402D01*
X34135777Y10777223D01*
X34117598Y10760747D01*
X34097893Y10746133D01*
X34076849Y10733520D01*
X34054671Y10723030D01*
X34031571Y10714765D01*
X34007773Y10708804D01*
X33983504Y10705204D01*
X33959000Y10704000D01*
X32509000Y10704000D01*
X32484496Y10705204D01*
X32460227Y10708804D01*
X32436429Y10714765D01*
X32413329Y10723030D01*
X32391151Y10733520D01*
X32370107Y10746133D01*
X32350402Y10760747D01*
X32332223Y10777223D01*
X32315747Y10795402D01*
X32301133Y10815107D01*
X32288520Y10836151D01*
X32278030Y10858329D01*
X32269765Y10881429D01*
X32263804Y10905227D01*
X32260204Y10929496D01*
X32259000Y10954000D01*
X32259000Y12154000D01*
X32260204Y12178504D01*
X32263804Y12202773D01*
X32269765Y12226571D01*
X32278030Y12249671D01*
X32288520Y12271849D01*
X32301133Y12292893D01*
X32315747Y12312598D01*
X32332223Y12330777D01*
X32350402Y12347253D01*
X32370107Y12361867D01*
X32391151Y12374480D01*
X32413329Y12384970D01*
X32436429Y12393235D01*
X32460227Y12399196D01*
X32484496Y12402796D01*
X32509000Y12404000D01*
X33959000Y12404000D01*
X33983504Y12402796D01*
X33983504Y12402796D01*
G37*
D13*
G04 #@! TD*
G04 #@! TO.P,J1,1*
G04 #@! TO.N,Net-(J1-Pad1)*
X33234000Y11554000D03*
D14*
G04 #@! TO.P,J1,2*
G04 #@! TO.N,Net-(J1-Pad2)*
X33234000Y14054000D03*
G04 #@! TO.P,J1,3*
G04 #@! TO.N,Net-(J1-Pad3)*
X33234000Y16554000D03*
G04 #@! TO.P,J1,4*
G04 #@! TO.N,Net-(J1-Pad4)*
X33234000Y19054000D03*
G04 #@! TO.P,J1,5*
G04 #@! TO.N,GND*
X33234000Y21554000D03*
G04 #@! TD*
D12*
G04 #@! TO.N,+12V*
G04 #@! TO.C,J2*
G36*
X22936504Y5440796D02*
X22960773Y5437196D01*
X22984571Y5431235D01*
X23007671Y5422970D01*
X23029849Y5412480D01*
X23050893Y5399867D01*
X23070598Y5385253D01*
X23088777Y5368777D01*
X23105253Y5350598D01*
X23119867Y5330893D01*
X23132480Y5309849D01*
X23142970Y5287671D01*
X23151235Y5264571D01*
X23157196Y5240773D01*
X23160796Y5216504D01*
X23162000Y5192000D01*
X23162000Y3692000D01*
X23160796Y3667496D01*
X23157196Y3643227D01*
X23151235Y3619429D01*
X23142970Y3596329D01*
X23132480Y3574151D01*
X23119867Y3553107D01*
X23105253Y3533402D01*
X23088777Y3515223D01*
X23070598Y3498747D01*
X23050893Y3484133D01*
X23029849Y3471520D01*
X23007671Y3461030D01*
X22984571Y3452765D01*
X22960773Y3446804D01*
X22936504Y3443204D01*
X22912000Y3442000D01*
X21712000Y3442000D01*
X21687496Y3443204D01*
X21663227Y3446804D01*
X21639429Y3452765D01*
X21616329Y3461030D01*
X21594151Y3471520D01*
X21573107Y3484133D01*
X21553402Y3498747D01*
X21535223Y3515223D01*
X21518747Y3533402D01*
X21504133Y3553107D01*
X21491520Y3574151D01*
X21481030Y3596329D01*
X21472765Y3619429D01*
X21466804Y3643227D01*
X21463204Y3667496D01*
X21462000Y3692000D01*
X21462000Y5192000D01*
X21463204Y5216504D01*
X21466804Y5240773D01*
X21472765Y5264571D01*
X21481030Y5287671D01*
X21491520Y5309849D01*
X21504133Y5330893D01*
X21518747Y5350598D01*
X21535223Y5368777D01*
X21553402Y5385253D01*
X21573107Y5399867D01*
X21594151Y5412480D01*
X21616329Y5422970D01*
X21639429Y5431235D01*
X21663227Y5437196D01*
X21687496Y5440796D01*
X21712000Y5442000D01*
X22912000Y5442000D01*
X22936504Y5440796D01*
X22936504Y5440796D01*
G37*
D13*
G04 #@! TD*
G04 #@! TO.P,J2,1*
G04 #@! TO.N,+12V*
X22312000Y4442000D03*
D15*
G04 #@! TO.P,J2,2*
G04 #@! TO.N,GND*
X19812000Y4442000D03*
G04 #@! TD*
D16*
G04 #@! TO.N,Net-(J1-Pad1)*
X27670000Y11050000D02*
X30444000Y11050000D01*
X30948000Y11554000D02*
X33234000Y11554000D01*
X30444000Y11050000D02*
X30948000Y11554000D01*
G04 #@! TO.N,Net-(J1-Pad2)*
X27670000Y12320000D02*
X29682000Y12320000D01*
X31416000Y14054000D02*
X33234000Y14054000D01*
X29682000Y12320000D02*
X31416000Y14054000D01*
G04 #@! TO.N,Net-(J1-Pad3)*
X27670000Y13590000D02*
X29174000Y13590000D01*
X29174000Y13590000D02*
X30948000Y15364000D01*
X33234000Y16554000D02*
X31376000Y16554000D01*
X30948000Y16126000D02*
X30948000Y15364000D01*
X31376000Y16554000D02*
X30948000Y16126000D01*
G04 #@! TO.N,Net-(J1-Pad4)*
X27670000Y14860000D02*
X29174000Y14860000D01*
X29174000Y14860000D02*
X30186000Y15872000D01*
X30186000Y15872000D02*
X30186000Y17650000D01*
X31590000Y19054000D02*
X33234000Y19054000D01*
X30186000Y17650000D02*
X31590000Y19054000D01*
D17*
G04 #@! TO.N,+12V*
X18270000Y21210000D02*
X20880000Y21210000D01*
X17570000Y21210000D02*
X18270000Y21210000D01*
X17557937Y21197937D02*
X17570000Y21210000D01*
X8860000Y17822000D02*
X8932000Y17822000D01*
X12248000Y21210000D02*
X8860000Y17822000D01*
X18270000Y21210000D02*
X12248000Y21210000D01*
X22312000Y19778000D02*
X20880000Y21210000D01*
X22312000Y4442000D02*
X22312000Y19778000D01*
D16*
G04 #@! TO.N,/O1*
X18270000Y11050000D02*
X14696000Y11050000D01*
X14696000Y11050000D02*
X13930000Y10284000D01*
X13930000Y10284000D02*
X9104000Y10284000D01*
X9104000Y10284000D02*
X7072000Y12316000D01*
X7072000Y12316000D02*
X7072000Y15364000D01*
G04 #@! TO.N,/O2*
X18270000Y12320000D02*
X14442000Y12320000D01*
X14442000Y12320000D02*
X13422000Y11300000D01*
X13422000Y11300000D02*
X10120000Y11300000D01*
X10120000Y11300000D02*
X8850000Y12570000D01*
X8860000Y12580000D02*
X8850000Y12570000D01*
X8860000Y14022000D02*
X8860000Y12580000D01*
G04 #@! TO.N,/O3*
X18270000Y13590000D02*
X15704000Y13590000D01*
X11160000Y14772000D02*
X14522000Y14772000D01*
X14522000Y14772000D02*
X15704000Y13590000D01*
G04 #@! TO.N,/O1*
X7630000Y15922000D02*
X7072000Y15364000D01*
X8860000Y15922000D02*
X7630000Y15922000D01*
G04 #@! TO.N,/O4*
X18270000Y14860000D02*
X16720000Y14860000D01*
X14908000Y16672000D02*
X16720000Y14860000D01*
X11160000Y16672000D02*
X14908000Y16672000D01*
G04 #@! TD*
D18*
G04 #@! TO.N,GND*
G36*
X34364604Y31097105D02*
X34961782Y30909961D01*
X35509124Y30606564D01*
X35984289Y30199299D01*
X36367852Y29704812D01*
X36644150Y29143300D01*
X36804104Y28529226D01*
X36842001Y28036717D01*
X36842000Y4731964D01*
X36775105Y4073396D01*
X36587961Y3476218D01*
X36284563Y2928875D01*
X35877299Y2453711D01*
X35382812Y2070148D01*
X34821304Y1793852D01*
X34207227Y1633896D01*
X33714730Y1596000D01*
X7615964Y1596000D01*
X6957396Y1662895D01*
X6360218Y1850039D01*
X5812875Y2153437D01*
X5337711Y2560701D01*
X4954148Y3055188D01*
X4677852Y3616696D01*
X4517896Y4230773D01*
X4480000Y4723270D01*
X4480000Y5140569D01*
X5345000Y5140569D01*
X5345000Y4251431D01*
X5685259Y3429974D01*
X6313974Y2801259D01*
X7135431Y2461000D01*
X8024569Y2461000D01*
X8846026Y2801259D01*
X9474741Y3429974D01*
X9744926Y4082258D01*
X18340716Y4082258D01*
X18532976Y3535188D01*
X18919955Y3103336D01*
X19442740Y2852447D01*
X19455110Y2850524D01*
X19685000Y2971845D01*
X19685000Y4315000D01*
X18484769Y4315000D01*
X18340716Y4082258D01*
X9744926Y4082258D01*
X9815000Y4251431D01*
X9815000Y4801742D01*
X18340716Y4801742D01*
X18484769Y4569000D01*
X19685000Y4569000D01*
X19685000Y5912155D01*
X19455110Y6033476D01*
X19442740Y6031553D01*
X18919955Y5780664D01*
X18532976Y5348812D01*
X18340716Y4801742D01*
X9815000Y4801742D01*
X9815000Y5140569D01*
X9474741Y5962026D01*
X8846026Y6590741D01*
X8024569Y6931000D01*
X7135431Y6931000D01*
X6313974Y6590741D01*
X5685259Y5962026D01*
X5345000Y5140569D01*
X4480000Y5140569D01*
X4480000Y9777222D01*
X4795000Y9777222D01*
X4795000Y9126778D01*
X5043914Y8525847D01*
X5503847Y8065914D01*
X6104778Y7817000D01*
X6755222Y7817000D01*
X7356153Y8065914D01*
X7816086Y8525847D01*
X8065000Y9126778D01*
X8065000Y9777222D01*
X7816086Y10378153D01*
X7356153Y10838086D01*
X6755222Y11087000D01*
X6104778Y11087000D01*
X5503847Y10838086D01*
X5043914Y10378153D01*
X4795000Y9777222D01*
X4480000Y9777222D01*
X4480000Y15364000D01*
X6246132Y15364000D01*
X6262001Y15284222D01*
X6262000Y12395773D01*
X6246132Y12316000D01*
X6262000Y12236227D01*
X6308997Y11999955D01*
X6488023Y11732023D01*
X6555656Y11686832D01*
X8474834Y9767653D01*
X8520023Y9700023D01*
X8787954Y9520997D01*
X9024226Y9474000D01*
X9024227Y9474000D01*
X9104000Y9458132D01*
X9183773Y9474000D01*
X13850227Y9474000D01*
X13930000Y9458132D01*
X14009773Y9474000D01*
X14009774Y9474000D01*
X14246046Y9520997D01*
X14513977Y9700023D01*
X14559168Y9767656D01*
X15031513Y10240000D01*
X16890300Y10240000D01*
X17022235Y10151843D01*
X17270000Y10102560D01*
X19270000Y10102560D01*
X19517765Y10151843D01*
X19727809Y10292191D01*
X19868157Y10502235D01*
X19917440Y10750000D01*
X19917440Y11350000D01*
X19868157Y11597765D01*
X19809868Y11685000D01*
X19868157Y11772235D01*
X19917440Y12020000D01*
X19917440Y12620000D01*
X19868157Y12867765D01*
X19809868Y12955000D01*
X19868157Y13042235D01*
X19917440Y13290000D01*
X19917440Y13890000D01*
X19868157Y14137765D01*
X19809868Y14225000D01*
X19868157Y14312235D01*
X19917440Y14560000D01*
X19917440Y15160000D01*
X19868157Y15407765D01*
X19809868Y15495000D01*
X19868157Y15582235D01*
X19917440Y15830000D01*
X19917440Y16430000D01*
X19868157Y16677765D01*
X19809868Y16765000D01*
X19868157Y16852235D01*
X19917440Y17100000D01*
X19917440Y17700000D01*
X19868157Y17947765D01*
X19809868Y18035000D01*
X19868157Y18122235D01*
X19917440Y18370000D01*
X19917440Y18970000D01*
X19868157Y19217765D01*
X19809868Y19305000D01*
X19868157Y19392235D01*
X19917440Y19640000D01*
X19917440Y20240000D01*
X19900533Y20325000D01*
X20513422Y20325000D01*
X21427001Y19411420D01*
X21427000Y6032750D01*
X21368565Y6021126D01*
X21077414Y5826586D01*
X20900352Y5561593D01*
X20704045Y5780664D01*
X20181260Y6031553D01*
X20168890Y6033476D01*
X19939000Y5912155D01*
X19939000Y4569000D01*
X19959000Y4569000D01*
X19959000Y4315000D01*
X19939000Y4315000D01*
X19939000Y2971845D01*
X20168890Y2850524D01*
X20181260Y2852447D01*
X20704045Y3103336D01*
X20900352Y3322407D01*
X21077414Y3057414D01*
X21368565Y2862874D01*
X21712000Y2794560D01*
X22912000Y2794560D01*
X23255435Y2862874D01*
X23546586Y3057414D01*
X23741126Y3348565D01*
X23809440Y3692000D01*
X23809440Y5140569D01*
X31507000Y5140569D01*
X31507000Y4251431D01*
X31847259Y3429974D01*
X32475974Y2801259D01*
X33297431Y2461000D01*
X34186569Y2461000D01*
X35008026Y2801259D01*
X35636741Y3429974D01*
X35977000Y4251431D01*
X35977000Y5140569D01*
X35636741Y5962026D01*
X35008026Y6590741D01*
X34186569Y6931000D01*
X33297431Y6931000D01*
X32475974Y6590741D01*
X31847259Y5962026D01*
X31507000Y5140569D01*
X23809440Y5140569D01*
X23809440Y5192000D01*
X23741126Y5535435D01*
X23546586Y5826586D01*
X23255435Y6021126D01*
X23197000Y6032750D01*
X23197000Y19690839D01*
X23214337Y19778000D01*
X23197000Y19865161D01*
X23197000Y19865165D01*
X23145652Y20123310D01*
X23067683Y20240000D01*
X26022560Y20240000D01*
X26022560Y19640000D01*
X26071843Y19392235D01*
X26130132Y19305000D01*
X26071843Y19217765D01*
X26022560Y18970000D01*
X26022560Y18370000D01*
X26071843Y18122235D01*
X26130132Y18035000D01*
X26071843Y17947765D01*
X26022560Y17700000D01*
X26022560Y17100000D01*
X26071843Y16852235D01*
X26130132Y16765000D01*
X26071843Y16677765D01*
X26022560Y16430000D01*
X26022560Y15830000D01*
X26071843Y15582235D01*
X26130132Y15495000D01*
X26071843Y15407765D01*
X26022560Y15160000D01*
X26022560Y14560000D01*
X26071843Y14312235D01*
X26130132Y14225000D01*
X26071843Y14137765D01*
X26022560Y13890000D01*
X26022560Y13290000D01*
X26071843Y13042235D01*
X26130132Y12955000D01*
X26071843Y12867765D01*
X26022560Y12620000D01*
X26022560Y12020000D01*
X26071843Y11772235D01*
X26130132Y11685000D01*
X26071843Y11597765D01*
X26022560Y11350000D01*
X26022560Y10750000D01*
X26071843Y10502235D01*
X26212191Y10292191D01*
X26422235Y10151843D01*
X26670000Y10102560D01*
X28670000Y10102560D01*
X28917765Y10151843D01*
X29049700Y10240000D01*
X30364227Y10240000D01*
X30444000Y10224132D01*
X30523773Y10240000D01*
X30523774Y10240000D01*
X30760046Y10286997D01*
X31027977Y10466023D01*
X31073168Y10533656D01*
X31283512Y10744000D01*
X31653332Y10744000D01*
X31679874Y10610565D01*
X31874414Y10319414D01*
X32165565Y10124874D01*
X32509000Y10056560D01*
X33959000Y10056560D01*
X34302435Y10124874D01*
X34593586Y10319414D01*
X34788126Y10610565D01*
X34856440Y10954000D01*
X34856440Y12154000D01*
X34788126Y12497435D01*
X34593586Y12788586D01*
X34365844Y12940758D01*
X34429625Y12983375D01*
X34757839Y13474582D01*
X34873092Y14054000D01*
X34757839Y14633418D01*
X34429625Y15124625D01*
X34161171Y15304000D01*
X34429625Y15483375D01*
X34757839Y15974582D01*
X34873092Y16554000D01*
X34757839Y17133418D01*
X34429625Y17624625D01*
X34161171Y17804000D01*
X34429625Y17983375D01*
X34757839Y18474582D01*
X34873092Y19054000D01*
X34757839Y19633418D01*
X34429625Y20124625D01*
X34156313Y20307246D01*
X34561497Y20682807D01*
X34800476Y21197110D01*
X34679155Y21427000D01*
X33361000Y21427000D01*
X33361000Y21407000D01*
X33107000Y21407000D01*
X33107000Y21427000D01*
X31788845Y21427000D01*
X31667524Y21197110D01*
X31906503Y20682807D01*
X32311687Y20307246D01*
X32038375Y20124625D01*
X31864231Y19864000D01*
X31669773Y19864000D01*
X31590000Y19879868D01*
X31510227Y19864000D01*
X31510226Y19864000D01*
X31273954Y19817003D01*
X31006023Y19637977D01*
X30960834Y19570347D01*
X29669654Y18279166D01*
X29602024Y18233977D01*
X29556835Y18166347D01*
X29422998Y17966046D01*
X29360132Y17650000D01*
X29376001Y17570222D01*
X29376000Y16207513D01*
X29317440Y16148953D01*
X29317440Y16430000D01*
X29268157Y16677765D01*
X29209868Y16765000D01*
X29268157Y16852235D01*
X29317440Y17100000D01*
X29317440Y17700000D01*
X29268157Y17947765D01*
X29209868Y18035000D01*
X29268157Y18122235D01*
X29317440Y18370000D01*
X29317440Y18970000D01*
X29268157Y19217765D01*
X29209868Y19305000D01*
X29268157Y19392235D01*
X29317440Y19640000D01*
X29317440Y20240000D01*
X29268157Y20487765D01*
X29215232Y20566972D01*
X29305000Y20783690D01*
X29305000Y20924250D01*
X29146250Y21083000D01*
X27797000Y21083000D01*
X27797000Y21063000D01*
X27543000Y21063000D01*
X27543000Y21083000D01*
X26193750Y21083000D01*
X26035000Y20924250D01*
X26035000Y20783690D01*
X26124768Y20566972D01*
X26071843Y20487765D01*
X26022560Y20240000D01*
X23067683Y20240000D01*
X23052608Y20262560D01*
X22999424Y20342155D01*
X22999423Y20342156D01*
X22950049Y20416049D01*
X22876156Y20465423D01*
X21705269Y21636310D01*
X26035000Y21636310D01*
X26035000Y21495750D01*
X26193750Y21337000D01*
X27543000Y21337000D01*
X27543000Y21986250D01*
X27797000Y21986250D01*
X27797000Y21337000D01*
X29146250Y21337000D01*
X29305000Y21495750D01*
X29305000Y21636310D01*
X29208327Y21869699D01*
X29167136Y21910890D01*
X31667524Y21910890D01*
X31788845Y21681000D01*
X33107000Y21681000D01*
X33107000Y22880165D01*
X33361000Y22880165D01*
X33361000Y21681000D01*
X34679155Y21681000D01*
X34800476Y21910890D01*
X34561497Y22425193D01*
X34136571Y22819053D01*
X33593267Y23020320D01*
X33361000Y22880165D01*
X33107000Y22880165D01*
X32874733Y23020320D01*
X32331429Y22819053D01*
X31906503Y22425193D01*
X31667524Y21910890D01*
X29167136Y21910890D01*
X29029698Y22048327D01*
X28796309Y22145000D01*
X27955750Y22145000D01*
X27797000Y21986250D01*
X27543000Y21986250D01*
X27384250Y22145000D01*
X26543691Y22145000D01*
X26310302Y22048327D01*
X26131673Y21869699D01*
X26035000Y21636310D01*
X21705269Y21636310D01*
X21567425Y21774153D01*
X21518049Y21848049D01*
X21225310Y22043652D01*
X20967165Y22095000D01*
X20967161Y22095000D01*
X20880000Y22112337D01*
X20792839Y22095000D01*
X19537456Y22095000D01*
X19517765Y22108157D01*
X19270000Y22157440D01*
X17270000Y22157440D01*
X17022235Y22108157D01*
X17002544Y22095000D01*
X12335161Y22095000D01*
X12248000Y22112337D01*
X12160839Y22095000D01*
X12160835Y22095000D01*
X11926193Y22048327D01*
X11902690Y22043652D01*
X11683845Y21897424D01*
X11683844Y21897423D01*
X11609951Y21848049D01*
X11560577Y21774156D01*
X8893422Y19107000D01*
X8604398Y19107000D01*
X8132106Y18911371D01*
X7770629Y18549894D01*
X7575000Y18077602D01*
X7575000Y17566398D01*
X7770629Y17094106D01*
X7992735Y16872000D01*
X7852735Y16732000D01*
X7709772Y16732000D01*
X7629999Y16747868D01*
X7550226Y16732000D01*
X7313954Y16685003D01*
X7046023Y16505977D01*
X7000834Y16438347D01*
X6555653Y15993166D01*
X6488024Y15947977D01*
X6442835Y15880347D01*
X6308998Y15680046D01*
X6246132Y15364000D01*
X4480000Y15364000D01*
X4480000Y21777222D01*
X4795000Y21777222D01*
X4795000Y21126778D01*
X5043914Y20525847D01*
X5503847Y20065914D01*
X6104778Y19817000D01*
X6755222Y19817000D01*
X7356153Y20065914D01*
X7816086Y20525847D01*
X8065000Y21126778D01*
X8065000Y21777222D01*
X7816086Y22378153D01*
X7356153Y22838086D01*
X6755222Y23087000D01*
X6104778Y23087000D01*
X5503847Y22838086D01*
X5043914Y22378153D01*
X4795000Y21777222D01*
X4480000Y21777222D01*
X4480000Y28028036D01*
X4528810Y28508569D01*
X5345000Y28508569D01*
X5345000Y27619431D01*
X5685259Y26797974D01*
X6313974Y26169259D01*
X7135431Y25829000D01*
X8024569Y25829000D01*
X8846026Y26169259D01*
X9474741Y26797974D01*
X9815000Y27619431D01*
X9815000Y28508569D01*
X31507000Y28508569D01*
X31507000Y27619431D01*
X31847259Y26797974D01*
X32475974Y26169259D01*
X33297431Y25829000D01*
X34186569Y25829000D01*
X35008026Y26169259D01*
X35636741Y26797974D01*
X35977000Y27619431D01*
X35977000Y28508569D01*
X35636741Y29330026D01*
X35008026Y29958741D01*
X34186569Y30299000D01*
X33297431Y30299000D01*
X32475974Y29958741D01*
X31847259Y29330026D01*
X31507000Y28508569D01*
X9815000Y28508569D01*
X9474741Y29330026D01*
X8846026Y29958741D01*
X8024569Y30299000D01*
X7135431Y30299000D01*
X6313974Y29958741D01*
X5685259Y29330026D01*
X5345000Y28508569D01*
X4528810Y28508569D01*
X4546895Y28686604D01*
X4734039Y29283782D01*
X5037436Y29831124D01*
X5444701Y30306289D01*
X5939188Y30689852D01*
X6500700Y30966150D01*
X7114774Y31126104D01*
X7607270Y31164000D01*
X33706036Y31164000D01*
X34364604Y31097105D01*
X34364604Y31097105D01*
G37*
X34364604Y31097105D02*
X34961782Y30909961D01*
X35509124Y30606564D01*
X35984289Y30199299D01*
X36367852Y29704812D01*
X36644150Y29143300D01*
X36804104Y28529226D01*
X36842001Y28036717D01*
X36842000Y4731964D01*
X36775105Y4073396D01*
X36587961Y3476218D01*
X36284563Y2928875D01*
X35877299Y2453711D01*
X35382812Y2070148D01*
X34821304Y1793852D01*
X34207227Y1633896D01*
X33714730Y1596000D01*
X7615964Y1596000D01*
X6957396Y1662895D01*
X6360218Y1850039D01*
X5812875Y2153437D01*
X5337711Y2560701D01*
X4954148Y3055188D01*
X4677852Y3616696D01*
X4517896Y4230773D01*
X4480000Y4723270D01*
X4480000Y5140569D01*
X5345000Y5140569D01*
X5345000Y4251431D01*
X5685259Y3429974D01*
X6313974Y2801259D01*
X7135431Y2461000D01*
X8024569Y2461000D01*
X8846026Y2801259D01*
X9474741Y3429974D01*
X9744926Y4082258D01*
X18340716Y4082258D01*
X18532976Y3535188D01*
X18919955Y3103336D01*
X19442740Y2852447D01*
X19455110Y2850524D01*
X19685000Y2971845D01*
X19685000Y4315000D01*
X18484769Y4315000D01*
X18340716Y4082258D01*
X9744926Y4082258D01*
X9815000Y4251431D01*
X9815000Y4801742D01*
X18340716Y4801742D01*
X18484769Y4569000D01*
X19685000Y4569000D01*
X19685000Y5912155D01*
X19455110Y6033476D01*
X19442740Y6031553D01*
X18919955Y5780664D01*
X18532976Y5348812D01*
X18340716Y4801742D01*
X9815000Y4801742D01*
X9815000Y5140569D01*
X9474741Y5962026D01*
X8846026Y6590741D01*
X8024569Y6931000D01*
X7135431Y6931000D01*
X6313974Y6590741D01*
X5685259Y5962026D01*
X5345000Y5140569D01*
X4480000Y5140569D01*
X4480000Y9777222D01*
X4795000Y9777222D01*
X4795000Y9126778D01*
X5043914Y8525847D01*
X5503847Y8065914D01*
X6104778Y7817000D01*
X6755222Y7817000D01*
X7356153Y8065914D01*
X7816086Y8525847D01*
X8065000Y9126778D01*
X8065000Y9777222D01*
X7816086Y10378153D01*
X7356153Y10838086D01*
X6755222Y11087000D01*
X6104778Y11087000D01*
X5503847Y10838086D01*
X5043914Y10378153D01*
X4795000Y9777222D01*
X4480000Y9777222D01*
X4480000Y15364000D01*
X6246132Y15364000D01*
X6262001Y15284222D01*
X6262000Y12395773D01*
X6246132Y12316000D01*
X6262000Y12236227D01*
X6308997Y11999955D01*
X6488023Y11732023D01*
X6555656Y11686832D01*
X8474834Y9767653D01*
X8520023Y9700023D01*
X8787954Y9520997D01*
X9024226Y9474000D01*
X9024227Y9474000D01*
X9104000Y9458132D01*
X9183773Y9474000D01*
X13850227Y9474000D01*
X13930000Y9458132D01*
X14009773Y9474000D01*
X14009774Y9474000D01*
X14246046Y9520997D01*
X14513977Y9700023D01*
X14559168Y9767656D01*
X15031513Y10240000D01*
X16890300Y10240000D01*
X17022235Y10151843D01*
X17270000Y10102560D01*
X19270000Y10102560D01*
X19517765Y10151843D01*
X19727809Y10292191D01*
X19868157Y10502235D01*
X19917440Y10750000D01*
X19917440Y11350000D01*
X19868157Y11597765D01*
X19809868Y11685000D01*
X19868157Y11772235D01*
X19917440Y12020000D01*
X19917440Y12620000D01*
X19868157Y12867765D01*
X19809868Y12955000D01*
X19868157Y13042235D01*
X19917440Y13290000D01*
X19917440Y13890000D01*
X19868157Y14137765D01*
X19809868Y14225000D01*
X19868157Y14312235D01*
X19917440Y14560000D01*
X19917440Y15160000D01*
X19868157Y15407765D01*
X19809868Y15495000D01*
X19868157Y15582235D01*
X19917440Y15830000D01*
X19917440Y16430000D01*
X19868157Y16677765D01*
X19809868Y16765000D01*
X19868157Y16852235D01*
X19917440Y17100000D01*
X19917440Y17700000D01*
X19868157Y17947765D01*
X19809868Y18035000D01*
X19868157Y18122235D01*
X19917440Y18370000D01*
X19917440Y18970000D01*
X19868157Y19217765D01*
X19809868Y19305000D01*
X19868157Y19392235D01*
X19917440Y19640000D01*
X19917440Y20240000D01*
X19900533Y20325000D01*
X20513422Y20325000D01*
X21427001Y19411420D01*
X21427000Y6032750D01*
X21368565Y6021126D01*
X21077414Y5826586D01*
X20900352Y5561593D01*
X20704045Y5780664D01*
X20181260Y6031553D01*
X20168890Y6033476D01*
X19939000Y5912155D01*
X19939000Y4569000D01*
X19959000Y4569000D01*
X19959000Y4315000D01*
X19939000Y4315000D01*
X19939000Y2971845D01*
X20168890Y2850524D01*
X20181260Y2852447D01*
X20704045Y3103336D01*
X20900352Y3322407D01*
X21077414Y3057414D01*
X21368565Y2862874D01*
X21712000Y2794560D01*
X22912000Y2794560D01*
X23255435Y2862874D01*
X23546586Y3057414D01*
X23741126Y3348565D01*
X23809440Y3692000D01*
X23809440Y5140569D01*
X31507000Y5140569D01*
X31507000Y4251431D01*
X31847259Y3429974D01*
X32475974Y2801259D01*
X33297431Y2461000D01*
X34186569Y2461000D01*
X35008026Y2801259D01*
X35636741Y3429974D01*
X35977000Y4251431D01*
X35977000Y5140569D01*
X35636741Y5962026D01*
X35008026Y6590741D01*
X34186569Y6931000D01*
X33297431Y6931000D01*
X32475974Y6590741D01*
X31847259Y5962026D01*
X31507000Y5140569D01*
X23809440Y5140569D01*
X23809440Y5192000D01*
X23741126Y5535435D01*
X23546586Y5826586D01*
X23255435Y6021126D01*
X23197000Y6032750D01*
X23197000Y19690839D01*
X23214337Y19778000D01*
X23197000Y19865161D01*
X23197000Y19865165D01*
X23145652Y20123310D01*
X23067683Y20240000D01*
X26022560Y20240000D01*
X26022560Y19640000D01*
X26071843Y19392235D01*
X26130132Y19305000D01*
X26071843Y19217765D01*
X26022560Y18970000D01*
X26022560Y18370000D01*
X26071843Y18122235D01*
X26130132Y18035000D01*
X26071843Y17947765D01*
X26022560Y17700000D01*
X26022560Y17100000D01*
X26071843Y16852235D01*
X26130132Y16765000D01*
X26071843Y16677765D01*
X26022560Y16430000D01*
X26022560Y15830000D01*
X26071843Y15582235D01*
X26130132Y15495000D01*
X26071843Y15407765D01*
X26022560Y15160000D01*
X26022560Y14560000D01*
X26071843Y14312235D01*
X26130132Y14225000D01*
X26071843Y14137765D01*
X26022560Y13890000D01*
X26022560Y13290000D01*
X26071843Y13042235D01*
X26130132Y12955000D01*
X26071843Y12867765D01*
X26022560Y12620000D01*
X26022560Y12020000D01*
X26071843Y11772235D01*
X26130132Y11685000D01*
X26071843Y11597765D01*
X26022560Y11350000D01*
X26022560Y10750000D01*
X26071843Y10502235D01*
X26212191Y10292191D01*
X26422235Y10151843D01*
X26670000Y10102560D01*
X28670000Y10102560D01*
X28917765Y10151843D01*
X29049700Y10240000D01*
X30364227Y10240000D01*
X30444000Y10224132D01*
X30523773Y10240000D01*
X30523774Y10240000D01*
X30760046Y10286997D01*
X31027977Y10466023D01*
X31073168Y10533656D01*
X31283512Y10744000D01*
X31653332Y10744000D01*
X31679874Y10610565D01*
X31874414Y10319414D01*
X32165565Y10124874D01*
X32509000Y10056560D01*
X33959000Y10056560D01*
X34302435Y10124874D01*
X34593586Y10319414D01*
X34788126Y10610565D01*
X34856440Y10954000D01*
X34856440Y12154000D01*
X34788126Y12497435D01*
X34593586Y12788586D01*
X34365844Y12940758D01*
X34429625Y12983375D01*
X34757839Y13474582D01*
X34873092Y14054000D01*
X34757839Y14633418D01*
X34429625Y15124625D01*
X34161171Y15304000D01*
X34429625Y15483375D01*
X34757839Y15974582D01*
X34873092Y16554000D01*
X34757839Y17133418D01*
X34429625Y17624625D01*
X34161171Y17804000D01*
X34429625Y17983375D01*
X34757839Y18474582D01*
X34873092Y19054000D01*
X34757839Y19633418D01*
X34429625Y20124625D01*
X34156313Y20307246D01*
X34561497Y20682807D01*
X34800476Y21197110D01*
X34679155Y21427000D01*
X33361000Y21427000D01*
X33361000Y21407000D01*
X33107000Y21407000D01*
X33107000Y21427000D01*
X31788845Y21427000D01*
X31667524Y21197110D01*
X31906503Y20682807D01*
X32311687Y20307246D01*
X32038375Y20124625D01*
X31864231Y19864000D01*
X31669773Y19864000D01*
X31590000Y19879868D01*
X31510227Y19864000D01*
X31510226Y19864000D01*
X31273954Y19817003D01*
X31006023Y19637977D01*
X30960834Y19570347D01*
X29669654Y18279166D01*
X29602024Y18233977D01*
X29556835Y18166347D01*
X29422998Y17966046D01*
X29360132Y17650000D01*
X29376001Y17570222D01*
X29376000Y16207513D01*
X29317440Y16148953D01*
X29317440Y16430000D01*
X29268157Y16677765D01*
X29209868Y16765000D01*
X29268157Y16852235D01*
X29317440Y17100000D01*
X29317440Y17700000D01*
X29268157Y17947765D01*
X29209868Y18035000D01*
X29268157Y18122235D01*
X29317440Y18370000D01*
X29317440Y18970000D01*
X29268157Y19217765D01*
X29209868Y19305000D01*
X29268157Y19392235D01*
X29317440Y19640000D01*
X29317440Y20240000D01*
X29268157Y20487765D01*
X29215232Y20566972D01*
X29305000Y20783690D01*
X29305000Y20924250D01*
X29146250Y21083000D01*
X27797000Y21083000D01*
X27797000Y21063000D01*
X27543000Y21063000D01*
X27543000Y21083000D01*
X26193750Y21083000D01*
X26035000Y20924250D01*
X26035000Y20783690D01*
X26124768Y20566972D01*
X26071843Y20487765D01*
X26022560Y20240000D01*
X23067683Y20240000D01*
X23052608Y20262560D01*
X22999424Y20342155D01*
X22999423Y20342156D01*
X22950049Y20416049D01*
X22876156Y20465423D01*
X21705269Y21636310D01*
X26035000Y21636310D01*
X26035000Y21495750D01*
X26193750Y21337000D01*
X27543000Y21337000D01*
X27543000Y21986250D01*
X27797000Y21986250D01*
X27797000Y21337000D01*
X29146250Y21337000D01*
X29305000Y21495750D01*
X29305000Y21636310D01*
X29208327Y21869699D01*
X29167136Y21910890D01*
X31667524Y21910890D01*
X31788845Y21681000D01*
X33107000Y21681000D01*
X33107000Y22880165D01*
X33361000Y22880165D01*
X33361000Y21681000D01*
X34679155Y21681000D01*
X34800476Y21910890D01*
X34561497Y22425193D01*
X34136571Y22819053D01*
X33593267Y23020320D01*
X33361000Y22880165D01*
X33107000Y22880165D01*
X32874733Y23020320D01*
X32331429Y22819053D01*
X31906503Y22425193D01*
X31667524Y21910890D01*
X29167136Y21910890D01*
X29029698Y22048327D01*
X28796309Y22145000D01*
X27955750Y22145000D01*
X27797000Y21986250D01*
X27543000Y21986250D01*
X27384250Y22145000D01*
X26543691Y22145000D01*
X26310302Y22048327D01*
X26131673Y21869699D01*
X26035000Y21636310D01*
X21705269Y21636310D01*
X21567425Y21774153D01*
X21518049Y21848049D01*
X21225310Y22043652D01*
X20967165Y22095000D01*
X20967161Y22095000D01*
X20880000Y22112337D01*
X20792839Y22095000D01*
X19537456Y22095000D01*
X19517765Y22108157D01*
X19270000Y22157440D01*
X17270000Y22157440D01*
X17022235Y22108157D01*
X17002544Y22095000D01*
X12335161Y22095000D01*
X12248000Y22112337D01*
X12160839Y22095000D01*
X12160835Y22095000D01*
X11926193Y22048327D01*
X11902690Y22043652D01*
X11683845Y21897424D01*
X11683844Y21897423D01*
X11609951Y21848049D01*
X11560577Y21774156D01*
X8893422Y19107000D01*
X8604398Y19107000D01*
X8132106Y18911371D01*
X7770629Y18549894D01*
X7575000Y18077602D01*
X7575000Y17566398D01*
X7770629Y17094106D01*
X7992735Y16872000D01*
X7852735Y16732000D01*
X7709772Y16732000D01*
X7629999Y16747868D01*
X7550226Y16732000D01*
X7313954Y16685003D01*
X7046023Y16505977D01*
X7000834Y16438347D01*
X6555653Y15993166D01*
X6488024Y15947977D01*
X6442835Y15880347D01*
X6308998Y15680046D01*
X6246132Y15364000D01*
X4480000Y15364000D01*
X4480000Y21777222D01*
X4795000Y21777222D01*
X4795000Y21126778D01*
X5043914Y20525847D01*
X5503847Y20065914D01*
X6104778Y19817000D01*
X6755222Y19817000D01*
X7356153Y20065914D01*
X7816086Y20525847D01*
X8065000Y21126778D01*
X8065000Y21777222D01*
X7816086Y22378153D01*
X7356153Y22838086D01*
X6755222Y23087000D01*
X6104778Y23087000D01*
X5503847Y22838086D01*
X5043914Y22378153D01*
X4795000Y21777222D01*
X4480000Y21777222D01*
X4480000Y28028036D01*
X4528810Y28508569D01*
X5345000Y28508569D01*
X5345000Y27619431D01*
X5685259Y26797974D01*
X6313974Y26169259D01*
X7135431Y25829000D01*
X8024569Y25829000D01*
X8846026Y26169259D01*
X9474741Y26797974D01*
X9815000Y27619431D01*
X9815000Y28508569D01*
X31507000Y28508569D01*
X31507000Y27619431D01*
X31847259Y26797974D01*
X32475974Y26169259D01*
X33297431Y25829000D01*
X34186569Y25829000D01*
X35008026Y26169259D01*
X35636741Y26797974D01*
X35977000Y27619431D01*
X35977000Y28508569D01*
X35636741Y29330026D01*
X35008026Y29958741D01*
X34186569Y30299000D01*
X33297431Y30299000D01*
X32475974Y29958741D01*
X31847259Y29330026D01*
X31507000Y28508569D01*
X9815000Y28508569D01*
X9474741Y29330026D01*
X8846026Y29958741D01*
X8024569Y30299000D01*
X7135431Y30299000D01*
X6313974Y29958741D01*
X5685259Y29330026D01*
X5345000Y28508569D01*
X4528810Y28508569D01*
X4546895Y28686604D01*
X4734039Y29283782D01*
X5037436Y29831124D01*
X5444701Y30306289D01*
X5939188Y30689852D01*
X6500700Y30966150D01*
X7114774Y31126104D01*
X7607270Y31164000D01*
X33706036Y31164000D01*
X34364604Y31097105D01*
G04 #@! TD*
M02*
