G04 #@! TF.GenerationSoftware,KiCad,Pcbnew,(5.0.1)-3*
G04 #@! TF.CreationDate,2019-09-06T22:13:27-04:00*
G04 #@! TF.ProjectId,jebaoDosingAdapter,6A6562616F446F73696E674164617074,rev?*
G04 #@! TF.SameCoordinates,PX471b200PY51b5f80*
G04 #@! TF.FileFunction,Legend,Top*
G04 #@! TF.FilePolarity,Positive*
%FSLAX46Y46*%
G04 Gerber Fmt 4.6, Leading zero omitted, Abs format (unit mm)*
G04 Created by KiCad (PCBNEW (5.0.1)-3) date 9/6/2019 10:13:27 PM*
%MOMM*%
%LPD*%
G01*
G04 APERTURE LIST*
%ADD10C,0.150000*%
%ADD11C,0.120000*%
G04 APERTURE END LIST*
D10*
G04 #@! TO.C,U1*
X25985000Y8360000D02*
X25985000Y8610000D01*
X18235000Y8360000D02*
X18235000Y8705000D01*
X18235000Y20260000D02*
X18235000Y19915000D01*
X25985000Y20260000D02*
X25985000Y19915000D01*
X25985000Y8360000D02*
X18235000Y8360000D01*
X25985000Y20260000D02*
X18235000Y20260000D01*
X25985000Y8610000D02*
X27810000Y8610000D01*
D11*
G04 #@! TO.C,J1*
X33520000Y20150000D02*
X30860000Y20150000D01*
X33520000Y9930000D02*
X33520000Y20150000D01*
X30860000Y9930000D02*
X30860000Y20150000D01*
X33520000Y9930000D02*
X30860000Y9930000D01*
X33520000Y8660000D02*
X33520000Y7330000D01*
X33520000Y7330000D02*
X32190000Y7330000D01*
G04 #@! TO.C,J2*
X25800000Y2260000D02*
X25800000Y4920000D01*
X23200000Y2260000D02*
X25800000Y2260000D01*
X23200000Y4920000D02*
X25800000Y4920000D01*
X23200000Y2260000D02*
X23200000Y4920000D01*
X21930000Y2260000D02*
X20600000Y2260000D01*
X20600000Y2260000D02*
X20600000Y3590000D01*
G04 #@! TO.C,U1*
D10*
X21348095Y7982620D02*
X21348095Y7173096D01*
X21395714Y7077858D01*
X21443333Y7030239D01*
X21538571Y6982620D01*
X21729047Y6982620D01*
X21824285Y7030239D01*
X21871904Y7077858D01*
X21919523Y7173096D01*
X21919523Y7982620D01*
X22919523Y6982620D02*
X22348095Y6982620D01*
X22633809Y6982620D02*
X22633809Y7982620D01*
X22538571Y7839762D01*
X22443333Y7744524D01*
X22348095Y7696905D01*
G04 #@! TO.C,J1*
X31856666Y6877620D02*
X31856666Y6163334D01*
X31809047Y6020477D01*
X31713809Y5925239D01*
X31570952Y5877620D01*
X31475714Y5877620D01*
X32856666Y5877620D02*
X32285238Y5877620D01*
X32570952Y5877620D02*
X32570952Y6877620D01*
X32475714Y6734762D01*
X32380476Y6639524D01*
X32285238Y6591905D01*
G04 #@! TO.C,J2*
X19052380Y3256667D02*
X19766666Y3256667D01*
X19909523Y3209048D01*
X20004761Y3113810D01*
X20052380Y2970953D01*
X20052380Y2875715D01*
X19147619Y3685239D02*
X19100000Y3732858D01*
X19052380Y3828096D01*
X19052380Y4066191D01*
X19100000Y4161429D01*
X19147619Y4209048D01*
X19242857Y4256667D01*
X19338095Y4256667D01*
X19480952Y4209048D01*
X20052380Y3637620D01*
X20052380Y4256667D01*
G04 #@! TD*
M02*
