G04 #@! TF.GenerationSoftware,KiCad,Pcbnew,(5.0.1)-3*
G04 #@! TF.CreationDate,2019-09-14T23:59:44-04:00*
G04 #@! TF.ProjectId,jebaoDosingAdapter,6A6562616F446F73696E674164617074,rev?*
G04 #@! TF.SameCoordinates,PX46492a0PY53724e0*
G04 #@! TF.FileFunction,Copper,L2,Bot,Signal*
G04 #@! TF.FilePolarity,Positive*
%FSLAX46Y46*%
G04 Gerber Fmt 4.6, Leading zero omitted, Abs format (unit mm)*
G04 Created by KiCad (PCBNEW (5.0.1)-3) date 9/14/2019 11:59:44 PM*
%MOMM*%
%LPD*%
G01*
G04 APERTURE LIST*
G04 #@! TA.AperFunction,ComponentPad*
%ADD10C,1.300000*%
G04 #@! TD*
G04 #@! TA.AperFunction,Conductor*
%ADD11C,0.100000*%
G04 #@! TD*
G04 #@! TA.AperFunction,ComponentPad*
%ADD12C,1.700000*%
G04 #@! TD*
G04 #@! TA.AperFunction,ComponentPad*
%ADD13O,1.950000X1.700000*%
G04 #@! TD*
G04 #@! TA.AperFunction,ComponentPad*
%ADD14O,1.700000X2.000000*%
G04 #@! TD*
G04 #@! TA.AperFunction,Conductor*
%ADD15C,0.500000*%
G04 #@! TD*
G04 APERTURE END LIST*
D10*
G04 #@! TO.P,J3,1*
G04 #@! TO.N,+12V*
X11160000Y12872000D03*
G04 #@! TO.P,J3,2*
G04 #@! TO.N,/O2*
X8860000Y14022000D03*
G04 #@! TO.P,J3,3*
G04 #@! TO.N,/O3*
X11160000Y14772000D03*
G04 #@! TO.P,J3,4*
G04 #@! TO.N,/O1*
X8860000Y15922000D03*
G04 #@! TO.P,J3,5*
G04 #@! TO.N,/O4*
X11160000Y16672000D03*
G04 #@! TO.P,J3,6*
G04 #@! TO.N,+12V*
X8860000Y17822000D03*
G04 #@! TD*
D11*
G04 #@! TO.N,Net-(J1-Pad1)*
G04 #@! TO.C,J1*
G36*
X33983504Y12402796D02*
X34007773Y12399196D01*
X34031571Y12393235D01*
X34054671Y12384970D01*
X34076849Y12374480D01*
X34097893Y12361867D01*
X34117598Y12347253D01*
X34135777Y12330777D01*
X34152253Y12312598D01*
X34166867Y12292893D01*
X34179480Y12271849D01*
X34189970Y12249671D01*
X34198235Y12226571D01*
X34204196Y12202773D01*
X34207796Y12178504D01*
X34209000Y12154000D01*
X34209000Y10954000D01*
X34207796Y10929496D01*
X34204196Y10905227D01*
X34198235Y10881429D01*
X34189970Y10858329D01*
X34179480Y10836151D01*
X34166867Y10815107D01*
X34152253Y10795402D01*
X34135777Y10777223D01*
X34117598Y10760747D01*
X34097893Y10746133D01*
X34076849Y10733520D01*
X34054671Y10723030D01*
X34031571Y10714765D01*
X34007773Y10708804D01*
X33983504Y10705204D01*
X33959000Y10704000D01*
X32509000Y10704000D01*
X32484496Y10705204D01*
X32460227Y10708804D01*
X32436429Y10714765D01*
X32413329Y10723030D01*
X32391151Y10733520D01*
X32370107Y10746133D01*
X32350402Y10760747D01*
X32332223Y10777223D01*
X32315747Y10795402D01*
X32301133Y10815107D01*
X32288520Y10836151D01*
X32278030Y10858329D01*
X32269765Y10881429D01*
X32263804Y10905227D01*
X32260204Y10929496D01*
X32259000Y10954000D01*
X32259000Y12154000D01*
X32260204Y12178504D01*
X32263804Y12202773D01*
X32269765Y12226571D01*
X32278030Y12249671D01*
X32288520Y12271849D01*
X32301133Y12292893D01*
X32315747Y12312598D01*
X32332223Y12330777D01*
X32350402Y12347253D01*
X32370107Y12361867D01*
X32391151Y12374480D01*
X32413329Y12384970D01*
X32436429Y12393235D01*
X32460227Y12399196D01*
X32484496Y12402796D01*
X32509000Y12404000D01*
X33959000Y12404000D01*
X33983504Y12402796D01*
X33983504Y12402796D01*
G37*
D12*
G04 #@! TD*
G04 #@! TO.P,J1,1*
G04 #@! TO.N,Net-(J1-Pad1)*
X33234000Y11554000D03*
D13*
G04 #@! TO.P,J1,2*
G04 #@! TO.N,Net-(J1-Pad2)*
X33234000Y14054000D03*
G04 #@! TO.P,J1,3*
G04 #@! TO.N,Net-(J1-Pad3)*
X33234000Y16554000D03*
G04 #@! TO.P,J1,4*
G04 #@! TO.N,Net-(J1-Pad4)*
X33234000Y19054000D03*
G04 #@! TO.P,J1,5*
G04 #@! TO.N,GND*
X33234000Y21554000D03*
G04 #@! TD*
D11*
G04 #@! TO.N,+12V*
G04 #@! TO.C,J2*
G36*
X22936504Y5440796D02*
X22960773Y5437196D01*
X22984571Y5431235D01*
X23007671Y5422970D01*
X23029849Y5412480D01*
X23050893Y5399867D01*
X23070598Y5385253D01*
X23088777Y5368777D01*
X23105253Y5350598D01*
X23119867Y5330893D01*
X23132480Y5309849D01*
X23142970Y5287671D01*
X23151235Y5264571D01*
X23157196Y5240773D01*
X23160796Y5216504D01*
X23162000Y5192000D01*
X23162000Y3692000D01*
X23160796Y3667496D01*
X23157196Y3643227D01*
X23151235Y3619429D01*
X23142970Y3596329D01*
X23132480Y3574151D01*
X23119867Y3553107D01*
X23105253Y3533402D01*
X23088777Y3515223D01*
X23070598Y3498747D01*
X23050893Y3484133D01*
X23029849Y3471520D01*
X23007671Y3461030D01*
X22984571Y3452765D01*
X22960773Y3446804D01*
X22936504Y3443204D01*
X22912000Y3442000D01*
X21712000Y3442000D01*
X21687496Y3443204D01*
X21663227Y3446804D01*
X21639429Y3452765D01*
X21616329Y3461030D01*
X21594151Y3471520D01*
X21573107Y3484133D01*
X21553402Y3498747D01*
X21535223Y3515223D01*
X21518747Y3533402D01*
X21504133Y3553107D01*
X21491520Y3574151D01*
X21481030Y3596329D01*
X21472765Y3619429D01*
X21466804Y3643227D01*
X21463204Y3667496D01*
X21462000Y3692000D01*
X21462000Y5192000D01*
X21463204Y5216504D01*
X21466804Y5240773D01*
X21472765Y5264571D01*
X21481030Y5287671D01*
X21491520Y5309849D01*
X21504133Y5330893D01*
X21518747Y5350598D01*
X21535223Y5368777D01*
X21553402Y5385253D01*
X21573107Y5399867D01*
X21594151Y5412480D01*
X21616329Y5422970D01*
X21639429Y5431235D01*
X21663227Y5437196D01*
X21687496Y5440796D01*
X21712000Y5442000D01*
X22912000Y5442000D01*
X22936504Y5440796D01*
X22936504Y5440796D01*
G37*
D12*
G04 #@! TD*
G04 #@! TO.P,J2,1*
G04 #@! TO.N,+12V*
X22312000Y4442000D03*
D14*
G04 #@! TO.P,J2,2*
G04 #@! TO.N,GND*
X19812000Y4442000D03*
G04 #@! TD*
D15*
G04 #@! TO.N,+12V*
X11160000Y12872000D02*
X11342000Y12872000D01*
X11342000Y12872000D02*
X16470000Y7744000D01*
X16470000Y7744000D02*
X20534000Y7744000D01*
X22312000Y5966000D02*
X22312000Y4442000D01*
X20534000Y7744000D02*
X22312000Y5966000D01*
G04 #@! TD*
M02*
