G04 #@! TF.GenerationSoftware,KiCad,Pcbnew,(5.0.1)-3*
G04 #@! TF.CreationDate,2020-02-29T11:56:56-05:00*
G04 #@! TF.ProjectId,jebaoDosingAdapter,6A6562616F446F73696E674164617074,rev?*
G04 #@! TF.SameCoordinates,PX46492a0PY53724e0*
G04 #@! TF.FileFunction,Legend,Bot*
G04 #@! TF.FilePolarity,Positive*
%FSLAX46Y46*%
G04 Gerber Fmt 4.6, Leading zero omitted, Abs format (unit mm)*
G04 Created by KiCad (PCBNEW (5.0.1)-3) date 2/29/2020 11:56:56 AM*
%MOMM*%
%LPD*%
G01*
G04 APERTURE LIST*
%ADD10C,0.300000*%
%ADD11C,0.200000*%
%ADD12C,0.010000*%
G04 APERTURE END LIST*
D10*
X18311428Y4334858D02*
X17168571Y4334858D01*
X17740000Y3763429D02*
X17740000Y4906286D01*
X22629428Y26686858D02*
X21486571Y26686858D01*
X22058000Y26115429D02*
X22058000Y27258286D01*
X32055142Y10367429D02*
X32055142Y11867429D01*
X31483714Y11867429D01*
X31340857Y11796000D01*
X31269428Y11724572D01*
X31198000Y11581715D01*
X31198000Y11367429D01*
X31269428Y11224572D01*
X31340857Y11153143D01*
X31483714Y11081715D01*
X32055142Y11081715D01*
X29840857Y11867429D02*
X30555142Y11867429D01*
X30626571Y11153143D01*
X30555142Y11224572D01*
X30412285Y11296000D01*
X30055142Y11296000D01*
X29912285Y11224572D01*
X29840857Y11153143D01*
X29769428Y11010286D01*
X29769428Y10653143D01*
X29840857Y10510286D01*
X29912285Y10438858D01*
X30055142Y10367429D01*
X30412285Y10367429D01*
X30555142Y10438858D01*
X30626571Y10510286D01*
X32055142Y12653429D02*
X32055142Y14153429D01*
X31483714Y14153429D01*
X31340857Y14082000D01*
X31269428Y14010572D01*
X31198000Y13867715D01*
X31198000Y13653429D01*
X31269428Y13510572D01*
X31340857Y13439143D01*
X31483714Y13367715D01*
X32055142Y13367715D01*
X29912285Y14153429D02*
X30198000Y14153429D01*
X30340857Y14082000D01*
X30412285Y14010572D01*
X30555142Y13796286D01*
X30626571Y13510572D01*
X30626571Y12939143D01*
X30555142Y12796286D01*
X30483714Y12724858D01*
X30340857Y12653429D01*
X30055142Y12653429D01*
X29912285Y12724858D01*
X29840857Y12796286D01*
X29769428Y12939143D01*
X29769428Y13296286D01*
X29840857Y13439143D01*
X29912285Y13510572D01*
X30055142Y13582000D01*
X30340857Y13582000D01*
X30483714Y13510572D01*
X30555142Y13439143D01*
X30626571Y13296286D01*
X32055142Y15193429D02*
X32055142Y16693429D01*
X31483714Y16693429D01*
X31340857Y16622000D01*
X31269428Y16550572D01*
X31198000Y16407715D01*
X31198000Y16193429D01*
X31269428Y16050572D01*
X31340857Y15979143D01*
X31483714Y15907715D01*
X32055142Y15907715D01*
X30698000Y16693429D02*
X29698000Y16693429D01*
X30340857Y15193429D01*
X32055142Y17987429D02*
X32055142Y19487429D01*
X31483714Y19487429D01*
X31340857Y19416000D01*
X31269428Y19344572D01*
X31198000Y19201715D01*
X31198000Y18987429D01*
X31269428Y18844572D01*
X31340857Y18773143D01*
X31483714Y18701715D01*
X32055142Y18701715D01*
X30340857Y18844572D02*
X30483714Y18916000D01*
X30555142Y18987429D01*
X30626571Y19130286D01*
X30626571Y19201715D01*
X30555142Y19344572D01*
X30483714Y19416000D01*
X30340857Y19487429D01*
X30055142Y19487429D01*
X29912285Y19416000D01*
X29840857Y19344572D01*
X29769428Y19201715D01*
X29769428Y19130286D01*
X29840857Y18987429D01*
X29912285Y18916000D01*
X30055142Y18844572D01*
X30340857Y18844572D01*
X30483714Y18773143D01*
X30555142Y18701715D01*
X30626571Y18558858D01*
X30626571Y18273143D01*
X30555142Y18130286D01*
X30483714Y18058858D01*
X30340857Y17987429D01*
X30055142Y17987429D01*
X29912285Y18058858D01*
X29840857Y18130286D01*
X29769428Y18273143D01*
X29769428Y18558858D01*
X29840857Y18701715D01*
X29912285Y18773143D01*
X30055142Y18844572D01*
X31388142Y21956000D02*
X31531000Y22027429D01*
X31745285Y22027429D01*
X31959571Y21956000D01*
X32102428Y21813143D01*
X32173857Y21670286D01*
X32245285Y21384572D01*
X32245285Y21170286D01*
X32173857Y20884572D01*
X32102428Y20741715D01*
X31959571Y20598858D01*
X31745285Y20527429D01*
X31602428Y20527429D01*
X31388142Y20598858D01*
X31316714Y20670286D01*
X31316714Y21170286D01*
X31602428Y21170286D01*
X30673857Y20527429D02*
X30673857Y22027429D01*
X29816714Y20527429D01*
X29816714Y22027429D01*
X29102428Y20527429D02*
X29102428Y22027429D01*
X28745285Y22027429D01*
X28531000Y21956000D01*
X28388142Y21813143D01*
X28316714Y21670286D01*
X28245285Y21384572D01*
X28245285Y21170286D01*
X28316714Y20884572D01*
X28388142Y20741715D01*
X28531000Y20598858D01*
X28745285Y20527429D01*
X29102428Y20527429D01*
D11*
X21003619Y9413810D02*
X20289333Y9413810D01*
X20146476Y9366191D01*
X20051238Y9270953D01*
X20003619Y9128096D01*
X20003619Y9032858D01*
X20051238Y10270953D02*
X20003619Y10175715D01*
X20003619Y9985239D01*
X20051238Y9890000D01*
X20146476Y9842381D01*
X20527428Y9842381D01*
X20622666Y9890000D01*
X20670285Y9985239D01*
X20670285Y10175715D01*
X20622666Y10270953D01*
X20527428Y10318572D01*
X20432190Y10318572D01*
X20336952Y9842381D01*
X20003619Y10747143D02*
X21003619Y10747143D01*
X20622666Y10747143D02*
X20670285Y10842381D01*
X20670285Y11032858D01*
X20622666Y11128096D01*
X20575047Y11175715D01*
X20479809Y11223334D01*
X20194095Y11223334D01*
X20098857Y11175715D01*
X20051238Y11128096D01*
X20003619Y11032858D01*
X20003619Y10842381D01*
X20051238Y10747143D01*
X20003619Y12080477D02*
X20527428Y12080477D01*
X20622666Y12032858D01*
X20670285Y11937620D01*
X20670285Y11747143D01*
X20622666Y11651905D01*
X20051238Y12080477D02*
X20003619Y11985239D01*
X20003619Y11747143D01*
X20051238Y11651905D01*
X20146476Y11604286D01*
X20241714Y11604286D01*
X20336952Y11651905D01*
X20384571Y11747143D01*
X20384571Y11985239D01*
X20432190Y12080477D01*
X20003619Y12699524D02*
X20051238Y12604286D01*
X20098857Y12556667D01*
X20194095Y12509048D01*
X20479809Y12509048D01*
X20575047Y12556667D01*
X20622666Y12604286D01*
X20670285Y12699524D01*
X20670285Y12842381D01*
X20622666Y12937620D01*
X20575047Y12985239D01*
X20479809Y13032858D01*
X20194095Y13032858D01*
X20098857Y12985239D01*
X20051238Y12937620D01*
X20003619Y12842381D01*
X20003619Y12699524D01*
X20003619Y14651905D02*
X21003619Y14651905D01*
X20051238Y14651905D02*
X20003619Y14556667D01*
X20003619Y14366191D01*
X20051238Y14270953D01*
X20098857Y14223334D01*
X20194095Y14175715D01*
X20479809Y14175715D01*
X20575047Y14223334D01*
X20622666Y14270953D01*
X20670285Y14366191D01*
X20670285Y14556667D01*
X20622666Y14651905D01*
X20003619Y15270953D02*
X20051238Y15175715D01*
X20098857Y15128096D01*
X20194095Y15080477D01*
X20479809Y15080477D01*
X20575047Y15128096D01*
X20622666Y15175715D01*
X20670285Y15270953D01*
X20670285Y15413810D01*
X20622666Y15509048D01*
X20575047Y15556667D01*
X20479809Y15604286D01*
X20194095Y15604286D01*
X20098857Y15556667D01*
X20051238Y15509048D01*
X20003619Y15413810D01*
X20003619Y15270953D01*
X20051238Y15985239D02*
X20003619Y16080477D01*
X20003619Y16270953D01*
X20051238Y16366191D01*
X20146476Y16413810D01*
X20194095Y16413810D01*
X20289333Y16366191D01*
X20336952Y16270953D01*
X20336952Y16128096D01*
X20384571Y16032858D01*
X20479809Y15985239D01*
X20527428Y15985239D01*
X20622666Y16032858D01*
X20670285Y16128096D01*
X20670285Y16270953D01*
X20622666Y16366191D01*
X20051238Y17223334D02*
X20003619Y17128096D01*
X20003619Y16937620D01*
X20051238Y16842381D01*
X20146476Y16794762D01*
X20527428Y16794762D01*
X20622666Y16842381D01*
X20670285Y16937620D01*
X20670285Y17128096D01*
X20622666Y17223334D01*
X20527428Y17270953D01*
X20432190Y17270953D01*
X20336952Y16794762D01*
X20003619Y17699524D02*
X20670285Y17699524D01*
X20479809Y17699524D02*
X20575047Y17747143D01*
X20622666Y17794762D01*
X20670285Y17890000D01*
X20670285Y17985239D01*
X20003619Y19509048D02*
X20527428Y19509048D01*
X20622666Y19461429D01*
X20670285Y19366191D01*
X20670285Y19175715D01*
X20622666Y19080477D01*
X20051238Y19509048D02*
X20003619Y19413810D01*
X20003619Y19175715D01*
X20051238Y19080477D01*
X20146476Y19032858D01*
X20241714Y19032858D01*
X20336952Y19080477D01*
X20384571Y19175715D01*
X20384571Y19413810D01*
X20432190Y19509048D01*
X20003619Y20413810D02*
X21003619Y20413810D01*
X20051238Y20413810D02*
X20003619Y20318572D01*
X20003619Y20128096D01*
X20051238Y20032858D01*
X20098857Y19985239D01*
X20194095Y19937620D01*
X20479809Y19937620D01*
X20575047Y19985239D01*
X20622666Y20032858D01*
X20670285Y20128096D01*
X20670285Y20318572D01*
X20622666Y20413810D01*
X20003619Y21318572D02*
X20527428Y21318572D01*
X20622666Y21270953D01*
X20670285Y21175715D01*
X20670285Y20985239D01*
X20622666Y20890000D01*
X20051238Y21318572D02*
X20003619Y21223334D01*
X20003619Y20985239D01*
X20051238Y20890000D01*
X20146476Y20842381D01*
X20241714Y20842381D01*
X20336952Y20890000D01*
X20384571Y20985239D01*
X20384571Y21223334D01*
X20432190Y21318572D01*
X20670285Y21794762D02*
X19670285Y21794762D01*
X20622666Y21794762D02*
X20670285Y21890000D01*
X20670285Y22080477D01*
X20622666Y22175715D01*
X20575047Y22223334D01*
X20479809Y22270953D01*
X20194095Y22270953D01*
X20098857Y22223334D01*
X20051238Y22175715D01*
X20003619Y22080477D01*
X20003619Y21890000D01*
X20051238Y21794762D01*
X20670285Y22556667D02*
X20670285Y22937620D01*
X21003619Y22699524D02*
X20146476Y22699524D01*
X20051238Y22747143D01*
X20003619Y22842381D01*
X20003619Y22937620D01*
X20051238Y23651905D02*
X20003619Y23556667D01*
X20003619Y23366191D01*
X20051238Y23270953D01*
X20146476Y23223334D01*
X20527428Y23223334D01*
X20622666Y23270953D01*
X20670285Y23366191D01*
X20670285Y23556667D01*
X20622666Y23651905D01*
X20527428Y23699524D01*
X20432190Y23699524D01*
X20336952Y23223334D01*
X20003619Y24128096D02*
X20670285Y24128096D01*
X20479809Y24128096D02*
X20575047Y24175715D01*
X20622666Y24223334D01*
X20670285Y24318572D01*
X20670285Y24413810D01*
X18970285Y9556667D02*
X18160761Y9556667D01*
X18065523Y9509048D01*
X18017904Y9461429D01*
X17970285Y9366191D01*
X17970285Y9223334D01*
X18017904Y9128096D01*
X18351238Y9556667D02*
X18303619Y9461429D01*
X18303619Y9270953D01*
X18351238Y9175715D01*
X18398857Y9128096D01*
X18494095Y9080477D01*
X18779809Y9080477D01*
X18875047Y9128096D01*
X18922666Y9175715D01*
X18970285Y9270953D01*
X18970285Y9461429D01*
X18922666Y9556667D01*
X18303619Y10032858D02*
X18970285Y10032858D01*
X19303619Y10032858D02*
X19256000Y9985239D01*
X19208380Y10032858D01*
X19256000Y10080477D01*
X19303619Y10032858D01*
X19208380Y10032858D01*
X18970285Y10366191D02*
X18970285Y10747143D01*
X19303619Y10509048D02*
X18446476Y10509048D01*
X18351238Y10556667D01*
X18303619Y10651905D01*
X18303619Y10747143D01*
X18303619Y11080477D02*
X19303619Y11080477D01*
X18303619Y11509048D02*
X18827428Y11509048D01*
X18922666Y11461429D01*
X18970285Y11366191D01*
X18970285Y11223334D01*
X18922666Y11128096D01*
X18875047Y11080477D01*
X18970285Y12413810D02*
X18303619Y12413810D01*
X18970285Y11985239D02*
X18446476Y11985239D01*
X18351238Y12032858D01*
X18303619Y12128096D01*
X18303619Y12270953D01*
X18351238Y12366191D01*
X18398857Y12413810D01*
X18303619Y12890000D02*
X19303619Y12890000D01*
X18922666Y12890000D02*
X18970285Y12985239D01*
X18970285Y13175715D01*
X18922666Y13270953D01*
X18875047Y13318572D01*
X18779809Y13366191D01*
X18494095Y13366191D01*
X18398857Y13318572D01*
X18351238Y13270953D01*
X18303619Y13175715D01*
X18303619Y12985239D01*
X18351238Y12890000D01*
X18398857Y13794762D02*
X18351238Y13842381D01*
X18303619Y13794762D01*
X18351238Y13747143D01*
X18398857Y13794762D01*
X18303619Y13794762D01*
X18351238Y14699524D02*
X18303619Y14604286D01*
X18303619Y14413810D01*
X18351238Y14318572D01*
X18398857Y14270953D01*
X18494095Y14223334D01*
X18779809Y14223334D01*
X18875047Y14270953D01*
X18922666Y14318572D01*
X18970285Y14413810D01*
X18970285Y14604286D01*
X18922666Y14699524D01*
X18303619Y15270953D02*
X18351238Y15175715D01*
X18398857Y15128096D01*
X18494095Y15080477D01*
X18779809Y15080477D01*
X18875047Y15128096D01*
X18922666Y15175715D01*
X18970285Y15270953D01*
X18970285Y15413810D01*
X18922666Y15509048D01*
X18875047Y15556667D01*
X18779809Y15604286D01*
X18494095Y15604286D01*
X18398857Y15556667D01*
X18351238Y15509048D01*
X18303619Y15413810D01*
X18303619Y15270953D01*
X18303619Y16032858D02*
X18970285Y16032858D01*
X18875047Y16032858D02*
X18922666Y16080477D01*
X18970285Y16175715D01*
X18970285Y16318572D01*
X18922666Y16413810D01*
X18827428Y16461429D01*
X18303619Y16461429D01*
X18827428Y16461429D02*
X18922666Y16509048D01*
X18970285Y16604286D01*
X18970285Y16747143D01*
X18922666Y16842381D01*
X18827428Y16890000D01*
X18303619Y16890000D01*
X19351238Y18080477D02*
X18065523Y17223334D01*
X18303619Y18413810D02*
X18970285Y18413810D01*
X18779809Y18413810D02*
X18875047Y18461429D01*
X18922666Y18509048D01*
X18970285Y18604286D01*
X18970285Y18699524D01*
X18303619Y19461429D02*
X18827428Y19461429D01*
X18922666Y19413810D01*
X18970285Y19318572D01*
X18970285Y19128096D01*
X18922666Y19032858D01*
X18351238Y19461429D02*
X18303619Y19366191D01*
X18303619Y19128096D01*
X18351238Y19032858D01*
X18446476Y18985239D01*
X18541714Y18985239D01*
X18636952Y19032858D01*
X18684571Y19128096D01*
X18684571Y19366191D01*
X18732190Y19461429D01*
X18970285Y19937620D02*
X18303619Y19937620D01*
X18875047Y19937620D02*
X18922666Y19985239D01*
X18970285Y20080477D01*
X18970285Y20223334D01*
X18922666Y20318572D01*
X18827428Y20366191D01*
X18303619Y20366191D01*
X18970285Y20699524D02*
X18970285Y21080477D01*
X19303619Y20842381D02*
X18446476Y20842381D01*
X18351238Y20890000D01*
X18303619Y20985239D01*
X18303619Y21080477D01*
X18303619Y21413810D02*
X19303619Y21413810D01*
X18303619Y21842381D02*
X18827428Y21842381D01*
X18922666Y21794762D01*
X18970285Y21699524D01*
X18970285Y21556667D01*
X18922666Y21461429D01*
X18875047Y21413810D01*
X18303619Y22747143D02*
X18827428Y22747143D01*
X18922666Y22699524D01*
X18970285Y22604286D01*
X18970285Y22413810D01*
X18922666Y22318572D01*
X18351238Y22747143D02*
X18303619Y22651905D01*
X18303619Y22413810D01*
X18351238Y22318572D01*
X18446476Y22270953D01*
X18541714Y22270953D01*
X18636952Y22318572D01*
X18684571Y22413810D01*
X18684571Y22651905D01*
X18732190Y22747143D01*
X18303619Y23366191D02*
X18351238Y23270953D01*
X18446476Y23223334D01*
X19303619Y23223334D01*
X18303619Y23747143D02*
X18970285Y23747143D01*
X19303619Y23747143D02*
X19256000Y23699524D01*
X19208380Y23747143D01*
X19256000Y23794762D01*
X19303619Y23747143D01*
X19208380Y23747143D01*
X18303619Y24366191D02*
X18351238Y24270953D01*
X18398857Y24223334D01*
X18494095Y24175715D01*
X18779809Y24175715D01*
X18875047Y24223334D01*
X18922666Y24270953D01*
X18970285Y24366191D01*
X18970285Y24509048D01*
X18922666Y24604286D01*
X18875047Y24651905D01*
X18779809Y24699524D01*
X18494095Y24699524D01*
X18398857Y24651905D01*
X18351238Y24604286D01*
X18303619Y24509048D01*
X18303619Y24366191D01*
X18970285Y25128096D02*
X18303619Y25128096D01*
X18875047Y25128096D02*
X18922666Y25175715D01*
X18970285Y25270953D01*
X18970285Y25413810D01*
X18922666Y25509048D01*
X18827428Y25556667D01*
X18303619Y25556667D01*
X19351238Y26747143D02*
X18065523Y25890000D01*
X17270285Y9128096D02*
X16413142Y9128096D01*
X16317904Y9080477D01*
X16270285Y8985239D01*
X16270285Y8937620D01*
X17603619Y9128096D02*
X17556000Y9080477D01*
X17508380Y9128096D01*
X17556000Y9175715D01*
X17603619Y9128096D01*
X17508380Y9128096D01*
X16651238Y9985239D02*
X16603619Y9890000D01*
X16603619Y9699524D01*
X16651238Y9604286D01*
X16746476Y9556667D01*
X17127428Y9556667D01*
X17222666Y9604286D01*
X17270285Y9699524D01*
X17270285Y9890000D01*
X17222666Y9985239D01*
X17127428Y10032858D01*
X17032190Y10032858D01*
X16936952Y9556667D01*
X16603619Y10461429D02*
X17603619Y10461429D01*
X17222666Y10461429D02*
X17270285Y10556667D01*
X17270285Y10747143D01*
X17222666Y10842381D01*
X17175047Y10890000D01*
X17079809Y10937620D01*
X16794095Y10937620D01*
X16698857Y10890000D01*
X16651238Y10842381D01*
X16603619Y10747143D01*
X16603619Y10556667D01*
X16651238Y10461429D01*
X16603619Y11794762D02*
X17127428Y11794762D01*
X17222666Y11747143D01*
X17270285Y11651905D01*
X17270285Y11461429D01*
X17222666Y11366191D01*
X16651238Y11794762D02*
X16603619Y11699524D01*
X16603619Y11461429D01*
X16651238Y11366191D01*
X16746476Y11318572D01*
X16841714Y11318572D01*
X16936952Y11366191D01*
X16984571Y11461429D01*
X16984571Y11699524D01*
X17032190Y11794762D01*
X16603619Y12413810D02*
X16651238Y12318572D01*
X16698857Y12270953D01*
X16794095Y12223334D01*
X17079809Y12223334D01*
X17175047Y12270953D01*
X17222666Y12318572D01*
X17270285Y12413810D01*
X17270285Y12556667D01*
X17222666Y12651905D01*
X17175047Y12699524D01*
X17079809Y12747143D01*
X16794095Y12747143D01*
X16698857Y12699524D01*
X16651238Y12651905D01*
X16603619Y12556667D01*
X16603619Y12413810D01*
X16603619Y13175715D02*
X17603619Y13175715D01*
X17603619Y13413810D01*
X17556000Y13556667D01*
X17460761Y13651905D01*
X17365523Y13699524D01*
X17175047Y13747143D01*
X17032190Y13747143D01*
X16841714Y13699524D01*
X16746476Y13651905D01*
X16651238Y13556667D01*
X16603619Y13413810D01*
X16603619Y13175715D01*
X16603619Y14318572D02*
X16651238Y14223334D01*
X16698857Y14175715D01*
X16794095Y14128096D01*
X17079809Y14128096D01*
X17175047Y14175715D01*
X17222666Y14223334D01*
X17270285Y14318572D01*
X17270285Y14461429D01*
X17222666Y14556667D01*
X17175047Y14604286D01*
X17079809Y14651905D01*
X16794095Y14651905D01*
X16698857Y14604286D01*
X16651238Y14556667D01*
X16603619Y14461429D01*
X16603619Y14318572D01*
X16651238Y15032858D02*
X16603619Y15128096D01*
X16603619Y15318572D01*
X16651238Y15413810D01*
X16746476Y15461429D01*
X16794095Y15461429D01*
X16889333Y15413810D01*
X16936952Y15318572D01*
X16936952Y15175715D01*
X16984571Y15080477D01*
X17079809Y15032858D01*
X17127428Y15032858D01*
X17222666Y15080477D01*
X17270285Y15175715D01*
X17270285Y15318572D01*
X17222666Y15413810D01*
X16603619Y15890000D02*
X17270285Y15890000D01*
X17603619Y15890000D02*
X17556000Y15842381D01*
X17508380Y15890000D01*
X17556000Y15937620D01*
X17603619Y15890000D01*
X17508380Y15890000D01*
X17270285Y16366191D02*
X16603619Y16366191D01*
X17175047Y16366191D02*
X17222666Y16413810D01*
X17270285Y16509048D01*
X17270285Y16651905D01*
X17222666Y16747143D01*
X17127428Y16794762D01*
X16603619Y16794762D01*
X17270285Y17699524D02*
X16460761Y17699524D01*
X16365523Y17651905D01*
X16317904Y17604286D01*
X16270285Y17509048D01*
X16270285Y17366191D01*
X16317904Y17270953D01*
X16651238Y17699524D02*
X16603619Y17604286D01*
X16603619Y17413810D01*
X16651238Y17318572D01*
X16698857Y17270953D01*
X16794095Y17223334D01*
X17079809Y17223334D01*
X17175047Y17270953D01*
X17222666Y17318572D01*
X17270285Y17413810D01*
X17270285Y17604286D01*
X17222666Y17699524D01*
X16889333Y18128096D02*
X16889333Y18604286D01*
X16603619Y18032858D02*
X17603619Y18366191D01*
X16603619Y18699524D01*
X16603619Y19461429D02*
X17603619Y19461429D01*
X16651238Y19461429D02*
X16603619Y19366191D01*
X16603619Y19175715D01*
X16651238Y19080477D01*
X16698857Y19032858D01*
X16794095Y18985239D01*
X17079809Y18985239D01*
X17175047Y19032858D01*
X17222666Y19080477D01*
X17270285Y19175715D01*
X17270285Y19366191D01*
X17222666Y19461429D01*
X16603619Y20366191D02*
X17127428Y20366191D01*
X17222666Y20318572D01*
X17270285Y20223334D01*
X17270285Y20032858D01*
X17222666Y19937620D01*
X16651238Y20366191D02*
X16603619Y20270953D01*
X16603619Y20032858D01*
X16651238Y19937620D01*
X16746476Y19890000D01*
X16841714Y19890000D01*
X16936952Y19937620D01*
X16984571Y20032858D01*
X16984571Y20270953D01*
X17032190Y20366191D01*
X17270285Y20842381D02*
X16270285Y20842381D01*
X17222666Y20842381D02*
X17270285Y20937620D01*
X17270285Y21128096D01*
X17222666Y21223334D01*
X17175047Y21270953D01*
X17079809Y21318572D01*
X16794095Y21318572D01*
X16698857Y21270953D01*
X16651238Y21223334D01*
X16603619Y21128096D01*
X16603619Y20937620D01*
X16651238Y20842381D01*
X17270285Y21604286D02*
X17270285Y21985239D01*
X17603619Y21747143D02*
X16746476Y21747143D01*
X16651238Y21794762D01*
X16603619Y21890000D01*
X16603619Y21985239D01*
X16651238Y22699524D02*
X16603619Y22604286D01*
X16603619Y22413810D01*
X16651238Y22318572D01*
X16746476Y22270953D01*
X17127428Y22270953D01*
X17222666Y22318572D01*
X17270285Y22413810D01*
X17270285Y22604286D01*
X17222666Y22699524D01*
X17127428Y22747143D01*
X17032190Y22747143D01*
X16936952Y22270953D01*
X16603619Y23175715D02*
X17270285Y23175715D01*
X17079809Y23175715D02*
X17175047Y23223334D01*
X17222666Y23270953D01*
X17270285Y23366191D01*
X17270285Y23461429D01*
D12*
G04 #@! TO.C,G\002A\002A\002A*
G36*
X27970254Y15039015D02*
X27508381Y15072479D01*
X26754402Y14997872D01*
X25721252Y14816095D01*
X25108098Y14686201D01*
X23980668Y14513611D01*
X23113050Y14552577D01*
X22505902Y14802860D01*
X22159881Y15264216D01*
X22071457Y15800865D01*
X22140161Y16170870D01*
X22321862Y16731836D01*
X22579944Y17373397D01*
X22631087Y17487609D01*
X22994938Y18346760D01*
X23234403Y19042136D01*
X23339280Y19534800D01*
X23299369Y19785814D01*
X23239456Y19809842D01*
X23049744Y19672782D01*
X22969646Y19515471D01*
X22861916Y19238766D01*
X22655220Y18737615D01*
X22384537Y18096178D01*
X22217972Y17706899D01*
X21806572Y16625497D01*
X21605758Y15770746D01*
X21610660Y15110917D01*
X21757327Y14705670D01*
X22111627Y14369673D01*
X22686945Y14099660D01*
X23368449Y13941945D01*
X23706120Y13919692D01*
X24131488Y13950747D01*
X24788507Y14036911D01*
X25579593Y14164113D01*
X26234702Y14284276D01*
X27123718Y14470526D01*
X27712655Y14628856D01*
X28035595Y14770292D01*
X28127086Y14896579D01*
X27970254Y15039015D01*
X27970254Y15039015D01*
G37*
X27970254Y15039015D02*
X27508381Y15072479D01*
X26754402Y14997872D01*
X25721252Y14816095D01*
X25108098Y14686201D01*
X23980668Y14513611D01*
X23113050Y14552577D01*
X22505902Y14802860D01*
X22159881Y15264216D01*
X22071457Y15800865D01*
X22140161Y16170870D01*
X22321862Y16731836D01*
X22579944Y17373397D01*
X22631087Y17487609D01*
X22994938Y18346760D01*
X23234403Y19042136D01*
X23339280Y19534800D01*
X23299369Y19785814D01*
X23239456Y19809842D01*
X23049744Y19672782D01*
X22969646Y19515471D01*
X22861916Y19238766D01*
X22655220Y18737615D01*
X22384537Y18096178D01*
X22217972Y17706899D01*
X21806572Y16625497D01*
X21605758Y15770746D01*
X21610660Y15110917D01*
X21757327Y14705670D01*
X22111627Y14369673D01*
X22686945Y14099660D01*
X23368449Y13941945D01*
X23706120Y13919692D01*
X24131488Y13950747D01*
X24788507Y14036911D01*
X25579593Y14164113D01*
X26234702Y14284276D01*
X27123718Y14470526D01*
X27712655Y14628856D01*
X28035595Y14770292D01*
X28127086Y14896579D01*
X27970254Y15039015D01*
G36*
X28767159Y13138201D02*
X28641497Y13235464D01*
X28381944Y13308962D01*
X27947495Y13364010D01*
X27297146Y13405921D01*
X26389892Y13440009D01*
X25267483Y13469636D01*
X24316168Y13499245D01*
X23468418Y13538852D01*
X22787778Y13584458D01*
X22337795Y13632066D01*
X22197616Y13662817D01*
X21957461Y13699700D01*
X21903245Y13630998D01*
X22068025Y13402082D01*
X22552774Y13213775D01*
X23343107Y13069440D01*
X24424636Y12972437D01*
X24804900Y12953017D01*
X25575230Y12910469D01*
X26205182Y12858517D01*
X26629105Y12803782D01*
X26781391Y12753651D01*
X26633351Y12652286D01*
X26253236Y12513740D01*
X25922960Y12420321D01*
X25262042Y12210499D01*
X24546141Y11918891D01*
X23851653Y11584833D01*
X23254975Y11247663D01*
X22832503Y10946718D01*
X22665469Y10743004D01*
X22633353Y10341295D01*
X22671406Y10169105D01*
X22934379Y9850296D01*
X23425340Y9529592D01*
X24041163Y9264633D01*
X24515236Y9138600D01*
X24866758Y9052321D01*
X24983202Y8962864D01*
X24845938Y8863804D01*
X24436336Y8748716D01*
X23735766Y8611173D01*
X22725598Y8444753D01*
X22323775Y8382805D01*
X21441327Y8246734D01*
X20652660Y8122041D01*
X20030331Y8020419D01*
X19646899Y7953563D01*
X19590331Y7942256D01*
X19323705Y7793660D01*
X19210342Y7571336D01*
X19284988Y7395237D01*
X19422119Y7361524D01*
X19682025Y7392344D01*
X20238910Y7481484D01*
X21059517Y7623060D01*
X22110584Y7811185D01*
X23358852Y8039973D01*
X24771061Y8303539D01*
X25167535Y8378273D01*
X25889753Y8528168D01*
X26492058Y8678249D01*
X26894213Y8807155D01*
X27009455Y8868635D01*
X27098993Y9096264D01*
X26869100Y9285684D01*
X26314546Y9439220D01*
X25462216Y9555987D01*
X24600600Y9664728D01*
X24000281Y9802494D01*
X23586157Y9994260D01*
X23283128Y10265004D01*
X23264792Y10286768D01*
X23234516Y10534845D01*
X23521840Y10827519D01*
X24130278Y11166682D01*
X25063346Y11554226D01*
X26324559Y11992045D01*
X26590036Y12077400D01*
X27578480Y12408757D01*
X28286369Y12683375D01*
X28696899Y12894148D01*
X28799934Y13011860D01*
X28767159Y13138201D01*
X28767159Y13138201D01*
G37*
X28767159Y13138201D02*
X28641497Y13235464D01*
X28381944Y13308962D01*
X27947495Y13364010D01*
X27297146Y13405921D01*
X26389892Y13440009D01*
X25267483Y13469636D01*
X24316168Y13499245D01*
X23468418Y13538852D01*
X22787778Y13584458D01*
X22337795Y13632066D01*
X22197616Y13662817D01*
X21957461Y13699700D01*
X21903245Y13630998D01*
X22068025Y13402082D01*
X22552774Y13213775D01*
X23343107Y13069440D01*
X24424636Y12972437D01*
X24804900Y12953017D01*
X25575230Y12910469D01*
X26205182Y12858517D01*
X26629105Y12803782D01*
X26781391Y12753651D01*
X26633351Y12652286D01*
X26253236Y12513740D01*
X25922960Y12420321D01*
X25262042Y12210499D01*
X24546141Y11918891D01*
X23851653Y11584833D01*
X23254975Y11247663D01*
X22832503Y10946718D01*
X22665469Y10743004D01*
X22633353Y10341295D01*
X22671406Y10169105D01*
X22934379Y9850296D01*
X23425340Y9529592D01*
X24041163Y9264633D01*
X24515236Y9138600D01*
X24866758Y9052321D01*
X24983202Y8962864D01*
X24845938Y8863804D01*
X24436336Y8748716D01*
X23735766Y8611173D01*
X22725598Y8444753D01*
X22323775Y8382805D01*
X21441327Y8246734D01*
X20652660Y8122041D01*
X20030331Y8020419D01*
X19646899Y7953563D01*
X19590331Y7942256D01*
X19323705Y7793660D01*
X19210342Y7571336D01*
X19284988Y7395237D01*
X19422119Y7361524D01*
X19682025Y7392344D01*
X20238910Y7481484D01*
X21059517Y7623060D01*
X22110584Y7811185D01*
X23358852Y8039973D01*
X24771061Y8303539D01*
X25167535Y8378273D01*
X25889753Y8528168D01*
X26492058Y8678249D01*
X26894213Y8807155D01*
X27009455Y8868635D01*
X27098993Y9096264D01*
X26869100Y9285684D01*
X26314546Y9439220D01*
X25462216Y9555987D01*
X24600600Y9664728D01*
X24000281Y9802494D01*
X23586157Y9994260D01*
X23283128Y10265004D01*
X23264792Y10286768D01*
X23234516Y10534845D01*
X23521840Y10827519D01*
X24130278Y11166682D01*
X25063346Y11554226D01*
X26324559Y11992045D01*
X26590036Y12077400D01*
X27578480Y12408757D01*
X28286369Y12683375D01*
X28696899Y12894148D01*
X28799934Y13011860D01*
X28767159Y13138201D01*
G04 #@! TD*
M02*
