G04 #@! TF.GenerationSoftware,KiCad,Pcbnew,(5.0.1)-3*
G04 #@! TF.CreationDate,2019-09-06T22:13:27-04:00*
G04 #@! TF.ProjectId,jebaoDosingAdapter,6A6562616F446F73696E674164617074,rev?*
G04 #@! TF.SameCoordinates,PX471b200PY51b5f80*
G04 #@! TF.FileFunction,Legend,Bot*
G04 #@! TF.FilePolarity,Positive*
%FSLAX46Y46*%
G04 Gerber Fmt 4.6, Leading zero omitted, Abs format (unit mm)*
G04 Created by KiCad (PCBNEW (5.0.1)-3) date 9/6/2019 10:13:27 PM*
%MOMM*%
%LPD*%
G01*
G04 APERTURE LIST*
%ADD10C,0.120000*%
%ADD11C,0.100000*%
%ADD12C,0.150000*%
G04 APERTURE END LIST*
D10*
G04 #@! TO.C,J3*
X11540000Y6360000D02*
X13070000Y6360000D01*
X4520000Y6830000D02*
X13540000Y6830000D01*
D11*
X4590000Y6830000D02*
X4520000Y6830000D01*
D10*
X-4460000Y6830000D02*
X2320000Y6830000D01*
X-4460000Y20030000D02*
X-4460000Y6830000D01*
D11*
X-4450000Y20030000D02*
X-4460000Y20030000D01*
D10*
X-4460000Y20030000D02*
X2320000Y20030000D01*
D11*
X-4340000Y20030000D02*
X-4460000Y20030000D01*
D10*
X13540000Y20030000D02*
X4520000Y20030000D01*
X13540000Y6830000D02*
X13540000Y20030000D01*
D12*
X13922380Y8923334D02*
X14636666Y8923334D01*
X14779523Y8970953D01*
X14874761Y9066191D01*
X14922380Y9209048D01*
X14922380Y9304286D01*
X13922380Y8542381D02*
X13922380Y7923334D01*
X14303333Y8256667D01*
X14303333Y8113810D01*
X14350952Y8018572D01*
X14398571Y7970953D01*
X14493809Y7923334D01*
X14731904Y7923334D01*
X14827142Y7970953D01*
X14874761Y8018572D01*
X14922380Y8113810D01*
X14922380Y8399524D01*
X14874761Y8494762D01*
X14827142Y8542381D01*
G04 #@! TD*
M02*
