G04 #@! TF.GenerationSoftware,KiCad,Pcbnew,(5.0.1)-3*
G04 #@! TF.CreationDate,2019-09-14T23:59:44-04:00*
G04 #@! TF.ProjectId,jebaoDosingAdapter,6A6562616F446F73696E674164617074,rev?*
G04 #@! TF.SameCoordinates,PX46492a0PY53724e0*
G04 #@! TF.FileFunction,Legend,Bot*
G04 #@! TF.FilePolarity,Positive*
%FSLAX46Y46*%
G04 Gerber Fmt 4.6, Leading zero omitted, Abs format (unit mm)*
G04 Created by KiCad (PCBNEW (5.0.1)-3) date 9/14/2019 11:59:44 PM*
%MOMM*%
%LPD*%
G01*
G04 APERTURE LIST*
%ADD10C,0.200000*%
%ADD11C,0.010000*%
G04 APERTURE END LIST*
D10*
X22527619Y9413810D02*
X21813333Y9413810D01*
X21670476Y9366191D01*
X21575238Y9270953D01*
X21527619Y9128096D01*
X21527619Y9032858D01*
X21575238Y10270953D02*
X21527619Y10175715D01*
X21527619Y9985239D01*
X21575238Y9890000D01*
X21670476Y9842381D01*
X22051428Y9842381D01*
X22146666Y9890000D01*
X22194285Y9985239D01*
X22194285Y10175715D01*
X22146666Y10270953D01*
X22051428Y10318572D01*
X21956190Y10318572D01*
X21860952Y9842381D01*
X21527619Y10747143D02*
X22527619Y10747143D01*
X22146666Y10747143D02*
X22194285Y10842381D01*
X22194285Y11032858D01*
X22146666Y11128096D01*
X22099047Y11175715D01*
X22003809Y11223334D01*
X21718095Y11223334D01*
X21622857Y11175715D01*
X21575238Y11128096D01*
X21527619Y11032858D01*
X21527619Y10842381D01*
X21575238Y10747143D01*
X21527619Y12080477D02*
X22051428Y12080477D01*
X22146666Y12032858D01*
X22194285Y11937620D01*
X22194285Y11747143D01*
X22146666Y11651905D01*
X21575238Y12080477D02*
X21527619Y11985239D01*
X21527619Y11747143D01*
X21575238Y11651905D01*
X21670476Y11604286D01*
X21765714Y11604286D01*
X21860952Y11651905D01*
X21908571Y11747143D01*
X21908571Y11985239D01*
X21956190Y12080477D01*
X21527619Y12699524D02*
X21575238Y12604286D01*
X21622857Y12556667D01*
X21718095Y12509048D01*
X22003809Y12509048D01*
X22099047Y12556667D01*
X22146666Y12604286D01*
X22194285Y12699524D01*
X22194285Y12842381D01*
X22146666Y12937620D01*
X22099047Y12985239D01*
X22003809Y13032858D01*
X21718095Y13032858D01*
X21622857Y12985239D01*
X21575238Y12937620D01*
X21527619Y12842381D01*
X21527619Y12699524D01*
X21527619Y14651905D02*
X22527619Y14651905D01*
X21575238Y14651905D02*
X21527619Y14556667D01*
X21527619Y14366191D01*
X21575238Y14270953D01*
X21622857Y14223334D01*
X21718095Y14175715D01*
X22003809Y14175715D01*
X22099047Y14223334D01*
X22146666Y14270953D01*
X22194285Y14366191D01*
X22194285Y14556667D01*
X22146666Y14651905D01*
X21527619Y15270953D02*
X21575238Y15175715D01*
X21622857Y15128096D01*
X21718095Y15080477D01*
X22003809Y15080477D01*
X22099047Y15128096D01*
X22146666Y15175715D01*
X22194285Y15270953D01*
X22194285Y15413810D01*
X22146666Y15509048D01*
X22099047Y15556667D01*
X22003809Y15604286D01*
X21718095Y15604286D01*
X21622857Y15556667D01*
X21575238Y15509048D01*
X21527619Y15413810D01*
X21527619Y15270953D01*
X21575238Y15985239D02*
X21527619Y16080477D01*
X21527619Y16270953D01*
X21575238Y16366191D01*
X21670476Y16413810D01*
X21718095Y16413810D01*
X21813333Y16366191D01*
X21860952Y16270953D01*
X21860952Y16128096D01*
X21908571Y16032858D01*
X22003809Y15985239D01*
X22051428Y15985239D01*
X22146666Y16032858D01*
X22194285Y16128096D01*
X22194285Y16270953D01*
X22146666Y16366191D01*
X21575238Y17223334D02*
X21527619Y17128096D01*
X21527619Y16937620D01*
X21575238Y16842381D01*
X21670476Y16794762D01*
X22051428Y16794762D01*
X22146666Y16842381D01*
X22194285Y16937620D01*
X22194285Y17128096D01*
X22146666Y17223334D01*
X22051428Y17270953D01*
X21956190Y17270953D01*
X21860952Y16794762D01*
X21527619Y17699524D02*
X22194285Y17699524D01*
X22003809Y17699524D02*
X22099047Y17747143D01*
X22146666Y17794762D01*
X22194285Y17890000D01*
X22194285Y17985239D01*
X21527619Y19509048D02*
X22051428Y19509048D01*
X22146666Y19461429D01*
X22194285Y19366191D01*
X22194285Y19175715D01*
X22146666Y19080477D01*
X21575238Y19509048D02*
X21527619Y19413810D01*
X21527619Y19175715D01*
X21575238Y19080477D01*
X21670476Y19032858D01*
X21765714Y19032858D01*
X21860952Y19080477D01*
X21908571Y19175715D01*
X21908571Y19413810D01*
X21956190Y19509048D01*
X21527619Y20413810D02*
X22527619Y20413810D01*
X21575238Y20413810D02*
X21527619Y20318572D01*
X21527619Y20128096D01*
X21575238Y20032858D01*
X21622857Y19985239D01*
X21718095Y19937620D01*
X22003809Y19937620D01*
X22099047Y19985239D01*
X22146666Y20032858D01*
X22194285Y20128096D01*
X22194285Y20318572D01*
X22146666Y20413810D01*
X21527619Y21318572D02*
X22051428Y21318572D01*
X22146666Y21270953D01*
X22194285Y21175715D01*
X22194285Y20985239D01*
X22146666Y20890000D01*
X21575238Y21318572D02*
X21527619Y21223334D01*
X21527619Y20985239D01*
X21575238Y20890000D01*
X21670476Y20842381D01*
X21765714Y20842381D01*
X21860952Y20890000D01*
X21908571Y20985239D01*
X21908571Y21223334D01*
X21956190Y21318572D01*
X22194285Y21794762D02*
X21194285Y21794762D01*
X22146666Y21794762D02*
X22194285Y21890000D01*
X22194285Y22080477D01*
X22146666Y22175715D01*
X22099047Y22223334D01*
X22003809Y22270953D01*
X21718095Y22270953D01*
X21622857Y22223334D01*
X21575238Y22175715D01*
X21527619Y22080477D01*
X21527619Y21890000D01*
X21575238Y21794762D01*
X22194285Y22556667D02*
X22194285Y22937620D01*
X22527619Y22699524D02*
X21670476Y22699524D01*
X21575238Y22747143D01*
X21527619Y22842381D01*
X21527619Y22937620D01*
X21575238Y23651905D02*
X21527619Y23556667D01*
X21527619Y23366191D01*
X21575238Y23270953D01*
X21670476Y23223334D01*
X22051428Y23223334D01*
X22146666Y23270953D01*
X22194285Y23366191D01*
X22194285Y23556667D01*
X22146666Y23651905D01*
X22051428Y23699524D01*
X21956190Y23699524D01*
X21860952Y23223334D01*
X21527619Y24128096D02*
X22194285Y24128096D01*
X22003809Y24128096D02*
X22099047Y24175715D01*
X22146666Y24223334D01*
X22194285Y24318572D01*
X22194285Y24413810D01*
X20494285Y9556667D02*
X19684761Y9556667D01*
X19589523Y9509048D01*
X19541904Y9461429D01*
X19494285Y9366191D01*
X19494285Y9223334D01*
X19541904Y9128096D01*
X19875238Y9556667D02*
X19827619Y9461429D01*
X19827619Y9270953D01*
X19875238Y9175715D01*
X19922857Y9128096D01*
X20018095Y9080477D01*
X20303809Y9080477D01*
X20399047Y9128096D01*
X20446666Y9175715D01*
X20494285Y9270953D01*
X20494285Y9461429D01*
X20446666Y9556667D01*
X19827619Y10032858D02*
X20494285Y10032858D01*
X20827619Y10032858D02*
X20780000Y9985239D01*
X20732380Y10032858D01*
X20780000Y10080477D01*
X20827619Y10032858D01*
X20732380Y10032858D01*
X20494285Y10366191D02*
X20494285Y10747143D01*
X20827619Y10509048D02*
X19970476Y10509048D01*
X19875238Y10556667D01*
X19827619Y10651905D01*
X19827619Y10747143D01*
X19827619Y11080477D02*
X20827619Y11080477D01*
X19827619Y11509048D02*
X20351428Y11509048D01*
X20446666Y11461429D01*
X20494285Y11366191D01*
X20494285Y11223334D01*
X20446666Y11128096D01*
X20399047Y11080477D01*
X20494285Y12413810D02*
X19827619Y12413810D01*
X20494285Y11985239D02*
X19970476Y11985239D01*
X19875238Y12032858D01*
X19827619Y12128096D01*
X19827619Y12270953D01*
X19875238Y12366191D01*
X19922857Y12413810D01*
X19827619Y12890000D02*
X20827619Y12890000D01*
X20446666Y12890000D02*
X20494285Y12985239D01*
X20494285Y13175715D01*
X20446666Y13270953D01*
X20399047Y13318572D01*
X20303809Y13366191D01*
X20018095Y13366191D01*
X19922857Y13318572D01*
X19875238Y13270953D01*
X19827619Y13175715D01*
X19827619Y12985239D01*
X19875238Y12890000D01*
X19922857Y13794762D02*
X19875238Y13842381D01*
X19827619Y13794762D01*
X19875238Y13747143D01*
X19922857Y13794762D01*
X19827619Y13794762D01*
X19875238Y14699524D02*
X19827619Y14604286D01*
X19827619Y14413810D01*
X19875238Y14318572D01*
X19922857Y14270953D01*
X20018095Y14223334D01*
X20303809Y14223334D01*
X20399047Y14270953D01*
X20446666Y14318572D01*
X20494285Y14413810D01*
X20494285Y14604286D01*
X20446666Y14699524D01*
X19827619Y15270953D02*
X19875238Y15175715D01*
X19922857Y15128096D01*
X20018095Y15080477D01*
X20303809Y15080477D01*
X20399047Y15128096D01*
X20446666Y15175715D01*
X20494285Y15270953D01*
X20494285Y15413810D01*
X20446666Y15509048D01*
X20399047Y15556667D01*
X20303809Y15604286D01*
X20018095Y15604286D01*
X19922857Y15556667D01*
X19875238Y15509048D01*
X19827619Y15413810D01*
X19827619Y15270953D01*
X19827619Y16032858D02*
X20494285Y16032858D01*
X20399047Y16032858D02*
X20446666Y16080477D01*
X20494285Y16175715D01*
X20494285Y16318572D01*
X20446666Y16413810D01*
X20351428Y16461429D01*
X19827619Y16461429D01*
X20351428Y16461429D02*
X20446666Y16509048D01*
X20494285Y16604286D01*
X20494285Y16747143D01*
X20446666Y16842381D01*
X20351428Y16890000D01*
X19827619Y16890000D01*
X20875238Y18080477D02*
X19589523Y17223334D01*
X19827619Y18413810D02*
X20494285Y18413810D01*
X20303809Y18413810D02*
X20399047Y18461429D01*
X20446666Y18509048D01*
X20494285Y18604286D01*
X20494285Y18699524D01*
X19827619Y19461429D02*
X20351428Y19461429D01*
X20446666Y19413810D01*
X20494285Y19318572D01*
X20494285Y19128096D01*
X20446666Y19032858D01*
X19875238Y19461429D02*
X19827619Y19366191D01*
X19827619Y19128096D01*
X19875238Y19032858D01*
X19970476Y18985239D01*
X20065714Y18985239D01*
X20160952Y19032858D01*
X20208571Y19128096D01*
X20208571Y19366191D01*
X20256190Y19461429D01*
X20494285Y19937620D02*
X19827619Y19937620D01*
X20399047Y19937620D02*
X20446666Y19985239D01*
X20494285Y20080477D01*
X20494285Y20223334D01*
X20446666Y20318572D01*
X20351428Y20366191D01*
X19827619Y20366191D01*
X20494285Y20699524D02*
X20494285Y21080477D01*
X20827619Y20842381D02*
X19970476Y20842381D01*
X19875238Y20890000D01*
X19827619Y20985239D01*
X19827619Y21080477D01*
X19827619Y21413810D02*
X20827619Y21413810D01*
X19827619Y21842381D02*
X20351428Y21842381D01*
X20446666Y21794762D01*
X20494285Y21699524D01*
X20494285Y21556667D01*
X20446666Y21461429D01*
X20399047Y21413810D01*
X19827619Y22747143D02*
X20351428Y22747143D01*
X20446666Y22699524D01*
X20494285Y22604286D01*
X20494285Y22413810D01*
X20446666Y22318572D01*
X19875238Y22747143D02*
X19827619Y22651905D01*
X19827619Y22413810D01*
X19875238Y22318572D01*
X19970476Y22270953D01*
X20065714Y22270953D01*
X20160952Y22318572D01*
X20208571Y22413810D01*
X20208571Y22651905D01*
X20256190Y22747143D01*
X19827619Y23366191D02*
X19875238Y23270953D01*
X19970476Y23223334D01*
X20827619Y23223334D01*
X19827619Y23747143D02*
X20494285Y23747143D01*
X20827619Y23747143D02*
X20780000Y23699524D01*
X20732380Y23747143D01*
X20780000Y23794762D01*
X20827619Y23747143D01*
X20732380Y23747143D01*
X19827619Y24366191D02*
X19875238Y24270953D01*
X19922857Y24223334D01*
X20018095Y24175715D01*
X20303809Y24175715D01*
X20399047Y24223334D01*
X20446666Y24270953D01*
X20494285Y24366191D01*
X20494285Y24509048D01*
X20446666Y24604286D01*
X20399047Y24651905D01*
X20303809Y24699524D01*
X20018095Y24699524D01*
X19922857Y24651905D01*
X19875238Y24604286D01*
X19827619Y24509048D01*
X19827619Y24366191D01*
X20494285Y25128096D02*
X19827619Y25128096D01*
X20399047Y25128096D02*
X20446666Y25175715D01*
X20494285Y25270953D01*
X20494285Y25413810D01*
X20446666Y25509048D01*
X20351428Y25556667D01*
X19827619Y25556667D01*
X20875238Y26747143D02*
X19589523Y25890000D01*
X18794285Y9128096D02*
X17937142Y9128096D01*
X17841904Y9080477D01*
X17794285Y8985239D01*
X17794285Y8937620D01*
X19127619Y9128096D02*
X19080000Y9080477D01*
X19032380Y9128096D01*
X19080000Y9175715D01*
X19127619Y9128096D01*
X19032380Y9128096D01*
X18175238Y9985239D02*
X18127619Y9890000D01*
X18127619Y9699524D01*
X18175238Y9604286D01*
X18270476Y9556667D01*
X18651428Y9556667D01*
X18746666Y9604286D01*
X18794285Y9699524D01*
X18794285Y9890000D01*
X18746666Y9985239D01*
X18651428Y10032858D01*
X18556190Y10032858D01*
X18460952Y9556667D01*
X18127619Y10461429D02*
X19127619Y10461429D01*
X18746666Y10461429D02*
X18794285Y10556667D01*
X18794285Y10747143D01*
X18746666Y10842381D01*
X18699047Y10890000D01*
X18603809Y10937620D01*
X18318095Y10937620D01*
X18222857Y10890000D01*
X18175238Y10842381D01*
X18127619Y10747143D01*
X18127619Y10556667D01*
X18175238Y10461429D01*
X18127619Y11794762D02*
X18651428Y11794762D01*
X18746666Y11747143D01*
X18794285Y11651905D01*
X18794285Y11461429D01*
X18746666Y11366191D01*
X18175238Y11794762D02*
X18127619Y11699524D01*
X18127619Y11461429D01*
X18175238Y11366191D01*
X18270476Y11318572D01*
X18365714Y11318572D01*
X18460952Y11366191D01*
X18508571Y11461429D01*
X18508571Y11699524D01*
X18556190Y11794762D01*
X18127619Y12413810D02*
X18175238Y12318572D01*
X18222857Y12270953D01*
X18318095Y12223334D01*
X18603809Y12223334D01*
X18699047Y12270953D01*
X18746666Y12318572D01*
X18794285Y12413810D01*
X18794285Y12556667D01*
X18746666Y12651905D01*
X18699047Y12699524D01*
X18603809Y12747143D01*
X18318095Y12747143D01*
X18222857Y12699524D01*
X18175238Y12651905D01*
X18127619Y12556667D01*
X18127619Y12413810D01*
X18127619Y13175715D02*
X19127619Y13175715D01*
X19127619Y13413810D01*
X19080000Y13556667D01*
X18984761Y13651905D01*
X18889523Y13699524D01*
X18699047Y13747143D01*
X18556190Y13747143D01*
X18365714Y13699524D01*
X18270476Y13651905D01*
X18175238Y13556667D01*
X18127619Y13413810D01*
X18127619Y13175715D01*
X18127619Y14318572D02*
X18175238Y14223334D01*
X18222857Y14175715D01*
X18318095Y14128096D01*
X18603809Y14128096D01*
X18699047Y14175715D01*
X18746666Y14223334D01*
X18794285Y14318572D01*
X18794285Y14461429D01*
X18746666Y14556667D01*
X18699047Y14604286D01*
X18603809Y14651905D01*
X18318095Y14651905D01*
X18222857Y14604286D01*
X18175238Y14556667D01*
X18127619Y14461429D01*
X18127619Y14318572D01*
X18175238Y15032858D02*
X18127619Y15128096D01*
X18127619Y15318572D01*
X18175238Y15413810D01*
X18270476Y15461429D01*
X18318095Y15461429D01*
X18413333Y15413810D01*
X18460952Y15318572D01*
X18460952Y15175715D01*
X18508571Y15080477D01*
X18603809Y15032858D01*
X18651428Y15032858D01*
X18746666Y15080477D01*
X18794285Y15175715D01*
X18794285Y15318572D01*
X18746666Y15413810D01*
X18127619Y15890000D02*
X18794285Y15890000D01*
X19127619Y15890000D02*
X19080000Y15842381D01*
X19032380Y15890000D01*
X19080000Y15937620D01*
X19127619Y15890000D01*
X19032380Y15890000D01*
X18794285Y16366191D02*
X18127619Y16366191D01*
X18699047Y16366191D02*
X18746666Y16413810D01*
X18794285Y16509048D01*
X18794285Y16651905D01*
X18746666Y16747143D01*
X18651428Y16794762D01*
X18127619Y16794762D01*
X18794285Y17699524D02*
X17984761Y17699524D01*
X17889523Y17651905D01*
X17841904Y17604286D01*
X17794285Y17509048D01*
X17794285Y17366191D01*
X17841904Y17270953D01*
X18175238Y17699524D02*
X18127619Y17604286D01*
X18127619Y17413810D01*
X18175238Y17318572D01*
X18222857Y17270953D01*
X18318095Y17223334D01*
X18603809Y17223334D01*
X18699047Y17270953D01*
X18746666Y17318572D01*
X18794285Y17413810D01*
X18794285Y17604286D01*
X18746666Y17699524D01*
X18413333Y18128096D02*
X18413333Y18604286D01*
X18127619Y18032858D02*
X19127619Y18366191D01*
X18127619Y18699524D01*
X18127619Y19461429D02*
X19127619Y19461429D01*
X18175238Y19461429D02*
X18127619Y19366191D01*
X18127619Y19175715D01*
X18175238Y19080477D01*
X18222857Y19032858D01*
X18318095Y18985239D01*
X18603809Y18985239D01*
X18699047Y19032858D01*
X18746666Y19080477D01*
X18794285Y19175715D01*
X18794285Y19366191D01*
X18746666Y19461429D01*
X18127619Y20366191D02*
X18651428Y20366191D01*
X18746666Y20318572D01*
X18794285Y20223334D01*
X18794285Y20032858D01*
X18746666Y19937620D01*
X18175238Y20366191D02*
X18127619Y20270953D01*
X18127619Y20032858D01*
X18175238Y19937620D01*
X18270476Y19890000D01*
X18365714Y19890000D01*
X18460952Y19937620D01*
X18508571Y20032858D01*
X18508571Y20270953D01*
X18556190Y20366191D01*
X18794285Y20842381D02*
X17794285Y20842381D01*
X18746666Y20842381D02*
X18794285Y20937620D01*
X18794285Y21128096D01*
X18746666Y21223334D01*
X18699047Y21270953D01*
X18603809Y21318572D01*
X18318095Y21318572D01*
X18222857Y21270953D01*
X18175238Y21223334D01*
X18127619Y21128096D01*
X18127619Y20937620D01*
X18175238Y20842381D01*
X18794285Y21604286D02*
X18794285Y21985239D01*
X19127619Y21747143D02*
X18270476Y21747143D01*
X18175238Y21794762D01*
X18127619Y21890000D01*
X18127619Y21985239D01*
X18175238Y22699524D02*
X18127619Y22604286D01*
X18127619Y22413810D01*
X18175238Y22318572D01*
X18270476Y22270953D01*
X18651428Y22270953D01*
X18746666Y22318572D01*
X18794285Y22413810D01*
X18794285Y22604286D01*
X18746666Y22699524D01*
X18651428Y22747143D01*
X18556190Y22747143D01*
X18460952Y22270953D01*
X18127619Y23175715D02*
X18794285Y23175715D01*
X18603809Y23175715D02*
X18699047Y23223334D01*
X18746666Y23270953D01*
X18794285Y23366191D01*
X18794285Y23461429D01*
D11*
G04 #@! TO.C,G\002A\002A\002A*
G36*
X29494254Y15039015D02*
X29032381Y15072479D01*
X28278402Y14997872D01*
X27245252Y14816095D01*
X26632098Y14686201D01*
X25504668Y14513611D01*
X24637050Y14552577D01*
X24029902Y14802860D01*
X23683881Y15264216D01*
X23595457Y15800865D01*
X23664161Y16170870D01*
X23845862Y16731836D01*
X24103944Y17373397D01*
X24155087Y17487609D01*
X24518938Y18346760D01*
X24758403Y19042136D01*
X24863280Y19534800D01*
X24823369Y19785814D01*
X24763456Y19809842D01*
X24573744Y19672782D01*
X24493646Y19515471D01*
X24385916Y19238766D01*
X24179220Y18737615D01*
X23908537Y18096178D01*
X23741972Y17706899D01*
X23330572Y16625497D01*
X23129758Y15770746D01*
X23134660Y15110917D01*
X23281327Y14705670D01*
X23635627Y14369673D01*
X24210945Y14099660D01*
X24892449Y13941945D01*
X25230120Y13919692D01*
X25655488Y13950747D01*
X26312507Y14036911D01*
X27103593Y14164113D01*
X27758702Y14284276D01*
X28647718Y14470526D01*
X29236655Y14628856D01*
X29559595Y14770292D01*
X29651086Y14896579D01*
X29494254Y15039015D01*
X29494254Y15039015D01*
G37*
X29494254Y15039015D02*
X29032381Y15072479D01*
X28278402Y14997872D01*
X27245252Y14816095D01*
X26632098Y14686201D01*
X25504668Y14513611D01*
X24637050Y14552577D01*
X24029902Y14802860D01*
X23683881Y15264216D01*
X23595457Y15800865D01*
X23664161Y16170870D01*
X23845862Y16731836D01*
X24103944Y17373397D01*
X24155087Y17487609D01*
X24518938Y18346760D01*
X24758403Y19042136D01*
X24863280Y19534800D01*
X24823369Y19785814D01*
X24763456Y19809842D01*
X24573744Y19672782D01*
X24493646Y19515471D01*
X24385916Y19238766D01*
X24179220Y18737615D01*
X23908537Y18096178D01*
X23741972Y17706899D01*
X23330572Y16625497D01*
X23129758Y15770746D01*
X23134660Y15110917D01*
X23281327Y14705670D01*
X23635627Y14369673D01*
X24210945Y14099660D01*
X24892449Y13941945D01*
X25230120Y13919692D01*
X25655488Y13950747D01*
X26312507Y14036911D01*
X27103593Y14164113D01*
X27758702Y14284276D01*
X28647718Y14470526D01*
X29236655Y14628856D01*
X29559595Y14770292D01*
X29651086Y14896579D01*
X29494254Y15039015D01*
G36*
X30291159Y13138201D02*
X30165497Y13235464D01*
X29905944Y13308962D01*
X29471495Y13364010D01*
X28821146Y13405921D01*
X27913892Y13440009D01*
X26791483Y13469636D01*
X25840168Y13499245D01*
X24992418Y13538852D01*
X24311778Y13584458D01*
X23861795Y13632066D01*
X23721616Y13662817D01*
X23481461Y13699700D01*
X23427245Y13630998D01*
X23592025Y13402082D01*
X24076774Y13213775D01*
X24867107Y13069440D01*
X25948636Y12972437D01*
X26328900Y12953017D01*
X27099230Y12910469D01*
X27729182Y12858517D01*
X28153105Y12803782D01*
X28305391Y12753651D01*
X28157351Y12652286D01*
X27777236Y12513740D01*
X27446960Y12420321D01*
X26786042Y12210499D01*
X26070141Y11918891D01*
X25375653Y11584833D01*
X24778975Y11247663D01*
X24356503Y10946718D01*
X24189469Y10743004D01*
X24157353Y10341295D01*
X24195406Y10169105D01*
X24458379Y9850296D01*
X24949340Y9529592D01*
X25565163Y9264633D01*
X26039236Y9138600D01*
X26390758Y9052321D01*
X26507202Y8962864D01*
X26369938Y8863804D01*
X25960336Y8748716D01*
X25259766Y8611173D01*
X24249598Y8444753D01*
X23847775Y8382805D01*
X22965327Y8246734D01*
X22176660Y8122041D01*
X21554331Y8020419D01*
X21170899Y7953563D01*
X21114331Y7942256D01*
X20847705Y7793660D01*
X20734342Y7571336D01*
X20808988Y7395237D01*
X20946119Y7361524D01*
X21206025Y7392344D01*
X21762910Y7481484D01*
X22583517Y7623060D01*
X23634584Y7811185D01*
X24882852Y8039973D01*
X26295061Y8303539D01*
X26691535Y8378273D01*
X27413753Y8528168D01*
X28016058Y8678249D01*
X28418213Y8807155D01*
X28533455Y8868635D01*
X28622993Y9096264D01*
X28393100Y9285684D01*
X27838546Y9439220D01*
X26986216Y9555987D01*
X26124600Y9664728D01*
X25524281Y9802494D01*
X25110157Y9994260D01*
X24807128Y10265004D01*
X24788792Y10286768D01*
X24758516Y10534845D01*
X25045840Y10827519D01*
X25654278Y11166682D01*
X26587346Y11554226D01*
X27848559Y11992045D01*
X28114036Y12077400D01*
X29102480Y12408757D01*
X29810369Y12683375D01*
X30220899Y12894148D01*
X30323934Y13011860D01*
X30291159Y13138201D01*
X30291159Y13138201D01*
G37*
X30291159Y13138201D02*
X30165497Y13235464D01*
X29905944Y13308962D01*
X29471495Y13364010D01*
X28821146Y13405921D01*
X27913892Y13440009D01*
X26791483Y13469636D01*
X25840168Y13499245D01*
X24992418Y13538852D01*
X24311778Y13584458D01*
X23861795Y13632066D01*
X23721616Y13662817D01*
X23481461Y13699700D01*
X23427245Y13630998D01*
X23592025Y13402082D01*
X24076774Y13213775D01*
X24867107Y13069440D01*
X25948636Y12972437D01*
X26328900Y12953017D01*
X27099230Y12910469D01*
X27729182Y12858517D01*
X28153105Y12803782D01*
X28305391Y12753651D01*
X28157351Y12652286D01*
X27777236Y12513740D01*
X27446960Y12420321D01*
X26786042Y12210499D01*
X26070141Y11918891D01*
X25375653Y11584833D01*
X24778975Y11247663D01*
X24356503Y10946718D01*
X24189469Y10743004D01*
X24157353Y10341295D01*
X24195406Y10169105D01*
X24458379Y9850296D01*
X24949340Y9529592D01*
X25565163Y9264633D01*
X26039236Y9138600D01*
X26390758Y9052321D01*
X26507202Y8962864D01*
X26369938Y8863804D01*
X25960336Y8748716D01*
X25259766Y8611173D01*
X24249598Y8444753D01*
X23847775Y8382805D01*
X22965327Y8246734D01*
X22176660Y8122041D01*
X21554331Y8020419D01*
X21170899Y7953563D01*
X21114331Y7942256D01*
X20847705Y7793660D01*
X20734342Y7571336D01*
X20808988Y7395237D01*
X20946119Y7361524D01*
X21206025Y7392344D01*
X21762910Y7481484D01*
X22583517Y7623060D01*
X23634584Y7811185D01*
X24882852Y8039973D01*
X26295061Y8303539D01*
X26691535Y8378273D01*
X27413753Y8528168D01*
X28016058Y8678249D01*
X28418213Y8807155D01*
X28533455Y8868635D01*
X28622993Y9096264D01*
X28393100Y9285684D01*
X27838546Y9439220D01*
X26986216Y9555987D01*
X26124600Y9664728D01*
X25524281Y9802494D01*
X25110157Y9994260D01*
X24807128Y10265004D01*
X24788792Y10286768D01*
X24758516Y10534845D01*
X25045840Y10827519D01*
X25654278Y11166682D01*
X26587346Y11554226D01*
X27848559Y11992045D01*
X28114036Y12077400D01*
X29102480Y12408757D01*
X29810369Y12683375D01*
X30220899Y12894148D01*
X30323934Y13011860D01*
X30291159Y13138201D01*
G04 #@! TD*
M02*
