G04 #@! TF.GenerationSoftware,KiCad,Pcbnew,(5.0.1)-3*
G04 #@! TF.CreationDate,2020-02-29T11:56:56-05:00*
G04 #@! TF.ProjectId,jebaoDosingAdapter,6A6562616F446F73696E674164617074,rev?*
G04 #@! TF.SameCoordinates,PX46492a0PY53724e0*
G04 #@! TF.FileFunction,Copper,L1,Top,Signal*
G04 #@! TF.FilePolarity,Positive*
%FSLAX46Y46*%
G04 Gerber Fmt 4.6, Leading zero omitted, Abs format (unit mm)*
G04 Created by KiCad (PCBNEW (5.0.1)-3) date 2/29/2020 11:56:56 AM*
%MOMM*%
%LPD*%
G01*
G04 APERTURE LIST*
G04 #@! TA.AperFunction,ComponentPad*
%ADD10C,1.400000*%
G04 #@! TD*
G04 #@! TA.AperFunction,SMDPad,CuDef*
%ADD11R,2.000000X0.600000*%
G04 #@! TD*
G04 #@! TA.AperFunction,Conductor*
%ADD12C,0.100000*%
G04 #@! TD*
G04 #@! TA.AperFunction,ComponentPad*
%ADD13C,1.700000*%
G04 #@! TD*
G04 #@! TA.AperFunction,ComponentPad*
%ADD14O,1.950000X1.700000*%
G04 #@! TD*
G04 #@! TA.AperFunction,ComponentPad*
%ADD15O,1.700000X2.000000*%
G04 #@! TD*
G04 #@! TA.AperFunction,ComponentPad*
%ADD16R,1.600000X1.600000*%
G04 #@! TD*
G04 #@! TA.AperFunction,ComponentPad*
%ADD17C,1.600000*%
G04 #@! TD*
G04 #@! TA.AperFunction,SMDPad,CuDef*
%ADD18R,0.998220X1.099820*%
G04 #@! TD*
G04 #@! TA.AperFunction,ViaPad*
%ADD19C,0.800000*%
G04 #@! TD*
G04 #@! TA.AperFunction,Conductor*
%ADD20C,0.350000*%
G04 #@! TD*
G04 #@! TA.AperFunction,Conductor*
%ADD21C,0.500000*%
G04 #@! TD*
G04 #@! TA.AperFunction,Conductor*
%ADD22C,0.254000*%
G04 #@! TD*
G04 APERTURE END LIST*
D10*
G04 #@! TO.P,J3,1*
G04 #@! TO.N,+12V*
X11160000Y12872000D03*
G04 #@! TO.P,J3,2*
G04 #@! TO.N,/P5*
X8860000Y14022000D03*
G04 #@! TO.P,J3,3*
G04 #@! TO.N,/P6*
X11160000Y14772000D03*
G04 #@! TO.P,J3,4*
G04 #@! TO.N,/P7*
X8860000Y15922000D03*
G04 #@! TO.P,J3,5*
G04 #@! TO.N,/P8*
X11160000Y16672000D03*
G04 #@! TO.P,J3,6*
G04 #@! TO.N,+12V*
X8860000Y17822000D03*
G04 #@! TD*
D11*
G04 #@! TO.P,U1,1*
G04 #@! TO.N,Net-(J1-Pad5)*
X27670000Y11050000D03*
G04 #@! TO.P,U1,2*
X27670000Y12320000D03*
G04 #@! TO.P,U1,3*
G04 #@! TO.N,Net-(J1-Pad4)*
X27670000Y13590000D03*
G04 #@! TO.P,U1,4*
X27670000Y14860000D03*
G04 #@! TO.P,U1,5*
G04 #@! TO.N,Net-(J1-Pad3)*
X27670000Y16130000D03*
G04 #@! TO.P,U1,6*
X27670000Y17400000D03*
G04 #@! TO.P,U1,7*
G04 #@! TO.N,Net-(J1-Pad2)*
X27670000Y18670000D03*
G04 #@! TO.P,U1,8*
X27670000Y19940000D03*
G04 #@! TO.P,U1,9*
G04 #@! TO.N,GND*
X27670000Y21210000D03*
G04 #@! TO.P,U1,10*
G04 #@! TO.N,+12V*
X18270000Y21210000D03*
G04 #@! TO.P,U1,11*
G04 #@! TO.N,/P8*
X18270000Y19940000D03*
G04 #@! TO.P,U1,12*
X18270000Y18670000D03*
G04 #@! TO.P,U1,13*
G04 #@! TO.N,/P7*
X18270000Y17400000D03*
G04 #@! TO.P,U1,14*
X18270000Y16130000D03*
G04 #@! TO.P,U1,15*
G04 #@! TO.N,/P6*
X18270000Y14860000D03*
G04 #@! TO.P,U1,16*
X18270000Y13590000D03*
G04 #@! TO.P,U1,17*
G04 #@! TO.N,/P5*
X18270000Y12320000D03*
G04 #@! TO.P,U1,18*
X18270000Y11050000D03*
G04 #@! TD*
D12*
G04 #@! TO.N,GND*
G04 #@! TO.C,J1*
G36*
X34999504Y22054796D02*
X35023773Y22051196D01*
X35047571Y22045235D01*
X35070671Y22036970D01*
X35092849Y22026480D01*
X35113893Y22013867D01*
X35133598Y21999253D01*
X35151777Y21982777D01*
X35168253Y21964598D01*
X35182867Y21944893D01*
X35195480Y21923849D01*
X35205970Y21901671D01*
X35214235Y21878571D01*
X35220196Y21854773D01*
X35223796Y21830504D01*
X35225000Y21806000D01*
X35225000Y20606000D01*
X35223796Y20581496D01*
X35220196Y20557227D01*
X35214235Y20533429D01*
X35205970Y20510329D01*
X35195480Y20488151D01*
X35182867Y20467107D01*
X35168253Y20447402D01*
X35151777Y20429223D01*
X35133598Y20412747D01*
X35113893Y20398133D01*
X35092849Y20385520D01*
X35070671Y20375030D01*
X35047571Y20366765D01*
X35023773Y20360804D01*
X34999504Y20357204D01*
X34975000Y20356000D01*
X33525000Y20356000D01*
X33500496Y20357204D01*
X33476227Y20360804D01*
X33452429Y20366765D01*
X33429329Y20375030D01*
X33407151Y20385520D01*
X33386107Y20398133D01*
X33366402Y20412747D01*
X33348223Y20429223D01*
X33331747Y20447402D01*
X33317133Y20467107D01*
X33304520Y20488151D01*
X33294030Y20510329D01*
X33285765Y20533429D01*
X33279804Y20557227D01*
X33276204Y20581496D01*
X33275000Y20606000D01*
X33275000Y21806000D01*
X33276204Y21830504D01*
X33279804Y21854773D01*
X33285765Y21878571D01*
X33294030Y21901671D01*
X33304520Y21923849D01*
X33317133Y21944893D01*
X33331747Y21964598D01*
X33348223Y21982777D01*
X33366402Y21999253D01*
X33386107Y22013867D01*
X33407151Y22026480D01*
X33429329Y22036970D01*
X33452429Y22045235D01*
X33476227Y22051196D01*
X33500496Y22054796D01*
X33525000Y22056000D01*
X34975000Y22056000D01*
X34999504Y22054796D01*
X34999504Y22054796D01*
G37*
D13*
G04 #@! TD*
G04 #@! TO.P,J1,1*
G04 #@! TO.N,GND*
X34250000Y21206000D03*
D14*
G04 #@! TO.P,J1,2*
G04 #@! TO.N,Net-(J1-Pad2)*
X34250000Y18706000D03*
G04 #@! TO.P,J1,3*
G04 #@! TO.N,Net-(J1-Pad3)*
X34250000Y16206000D03*
G04 #@! TO.P,J1,4*
G04 #@! TO.N,Net-(J1-Pad4)*
X34250000Y13706000D03*
G04 #@! TO.P,J1,5*
G04 #@! TO.N,Net-(J1-Pad5)*
X34250000Y11206000D03*
G04 #@! TD*
D12*
G04 #@! TO.N,GND*
G04 #@! TO.C,J2*
G36*
X22936504Y5440796D02*
X22960773Y5437196D01*
X22984571Y5431235D01*
X23007671Y5422970D01*
X23029849Y5412480D01*
X23050893Y5399867D01*
X23070598Y5385253D01*
X23088777Y5368777D01*
X23105253Y5350598D01*
X23119867Y5330893D01*
X23132480Y5309849D01*
X23142970Y5287671D01*
X23151235Y5264571D01*
X23157196Y5240773D01*
X23160796Y5216504D01*
X23162000Y5192000D01*
X23162000Y3692000D01*
X23160796Y3667496D01*
X23157196Y3643227D01*
X23151235Y3619429D01*
X23142970Y3596329D01*
X23132480Y3574151D01*
X23119867Y3553107D01*
X23105253Y3533402D01*
X23088777Y3515223D01*
X23070598Y3498747D01*
X23050893Y3484133D01*
X23029849Y3471520D01*
X23007671Y3461030D01*
X22984571Y3452765D01*
X22960773Y3446804D01*
X22936504Y3443204D01*
X22912000Y3442000D01*
X21712000Y3442000D01*
X21687496Y3443204D01*
X21663227Y3446804D01*
X21639429Y3452765D01*
X21616329Y3461030D01*
X21594151Y3471520D01*
X21573107Y3484133D01*
X21553402Y3498747D01*
X21535223Y3515223D01*
X21518747Y3533402D01*
X21504133Y3553107D01*
X21491520Y3574151D01*
X21481030Y3596329D01*
X21472765Y3619429D01*
X21466804Y3643227D01*
X21463204Y3667496D01*
X21462000Y3692000D01*
X21462000Y5192000D01*
X21463204Y5216504D01*
X21466804Y5240773D01*
X21472765Y5264571D01*
X21481030Y5287671D01*
X21491520Y5309849D01*
X21504133Y5330893D01*
X21518747Y5350598D01*
X21535223Y5368777D01*
X21553402Y5385253D01*
X21573107Y5399867D01*
X21594151Y5412480D01*
X21616329Y5422970D01*
X21639429Y5431235D01*
X21663227Y5437196D01*
X21687496Y5440796D01*
X21712000Y5442000D01*
X22912000Y5442000D01*
X22936504Y5440796D01*
X22936504Y5440796D01*
G37*
D13*
G04 #@! TD*
G04 #@! TO.P,J2,1*
G04 #@! TO.N,GND*
X22312000Y4442000D03*
D15*
G04 #@! TO.P,J2,2*
G04 #@! TO.N,+12V*
X19812000Y4442000D03*
G04 #@! TD*
D16*
G04 #@! TO.P,C1,1*
G04 #@! TO.N,+12V*
X23836000Y26794000D03*
D17*
G04 #@! TO.P,C1,2*
G04 #@! TO.N,GND*
X26336000Y26794000D03*
G04 #@! TD*
D18*
G04 #@! TO.P,R1,1*
G04 #@! TO.N,+12V*
X20026000Y26113280D03*
G04 #@! TO.P,R1,2*
G04 #@! TO.N,GND*
X20026000Y27810000D03*
G04 #@! TD*
D19*
G04 #@! TO.N,/P7*
X14438000Y16634000D03*
G04 #@! TD*
D20*
G04 #@! TO.N,Net-(J1-Pad5)*
X27670000Y12320000D02*
X29420000Y12320000D01*
X27670000Y11050000D02*
X29420000Y11050000D01*
X30186000Y11554000D02*
X29420000Y12320000D01*
X29924000Y11554000D02*
X29420000Y11050000D01*
X30186000Y11554000D02*
X29924000Y11554000D01*
G04 #@! TO.N,Net-(J1-Pad4)*
X27670000Y14860000D02*
X29420000Y14860000D01*
X30226000Y14054000D02*
X29420000Y14860000D01*
X29762000Y13590000D02*
X30226000Y14054000D01*
X27670000Y13590000D02*
X29762000Y13590000D01*
G04 #@! TO.N,Net-(J1-Pad3)*
X27670000Y17400000D02*
X29420000Y17400000D01*
X30266000Y16554000D02*
X29420000Y17400000D01*
X29842000Y16130000D02*
X30266000Y16554000D01*
X27670000Y16130000D02*
X29842000Y16130000D01*
G04 #@! TO.N,Net-(J1-Pad2)*
X27670000Y19940000D02*
X29420000Y19940000D01*
X30306000Y19054000D02*
X29420000Y19940000D01*
X29922000Y18670000D02*
X30306000Y19054000D01*
X27670000Y18670000D02*
X29922000Y18670000D01*
X30654000Y18706000D02*
X30306000Y19054000D01*
X34250000Y18706000D02*
X30654000Y18706000D01*
G04 #@! TO.N,Net-(J1-Pad3)*
X30614000Y16206000D02*
X30266000Y16554000D01*
X34250000Y16206000D02*
X30614000Y16206000D01*
G04 #@! TO.N,Net-(J1-Pad4)*
X30574000Y13706000D02*
X30226000Y14054000D01*
X34250000Y13706000D02*
X30574000Y13706000D01*
D21*
G04 #@! TO.N,+12V*
X18270000Y21210000D02*
X20880000Y21210000D01*
X17570000Y21210000D02*
X18270000Y21210000D01*
X17557937Y21197937D02*
X17570000Y21210000D01*
X8860000Y17822000D02*
X8932000Y17822000D01*
X12248000Y21210000D02*
X8860000Y17822000D01*
X18270000Y21210000D02*
X12248000Y21210000D01*
X22312000Y19778000D02*
X20880000Y21210000D01*
X22312000Y19778000D02*
X22312000Y10792000D01*
X19812000Y8292000D02*
X19812000Y4442000D01*
X22312000Y10792000D02*
X19812000Y8292000D01*
X23836000Y21302000D02*
X22312000Y19778000D01*
X23836000Y26794000D02*
X23836000Y21302000D01*
X23155280Y26113280D02*
X23836000Y26794000D01*
X20026000Y26113280D02*
X23155280Y26113280D01*
G04 #@! TO.N,/P5*
X8860000Y11798000D02*
X8860000Y14022000D01*
X9608000Y11050000D02*
X8860000Y11798000D01*
X15454000Y12320000D02*
X14184000Y11050000D01*
X18270000Y12320000D02*
X15454000Y12320000D01*
X18270000Y11050000D02*
X14184000Y11050000D01*
X14184000Y11050000D02*
X9608000Y11050000D01*
G04 #@! TO.N,/P6*
X11160000Y14772000D02*
X15116000Y14772000D01*
X15204000Y14860000D02*
X18270000Y14860000D01*
X15116000Y14772000D02*
X15204000Y14860000D01*
X16298000Y13590000D02*
X15116000Y14772000D01*
X18270000Y13590000D02*
X16298000Y13590000D01*
G04 #@! TO.N,/P7*
X18270000Y16130000D02*
X15704000Y16130000D01*
X18270000Y17400000D02*
X15712000Y17400000D01*
X15712000Y17400000D02*
X15200000Y16888000D01*
X15704000Y16130000D02*
X15200000Y16634000D01*
D20*
X14438000Y16634000D02*
X15200000Y16634000D01*
D21*
X15200000Y16888000D02*
X15200000Y16634000D01*
G04 #@! TO.N,/P8*
X11160000Y16672000D02*
X11160000Y17674000D01*
X13426000Y19940000D02*
X18270000Y19940000D01*
X12156000Y18670000D02*
X12152000Y18666000D01*
X18270000Y18670000D02*
X12156000Y18670000D01*
X11160000Y17674000D02*
X12152000Y18666000D01*
X12152000Y18666000D02*
X13426000Y19940000D01*
D20*
G04 #@! TO.N,Net-(J1-Pad5)*
X30534000Y11206000D02*
X30186000Y11554000D01*
X34250000Y11206000D02*
X30534000Y11206000D01*
G04 #@! TD*
D22*
G04 #@! TO.N,GND*
G36*
X34364604Y31097105D02*
X34961782Y30909961D01*
X35509124Y30606564D01*
X35984289Y30199299D01*
X36367852Y29704812D01*
X36644150Y29143300D01*
X36804104Y28529226D01*
X36842001Y28036717D01*
X36842000Y4731964D01*
X36775105Y4073396D01*
X36587961Y3476218D01*
X36284563Y2928875D01*
X35877299Y2453711D01*
X35382812Y2070148D01*
X34821304Y1793852D01*
X34207227Y1633896D01*
X33714730Y1596000D01*
X7615964Y1596000D01*
X6957396Y1662895D01*
X6360218Y1850039D01*
X5812875Y2153437D01*
X5337711Y2560701D01*
X4954148Y3055188D01*
X4677852Y3616696D01*
X4517896Y4230773D01*
X4480000Y4723270D01*
X4480000Y5140569D01*
X5345000Y5140569D01*
X5345000Y4251431D01*
X5685259Y3429974D01*
X6313974Y2801259D01*
X7135431Y2461000D01*
X8024569Y2461000D01*
X8846026Y2801259D01*
X9474741Y3429974D01*
X9815000Y4251431D01*
X9815000Y5140569D01*
X9474741Y5962026D01*
X8846026Y6590741D01*
X8024569Y6931000D01*
X7135431Y6931000D01*
X6313974Y6590741D01*
X5685259Y5962026D01*
X5345000Y5140569D01*
X4480000Y5140569D01*
X4480000Y9777222D01*
X4795000Y9777222D01*
X4795000Y9126778D01*
X5043914Y8525847D01*
X5503847Y8065914D01*
X6104778Y7817000D01*
X6755222Y7817000D01*
X7356153Y8065914D01*
X7816086Y8525847D01*
X8065000Y9126778D01*
X8065000Y9777222D01*
X7816086Y10378153D01*
X7356153Y10838086D01*
X6755222Y11087000D01*
X6104778Y11087000D01*
X5503847Y10838086D01*
X5043914Y10378153D01*
X4795000Y9777222D01*
X4480000Y9777222D01*
X4480000Y18087548D01*
X7525000Y18087548D01*
X7525000Y17556452D01*
X7728242Y17065783D01*
X7922025Y16872000D01*
X7728242Y16678217D01*
X7525000Y16187548D01*
X7525000Y15656452D01*
X7728242Y15165783D01*
X7922025Y14972000D01*
X7728242Y14778217D01*
X7525000Y14287548D01*
X7525000Y13756452D01*
X7728242Y13265783D01*
X7975001Y13019024D01*
X7975000Y11885161D01*
X7957663Y11798000D01*
X7975000Y11710839D01*
X7975000Y11710836D01*
X8026348Y11452691D01*
X8221951Y11159951D01*
X8295847Y11110575D01*
X8920577Y10485844D01*
X8969951Y10411951D01*
X9043844Y10362577D01*
X9043845Y10362576D01*
X9156955Y10286998D01*
X9262690Y10216348D01*
X9520835Y10165000D01*
X9520839Y10165000D01*
X9608000Y10147663D01*
X9695161Y10165000D01*
X14096839Y10165000D01*
X14184000Y10147663D01*
X14271161Y10165000D01*
X17002544Y10165000D01*
X17022235Y10151843D01*
X17270000Y10102560D01*
X19270000Y10102560D01*
X19517765Y10151843D01*
X19727809Y10292191D01*
X19868157Y10502235D01*
X19917440Y10750000D01*
X19917440Y11350000D01*
X19868157Y11597765D01*
X19809868Y11685000D01*
X19868157Y11772235D01*
X19917440Y12020000D01*
X19917440Y12620000D01*
X19868157Y12867765D01*
X19809868Y12955000D01*
X19868157Y13042235D01*
X19917440Y13290000D01*
X19917440Y13890000D01*
X19868157Y14137765D01*
X19809868Y14225000D01*
X19868157Y14312235D01*
X19917440Y14560000D01*
X19917440Y15160000D01*
X19868157Y15407765D01*
X19809868Y15495000D01*
X19868157Y15582235D01*
X19917440Y15830000D01*
X19917440Y16430000D01*
X19868157Y16677765D01*
X19809868Y16765000D01*
X19868157Y16852235D01*
X19917440Y17100000D01*
X19917440Y17700000D01*
X19868157Y17947765D01*
X19809868Y18035000D01*
X19868157Y18122235D01*
X19917440Y18370000D01*
X19917440Y18970000D01*
X19868157Y19217765D01*
X19809868Y19305000D01*
X19868157Y19392235D01*
X19917440Y19640000D01*
X19917440Y20240000D01*
X19900533Y20325000D01*
X20513422Y20325000D01*
X21427000Y19411421D01*
X21427001Y11158580D01*
X19247847Y8979425D01*
X19173951Y8930049D01*
X18978348Y8637309D01*
X18927000Y8379164D01*
X18927000Y8379161D01*
X18909663Y8292000D01*
X18927000Y8204839D01*
X18927001Y5786656D01*
X18741375Y5662625D01*
X18413161Y5171418D01*
X18327000Y4738256D01*
X18327000Y4145745D01*
X18413161Y3712583D01*
X18741375Y3221375D01*
X19232582Y2893161D01*
X19812000Y2777908D01*
X20391417Y2893161D01*
X20869656Y3212709D01*
X20923673Y3082301D01*
X21102302Y2903673D01*
X21335691Y2807000D01*
X22026250Y2807000D01*
X22185000Y2965750D01*
X22185000Y4315000D01*
X22439000Y4315000D01*
X22439000Y2965750D01*
X22597750Y2807000D01*
X23288309Y2807000D01*
X23521698Y2903673D01*
X23700327Y3082301D01*
X23797000Y3315690D01*
X23797000Y4156250D01*
X23638250Y4315000D01*
X22439000Y4315000D01*
X22185000Y4315000D01*
X22165000Y4315000D01*
X22165000Y4569000D01*
X22185000Y4569000D01*
X22185000Y5918250D01*
X22439000Y5918250D01*
X22439000Y4569000D01*
X23638250Y4569000D01*
X23797000Y4727750D01*
X23797000Y5140569D01*
X31507000Y5140569D01*
X31507000Y4251431D01*
X31847259Y3429974D01*
X32475974Y2801259D01*
X33297431Y2461000D01*
X34186569Y2461000D01*
X35008026Y2801259D01*
X35636741Y3429974D01*
X35977000Y4251431D01*
X35977000Y5140569D01*
X35636741Y5962026D01*
X35008026Y6590741D01*
X34186569Y6931000D01*
X33297431Y6931000D01*
X32475974Y6590741D01*
X31847259Y5962026D01*
X31507000Y5140569D01*
X23797000Y5140569D01*
X23797000Y5568310D01*
X23700327Y5801699D01*
X23521698Y5980327D01*
X23288309Y6077000D01*
X22597750Y6077000D01*
X22439000Y5918250D01*
X22185000Y5918250D01*
X22026250Y6077000D01*
X21335691Y6077000D01*
X21102302Y5980327D01*
X20923673Y5801699D01*
X20869656Y5671291D01*
X20697000Y5786656D01*
X20697000Y7925422D01*
X22876156Y10104577D01*
X22950049Y10153951D01*
X23007546Y10240000D01*
X23145652Y10446690D01*
X23197000Y10704835D01*
X23197000Y10704839D01*
X23214337Y10792000D01*
X23197000Y10879161D01*
X23197000Y19411422D01*
X24025578Y20240000D01*
X26022560Y20240000D01*
X26022560Y19640000D01*
X26071843Y19392235D01*
X26130132Y19305000D01*
X26071843Y19217765D01*
X26022560Y18970000D01*
X26022560Y18370000D01*
X26071843Y18122235D01*
X26130132Y18035000D01*
X26071843Y17947765D01*
X26022560Y17700000D01*
X26022560Y17100000D01*
X26071843Y16852235D01*
X26130132Y16765000D01*
X26071843Y16677765D01*
X26022560Y16430000D01*
X26022560Y15830000D01*
X26071843Y15582235D01*
X26130132Y15495000D01*
X26071843Y15407765D01*
X26022560Y15160000D01*
X26022560Y14560000D01*
X26071843Y14312235D01*
X26130132Y14225000D01*
X26071843Y14137765D01*
X26022560Y13890000D01*
X26022560Y13290000D01*
X26071843Y13042235D01*
X26130132Y12955000D01*
X26071843Y12867765D01*
X26022560Y12620000D01*
X26022560Y12020000D01*
X26071843Y11772235D01*
X26130132Y11685000D01*
X26071843Y11597765D01*
X26022560Y11350000D01*
X26022560Y10750000D01*
X26071843Y10502235D01*
X26212191Y10292191D01*
X26422235Y10151843D01*
X26670000Y10102560D01*
X28670000Y10102560D01*
X28917765Y10151843D01*
X29049700Y10240000D01*
X29340227Y10240000D01*
X29420000Y10224132D01*
X29499773Y10240000D01*
X29499774Y10240000D01*
X29736046Y10286997D01*
X30003977Y10466023D01*
X30049168Y10533656D01*
X30062428Y10546916D01*
X30217954Y10442997D01*
X30454226Y10396000D01*
X30454230Y10396000D01*
X30533999Y10380133D01*
X30613769Y10396000D01*
X32880231Y10396000D01*
X33054375Y10135375D01*
X33545582Y9807161D01*
X33978744Y9721000D01*
X34521256Y9721000D01*
X34954418Y9807161D01*
X35445625Y10135375D01*
X35773839Y10626582D01*
X35889092Y11206000D01*
X35773839Y11785418D01*
X35445625Y12276625D01*
X35177171Y12456000D01*
X35445625Y12635375D01*
X35773839Y13126582D01*
X35889092Y13706000D01*
X35773839Y14285418D01*
X35445625Y14776625D01*
X35177171Y14956000D01*
X35445625Y15135375D01*
X35773839Y15626582D01*
X35889092Y16206000D01*
X35773839Y16785418D01*
X35445625Y17276625D01*
X35177171Y17456000D01*
X35445625Y17635375D01*
X35773839Y18126582D01*
X35889092Y18706000D01*
X35773839Y19285418D01*
X35454291Y19763656D01*
X35584699Y19817673D01*
X35763327Y19996302D01*
X35860000Y20229691D01*
X35860000Y20920250D01*
X35701250Y21079000D01*
X34377000Y21079000D01*
X34377000Y21059000D01*
X34123000Y21059000D01*
X34123000Y21079000D01*
X32798750Y21079000D01*
X32640000Y20920250D01*
X32640000Y20229691D01*
X32736673Y19996302D01*
X32915301Y19817673D01*
X33045709Y19763656D01*
X32880231Y19516000D01*
X30989512Y19516000D01*
X30935167Y19570345D01*
X30935165Y19570348D01*
X30935161Y19570352D01*
X30889976Y19637976D01*
X30822351Y19683162D01*
X30049168Y20456344D01*
X30003977Y20523977D01*
X29736046Y20703003D01*
X29499774Y20750000D01*
X29499773Y20750000D01*
X29420000Y20765868D01*
X29340227Y20750000D01*
X29291045Y20750000D01*
X29305000Y20783690D01*
X29305000Y20924250D01*
X29146250Y21083000D01*
X27797000Y21083000D01*
X27797000Y21063000D01*
X27543000Y21063000D01*
X27543000Y21083000D01*
X26193750Y21083000D01*
X26035000Y20924250D01*
X26035000Y20783690D01*
X26124768Y20566972D01*
X26071843Y20487765D01*
X26022560Y20240000D01*
X24025578Y20240000D01*
X24400156Y20614577D01*
X24474049Y20663951D01*
X24531546Y20750000D01*
X24623380Y20887440D01*
X24669652Y20956690D01*
X24721000Y21214835D01*
X24721000Y21214839D01*
X24738337Y21301999D01*
X24721000Y21389159D01*
X24721000Y21636310D01*
X26035000Y21636310D01*
X26035000Y21495750D01*
X26193750Y21337000D01*
X27543000Y21337000D01*
X27543000Y21986250D01*
X27797000Y21986250D01*
X27797000Y21337000D01*
X29146250Y21337000D01*
X29305000Y21495750D01*
X29305000Y21636310D01*
X29208327Y21869699D01*
X29029698Y22048327D01*
X28796309Y22145000D01*
X27955750Y22145000D01*
X27797000Y21986250D01*
X27543000Y21986250D01*
X27384250Y22145000D01*
X26543691Y22145000D01*
X26310302Y22048327D01*
X26131673Y21869699D01*
X26035000Y21636310D01*
X24721000Y21636310D01*
X24721000Y22182309D01*
X32640000Y22182309D01*
X32640000Y21491750D01*
X32798750Y21333000D01*
X34123000Y21333000D01*
X34123000Y22532250D01*
X34377000Y22532250D01*
X34377000Y21333000D01*
X35701250Y21333000D01*
X35860000Y21491750D01*
X35860000Y22182309D01*
X35763327Y22415698D01*
X35584699Y22594327D01*
X35351310Y22691000D01*
X34535750Y22691000D01*
X34377000Y22532250D01*
X34123000Y22532250D01*
X33964250Y22691000D01*
X33148690Y22691000D01*
X32915301Y22594327D01*
X32736673Y22415698D01*
X32640000Y22182309D01*
X24721000Y22182309D01*
X24721000Y25363467D01*
X24883765Y25395843D01*
X25093809Y25536191D01*
X25234157Y25746235D01*
X25242117Y25786255D01*
X25507861Y25786255D01*
X25581995Y25540136D01*
X26119223Y25347035D01*
X26689454Y25374222D01*
X27090005Y25540136D01*
X27164139Y25786255D01*
X26336000Y26614395D01*
X25507861Y25786255D01*
X25242117Y25786255D01*
X25280693Y25980187D01*
X25328255Y25965861D01*
X26156395Y26794000D01*
X26515605Y26794000D01*
X27343745Y25965861D01*
X27589864Y26039995D01*
X27782965Y26577223D01*
X27755778Y27147454D01*
X27589864Y27548005D01*
X27343745Y27622139D01*
X26515605Y26794000D01*
X26156395Y26794000D01*
X25328255Y27622139D01*
X25280693Y27607813D01*
X25242118Y27801745D01*
X25507861Y27801745D01*
X26336000Y26973605D01*
X27164139Y27801745D01*
X27090005Y28047864D01*
X26552777Y28240965D01*
X25982546Y28213778D01*
X25581995Y28047864D01*
X25507861Y27801745D01*
X25242118Y27801745D01*
X25234157Y27841765D01*
X25093809Y28051809D01*
X24883765Y28192157D01*
X24636000Y28241440D01*
X23036000Y28241440D01*
X22788235Y28192157D01*
X22578191Y28051809D01*
X22437843Y27841765D01*
X22388560Y27594000D01*
X22388560Y26998280D01*
X21103984Y26998280D01*
X21160110Y27133781D01*
X21160110Y27524250D01*
X21001360Y27683000D01*
X20153000Y27683000D01*
X20153000Y27663000D01*
X19899000Y27663000D01*
X19899000Y27683000D01*
X19050640Y27683000D01*
X18891890Y27524250D01*
X18891890Y27133781D01*
X18962966Y26962188D01*
X18928733Y26910955D01*
X18879450Y26663190D01*
X18879450Y25563370D01*
X18928733Y25315605D01*
X19069081Y25105561D01*
X19279125Y24965213D01*
X19526890Y24915930D01*
X20525110Y24915930D01*
X20772875Y24965213D01*
X20982919Y25105561D01*
X21064918Y25228280D01*
X22951000Y25228280D01*
X22951001Y21668580D01*
X22312000Y21029578D01*
X21567425Y21774153D01*
X21518049Y21848049D01*
X21225310Y22043652D01*
X20967165Y22095000D01*
X20967161Y22095000D01*
X20880000Y22112337D01*
X20792839Y22095000D01*
X19537456Y22095000D01*
X19517765Y22108157D01*
X19270000Y22157440D01*
X17270000Y22157440D01*
X17022235Y22108157D01*
X17002544Y22095000D01*
X12335161Y22095000D01*
X12248000Y22112337D01*
X12160839Y22095000D01*
X12160835Y22095000D01*
X11926193Y22048327D01*
X11902690Y22043652D01*
X11683845Y21897424D01*
X11683844Y21897423D01*
X11609951Y21848049D01*
X11560577Y21774156D01*
X8943422Y19157000D01*
X8594452Y19157000D01*
X8103783Y18953758D01*
X7728242Y18578217D01*
X7525000Y18087548D01*
X4480000Y18087548D01*
X4480000Y21777222D01*
X4795000Y21777222D01*
X4795000Y21126778D01*
X5043914Y20525847D01*
X5503847Y20065914D01*
X6104778Y19817000D01*
X6755222Y19817000D01*
X7356153Y20065914D01*
X7816086Y20525847D01*
X8065000Y21126778D01*
X8065000Y21777222D01*
X7816086Y22378153D01*
X7356153Y22838086D01*
X6755222Y23087000D01*
X6104778Y23087000D01*
X5503847Y22838086D01*
X5043914Y22378153D01*
X4795000Y21777222D01*
X4480000Y21777222D01*
X4480000Y28028036D01*
X4528810Y28508569D01*
X5345000Y28508569D01*
X5345000Y27619431D01*
X5685259Y26797974D01*
X6313974Y26169259D01*
X7135431Y25829000D01*
X8024569Y25829000D01*
X8846026Y26169259D01*
X9474741Y26797974D01*
X9815000Y27619431D01*
X9815000Y28486219D01*
X18891890Y28486219D01*
X18891890Y28095750D01*
X19050640Y27937000D01*
X19899000Y27937000D01*
X19899000Y28836160D01*
X20153000Y28836160D01*
X20153000Y27937000D01*
X21001360Y27937000D01*
X21160110Y28095750D01*
X21160110Y28486219D01*
X21150853Y28508569D01*
X31507000Y28508569D01*
X31507000Y27619431D01*
X31847259Y26797974D01*
X32475974Y26169259D01*
X33297431Y25829000D01*
X34186569Y25829000D01*
X35008026Y26169259D01*
X35636741Y26797974D01*
X35977000Y27619431D01*
X35977000Y28508569D01*
X35636741Y29330026D01*
X35008026Y29958741D01*
X34186569Y30299000D01*
X33297431Y30299000D01*
X32475974Y29958741D01*
X31847259Y29330026D01*
X31507000Y28508569D01*
X21150853Y28508569D01*
X21063437Y28719608D01*
X20884809Y28898237D01*
X20651420Y28994910D01*
X20311750Y28994910D01*
X20153000Y28836160D01*
X19899000Y28836160D01*
X19740250Y28994910D01*
X19400580Y28994910D01*
X19167191Y28898237D01*
X18988563Y28719608D01*
X18891890Y28486219D01*
X9815000Y28486219D01*
X9815000Y28508569D01*
X9474741Y29330026D01*
X8846026Y29958741D01*
X8024569Y30299000D01*
X7135431Y30299000D01*
X6313974Y29958741D01*
X5685259Y29330026D01*
X5345000Y28508569D01*
X4528810Y28508569D01*
X4546895Y28686604D01*
X4734039Y29283782D01*
X5037436Y29831124D01*
X5444701Y30306289D01*
X5939188Y30689852D01*
X6500700Y30966150D01*
X7114774Y31126104D01*
X7607270Y31164000D01*
X33706036Y31164000D01*
X34364604Y31097105D01*
X34364604Y31097105D01*
G37*
X34364604Y31097105D02*
X34961782Y30909961D01*
X35509124Y30606564D01*
X35984289Y30199299D01*
X36367852Y29704812D01*
X36644150Y29143300D01*
X36804104Y28529226D01*
X36842001Y28036717D01*
X36842000Y4731964D01*
X36775105Y4073396D01*
X36587961Y3476218D01*
X36284563Y2928875D01*
X35877299Y2453711D01*
X35382812Y2070148D01*
X34821304Y1793852D01*
X34207227Y1633896D01*
X33714730Y1596000D01*
X7615964Y1596000D01*
X6957396Y1662895D01*
X6360218Y1850039D01*
X5812875Y2153437D01*
X5337711Y2560701D01*
X4954148Y3055188D01*
X4677852Y3616696D01*
X4517896Y4230773D01*
X4480000Y4723270D01*
X4480000Y5140569D01*
X5345000Y5140569D01*
X5345000Y4251431D01*
X5685259Y3429974D01*
X6313974Y2801259D01*
X7135431Y2461000D01*
X8024569Y2461000D01*
X8846026Y2801259D01*
X9474741Y3429974D01*
X9815000Y4251431D01*
X9815000Y5140569D01*
X9474741Y5962026D01*
X8846026Y6590741D01*
X8024569Y6931000D01*
X7135431Y6931000D01*
X6313974Y6590741D01*
X5685259Y5962026D01*
X5345000Y5140569D01*
X4480000Y5140569D01*
X4480000Y9777222D01*
X4795000Y9777222D01*
X4795000Y9126778D01*
X5043914Y8525847D01*
X5503847Y8065914D01*
X6104778Y7817000D01*
X6755222Y7817000D01*
X7356153Y8065914D01*
X7816086Y8525847D01*
X8065000Y9126778D01*
X8065000Y9777222D01*
X7816086Y10378153D01*
X7356153Y10838086D01*
X6755222Y11087000D01*
X6104778Y11087000D01*
X5503847Y10838086D01*
X5043914Y10378153D01*
X4795000Y9777222D01*
X4480000Y9777222D01*
X4480000Y18087548D01*
X7525000Y18087548D01*
X7525000Y17556452D01*
X7728242Y17065783D01*
X7922025Y16872000D01*
X7728242Y16678217D01*
X7525000Y16187548D01*
X7525000Y15656452D01*
X7728242Y15165783D01*
X7922025Y14972000D01*
X7728242Y14778217D01*
X7525000Y14287548D01*
X7525000Y13756452D01*
X7728242Y13265783D01*
X7975001Y13019024D01*
X7975000Y11885161D01*
X7957663Y11798000D01*
X7975000Y11710839D01*
X7975000Y11710836D01*
X8026348Y11452691D01*
X8221951Y11159951D01*
X8295847Y11110575D01*
X8920577Y10485844D01*
X8969951Y10411951D01*
X9043844Y10362577D01*
X9043845Y10362576D01*
X9156955Y10286998D01*
X9262690Y10216348D01*
X9520835Y10165000D01*
X9520839Y10165000D01*
X9608000Y10147663D01*
X9695161Y10165000D01*
X14096839Y10165000D01*
X14184000Y10147663D01*
X14271161Y10165000D01*
X17002544Y10165000D01*
X17022235Y10151843D01*
X17270000Y10102560D01*
X19270000Y10102560D01*
X19517765Y10151843D01*
X19727809Y10292191D01*
X19868157Y10502235D01*
X19917440Y10750000D01*
X19917440Y11350000D01*
X19868157Y11597765D01*
X19809868Y11685000D01*
X19868157Y11772235D01*
X19917440Y12020000D01*
X19917440Y12620000D01*
X19868157Y12867765D01*
X19809868Y12955000D01*
X19868157Y13042235D01*
X19917440Y13290000D01*
X19917440Y13890000D01*
X19868157Y14137765D01*
X19809868Y14225000D01*
X19868157Y14312235D01*
X19917440Y14560000D01*
X19917440Y15160000D01*
X19868157Y15407765D01*
X19809868Y15495000D01*
X19868157Y15582235D01*
X19917440Y15830000D01*
X19917440Y16430000D01*
X19868157Y16677765D01*
X19809868Y16765000D01*
X19868157Y16852235D01*
X19917440Y17100000D01*
X19917440Y17700000D01*
X19868157Y17947765D01*
X19809868Y18035000D01*
X19868157Y18122235D01*
X19917440Y18370000D01*
X19917440Y18970000D01*
X19868157Y19217765D01*
X19809868Y19305000D01*
X19868157Y19392235D01*
X19917440Y19640000D01*
X19917440Y20240000D01*
X19900533Y20325000D01*
X20513422Y20325000D01*
X21427000Y19411421D01*
X21427001Y11158580D01*
X19247847Y8979425D01*
X19173951Y8930049D01*
X18978348Y8637309D01*
X18927000Y8379164D01*
X18927000Y8379161D01*
X18909663Y8292000D01*
X18927000Y8204839D01*
X18927001Y5786656D01*
X18741375Y5662625D01*
X18413161Y5171418D01*
X18327000Y4738256D01*
X18327000Y4145745D01*
X18413161Y3712583D01*
X18741375Y3221375D01*
X19232582Y2893161D01*
X19812000Y2777908D01*
X20391417Y2893161D01*
X20869656Y3212709D01*
X20923673Y3082301D01*
X21102302Y2903673D01*
X21335691Y2807000D01*
X22026250Y2807000D01*
X22185000Y2965750D01*
X22185000Y4315000D01*
X22439000Y4315000D01*
X22439000Y2965750D01*
X22597750Y2807000D01*
X23288309Y2807000D01*
X23521698Y2903673D01*
X23700327Y3082301D01*
X23797000Y3315690D01*
X23797000Y4156250D01*
X23638250Y4315000D01*
X22439000Y4315000D01*
X22185000Y4315000D01*
X22165000Y4315000D01*
X22165000Y4569000D01*
X22185000Y4569000D01*
X22185000Y5918250D01*
X22439000Y5918250D01*
X22439000Y4569000D01*
X23638250Y4569000D01*
X23797000Y4727750D01*
X23797000Y5140569D01*
X31507000Y5140569D01*
X31507000Y4251431D01*
X31847259Y3429974D01*
X32475974Y2801259D01*
X33297431Y2461000D01*
X34186569Y2461000D01*
X35008026Y2801259D01*
X35636741Y3429974D01*
X35977000Y4251431D01*
X35977000Y5140569D01*
X35636741Y5962026D01*
X35008026Y6590741D01*
X34186569Y6931000D01*
X33297431Y6931000D01*
X32475974Y6590741D01*
X31847259Y5962026D01*
X31507000Y5140569D01*
X23797000Y5140569D01*
X23797000Y5568310D01*
X23700327Y5801699D01*
X23521698Y5980327D01*
X23288309Y6077000D01*
X22597750Y6077000D01*
X22439000Y5918250D01*
X22185000Y5918250D01*
X22026250Y6077000D01*
X21335691Y6077000D01*
X21102302Y5980327D01*
X20923673Y5801699D01*
X20869656Y5671291D01*
X20697000Y5786656D01*
X20697000Y7925422D01*
X22876156Y10104577D01*
X22950049Y10153951D01*
X23007546Y10240000D01*
X23145652Y10446690D01*
X23197000Y10704835D01*
X23197000Y10704839D01*
X23214337Y10792000D01*
X23197000Y10879161D01*
X23197000Y19411422D01*
X24025578Y20240000D01*
X26022560Y20240000D01*
X26022560Y19640000D01*
X26071843Y19392235D01*
X26130132Y19305000D01*
X26071843Y19217765D01*
X26022560Y18970000D01*
X26022560Y18370000D01*
X26071843Y18122235D01*
X26130132Y18035000D01*
X26071843Y17947765D01*
X26022560Y17700000D01*
X26022560Y17100000D01*
X26071843Y16852235D01*
X26130132Y16765000D01*
X26071843Y16677765D01*
X26022560Y16430000D01*
X26022560Y15830000D01*
X26071843Y15582235D01*
X26130132Y15495000D01*
X26071843Y15407765D01*
X26022560Y15160000D01*
X26022560Y14560000D01*
X26071843Y14312235D01*
X26130132Y14225000D01*
X26071843Y14137765D01*
X26022560Y13890000D01*
X26022560Y13290000D01*
X26071843Y13042235D01*
X26130132Y12955000D01*
X26071843Y12867765D01*
X26022560Y12620000D01*
X26022560Y12020000D01*
X26071843Y11772235D01*
X26130132Y11685000D01*
X26071843Y11597765D01*
X26022560Y11350000D01*
X26022560Y10750000D01*
X26071843Y10502235D01*
X26212191Y10292191D01*
X26422235Y10151843D01*
X26670000Y10102560D01*
X28670000Y10102560D01*
X28917765Y10151843D01*
X29049700Y10240000D01*
X29340227Y10240000D01*
X29420000Y10224132D01*
X29499773Y10240000D01*
X29499774Y10240000D01*
X29736046Y10286997D01*
X30003977Y10466023D01*
X30049168Y10533656D01*
X30062428Y10546916D01*
X30217954Y10442997D01*
X30454226Y10396000D01*
X30454230Y10396000D01*
X30533999Y10380133D01*
X30613769Y10396000D01*
X32880231Y10396000D01*
X33054375Y10135375D01*
X33545582Y9807161D01*
X33978744Y9721000D01*
X34521256Y9721000D01*
X34954418Y9807161D01*
X35445625Y10135375D01*
X35773839Y10626582D01*
X35889092Y11206000D01*
X35773839Y11785418D01*
X35445625Y12276625D01*
X35177171Y12456000D01*
X35445625Y12635375D01*
X35773839Y13126582D01*
X35889092Y13706000D01*
X35773839Y14285418D01*
X35445625Y14776625D01*
X35177171Y14956000D01*
X35445625Y15135375D01*
X35773839Y15626582D01*
X35889092Y16206000D01*
X35773839Y16785418D01*
X35445625Y17276625D01*
X35177171Y17456000D01*
X35445625Y17635375D01*
X35773839Y18126582D01*
X35889092Y18706000D01*
X35773839Y19285418D01*
X35454291Y19763656D01*
X35584699Y19817673D01*
X35763327Y19996302D01*
X35860000Y20229691D01*
X35860000Y20920250D01*
X35701250Y21079000D01*
X34377000Y21079000D01*
X34377000Y21059000D01*
X34123000Y21059000D01*
X34123000Y21079000D01*
X32798750Y21079000D01*
X32640000Y20920250D01*
X32640000Y20229691D01*
X32736673Y19996302D01*
X32915301Y19817673D01*
X33045709Y19763656D01*
X32880231Y19516000D01*
X30989512Y19516000D01*
X30935167Y19570345D01*
X30935165Y19570348D01*
X30935161Y19570352D01*
X30889976Y19637976D01*
X30822351Y19683162D01*
X30049168Y20456344D01*
X30003977Y20523977D01*
X29736046Y20703003D01*
X29499774Y20750000D01*
X29499773Y20750000D01*
X29420000Y20765868D01*
X29340227Y20750000D01*
X29291045Y20750000D01*
X29305000Y20783690D01*
X29305000Y20924250D01*
X29146250Y21083000D01*
X27797000Y21083000D01*
X27797000Y21063000D01*
X27543000Y21063000D01*
X27543000Y21083000D01*
X26193750Y21083000D01*
X26035000Y20924250D01*
X26035000Y20783690D01*
X26124768Y20566972D01*
X26071843Y20487765D01*
X26022560Y20240000D01*
X24025578Y20240000D01*
X24400156Y20614577D01*
X24474049Y20663951D01*
X24531546Y20750000D01*
X24623380Y20887440D01*
X24669652Y20956690D01*
X24721000Y21214835D01*
X24721000Y21214839D01*
X24738337Y21301999D01*
X24721000Y21389159D01*
X24721000Y21636310D01*
X26035000Y21636310D01*
X26035000Y21495750D01*
X26193750Y21337000D01*
X27543000Y21337000D01*
X27543000Y21986250D01*
X27797000Y21986250D01*
X27797000Y21337000D01*
X29146250Y21337000D01*
X29305000Y21495750D01*
X29305000Y21636310D01*
X29208327Y21869699D01*
X29029698Y22048327D01*
X28796309Y22145000D01*
X27955750Y22145000D01*
X27797000Y21986250D01*
X27543000Y21986250D01*
X27384250Y22145000D01*
X26543691Y22145000D01*
X26310302Y22048327D01*
X26131673Y21869699D01*
X26035000Y21636310D01*
X24721000Y21636310D01*
X24721000Y22182309D01*
X32640000Y22182309D01*
X32640000Y21491750D01*
X32798750Y21333000D01*
X34123000Y21333000D01*
X34123000Y22532250D01*
X34377000Y22532250D01*
X34377000Y21333000D01*
X35701250Y21333000D01*
X35860000Y21491750D01*
X35860000Y22182309D01*
X35763327Y22415698D01*
X35584699Y22594327D01*
X35351310Y22691000D01*
X34535750Y22691000D01*
X34377000Y22532250D01*
X34123000Y22532250D01*
X33964250Y22691000D01*
X33148690Y22691000D01*
X32915301Y22594327D01*
X32736673Y22415698D01*
X32640000Y22182309D01*
X24721000Y22182309D01*
X24721000Y25363467D01*
X24883765Y25395843D01*
X25093809Y25536191D01*
X25234157Y25746235D01*
X25242117Y25786255D01*
X25507861Y25786255D01*
X25581995Y25540136D01*
X26119223Y25347035D01*
X26689454Y25374222D01*
X27090005Y25540136D01*
X27164139Y25786255D01*
X26336000Y26614395D01*
X25507861Y25786255D01*
X25242117Y25786255D01*
X25280693Y25980187D01*
X25328255Y25965861D01*
X26156395Y26794000D01*
X26515605Y26794000D01*
X27343745Y25965861D01*
X27589864Y26039995D01*
X27782965Y26577223D01*
X27755778Y27147454D01*
X27589864Y27548005D01*
X27343745Y27622139D01*
X26515605Y26794000D01*
X26156395Y26794000D01*
X25328255Y27622139D01*
X25280693Y27607813D01*
X25242118Y27801745D01*
X25507861Y27801745D01*
X26336000Y26973605D01*
X27164139Y27801745D01*
X27090005Y28047864D01*
X26552777Y28240965D01*
X25982546Y28213778D01*
X25581995Y28047864D01*
X25507861Y27801745D01*
X25242118Y27801745D01*
X25234157Y27841765D01*
X25093809Y28051809D01*
X24883765Y28192157D01*
X24636000Y28241440D01*
X23036000Y28241440D01*
X22788235Y28192157D01*
X22578191Y28051809D01*
X22437843Y27841765D01*
X22388560Y27594000D01*
X22388560Y26998280D01*
X21103984Y26998280D01*
X21160110Y27133781D01*
X21160110Y27524250D01*
X21001360Y27683000D01*
X20153000Y27683000D01*
X20153000Y27663000D01*
X19899000Y27663000D01*
X19899000Y27683000D01*
X19050640Y27683000D01*
X18891890Y27524250D01*
X18891890Y27133781D01*
X18962966Y26962188D01*
X18928733Y26910955D01*
X18879450Y26663190D01*
X18879450Y25563370D01*
X18928733Y25315605D01*
X19069081Y25105561D01*
X19279125Y24965213D01*
X19526890Y24915930D01*
X20525110Y24915930D01*
X20772875Y24965213D01*
X20982919Y25105561D01*
X21064918Y25228280D01*
X22951000Y25228280D01*
X22951001Y21668580D01*
X22312000Y21029578D01*
X21567425Y21774153D01*
X21518049Y21848049D01*
X21225310Y22043652D01*
X20967165Y22095000D01*
X20967161Y22095000D01*
X20880000Y22112337D01*
X20792839Y22095000D01*
X19537456Y22095000D01*
X19517765Y22108157D01*
X19270000Y22157440D01*
X17270000Y22157440D01*
X17022235Y22108157D01*
X17002544Y22095000D01*
X12335161Y22095000D01*
X12248000Y22112337D01*
X12160839Y22095000D01*
X12160835Y22095000D01*
X11926193Y22048327D01*
X11902690Y22043652D01*
X11683845Y21897424D01*
X11683844Y21897423D01*
X11609951Y21848049D01*
X11560577Y21774156D01*
X8943422Y19157000D01*
X8594452Y19157000D01*
X8103783Y18953758D01*
X7728242Y18578217D01*
X7525000Y18087548D01*
X4480000Y18087548D01*
X4480000Y21777222D01*
X4795000Y21777222D01*
X4795000Y21126778D01*
X5043914Y20525847D01*
X5503847Y20065914D01*
X6104778Y19817000D01*
X6755222Y19817000D01*
X7356153Y20065914D01*
X7816086Y20525847D01*
X8065000Y21126778D01*
X8065000Y21777222D01*
X7816086Y22378153D01*
X7356153Y22838086D01*
X6755222Y23087000D01*
X6104778Y23087000D01*
X5503847Y22838086D01*
X5043914Y22378153D01*
X4795000Y21777222D01*
X4480000Y21777222D01*
X4480000Y28028036D01*
X4528810Y28508569D01*
X5345000Y28508569D01*
X5345000Y27619431D01*
X5685259Y26797974D01*
X6313974Y26169259D01*
X7135431Y25829000D01*
X8024569Y25829000D01*
X8846026Y26169259D01*
X9474741Y26797974D01*
X9815000Y27619431D01*
X9815000Y28486219D01*
X18891890Y28486219D01*
X18891890Y28095750D01*
X19050640Y27937000D01*
X19899000Y27937000D01*
X19899000Y28836160D01*
X20153000Y28836160D01*
X20153000Y27937000D01*
X21001360Y27937000D01*
X21160110Y28095750D01*
X21160110Y28486219D01*
X21150853Y28508569D01*
X31507000Y28508569D01*
X31507000Y27619431D01*
X31847259Y26797974D01*
X32475974Y26169259D01*
X33297431Y25829000D01*
X34186569Y25829000D01*
X35008026Y26169259D01*
X35636741Y26797974D01*
X35977000Y27619431D01*
X35977000Y28508569D01*
X35636741Y29330026D01*
X35008026Y29958741D01*
X34186569Y30299000D01*
X33297431Y30299000D01*
X32475974Y29958741D01*
X31847259Y29330026D01*
X31507000Y28508569D01*
X21150853Y28508569D01*
X21063437Y28719608D01*
X20884809Y28898237D01*
X20651420Y28994910D01*
X20311750Y28994910D01*
X20153000Y28836160D01*
X19899000Y28836160D01*
X19740250Y28994910D01*
X19400580Y28994910D01*
X19167191Y28898237D01*
X18988563Y28719608D01*
X18891890Y28486219D01*
X9815000Y28486219D01*
X9815000Y28508569D01*
X9474741Y29330026D01*
X8846026Y29958741D01*
X8024569Y30299000D01*
X7135431Y30299000D01*
X6313974Y29958741D01*
X5685259Y29330026D01*
X5345000Y28508569D01*
X4528810Y28508569D01*
X4546895Y28686604D01*
X4734039Y29283782D01*
X5037436Y29831124D01*
X5444701Y30306289D01*
X5939188Y30689852D01*
X6500700Y30966150D01*
X7114774Y31126104D01*
X7607270Y31164000D01*
X33706036Y31164000D01*
X34364604Y31097105D01*
G04 #@! TD*
M02*
