G04 #@! TF.GenerationSoftware,KiCad,Pcbnew,(5.0.1)-3*
G04 #@! TF.CreationDate,2019-09-06T22:13:27-04:00*
G04 #@! TF.ProjectId,jebaoDosingAdapter,6A6562616F446F73696E674164617074,rev?*
G04 #@! TF.SameCoordinates,PX471b200PY51b5f80*
G04 #@! TF.FileFunction,Soldermask,Bot*
G04 #@! TF.FilePolarity,Negative*
%FSLAX46Y46*%
G04 Gerber Fmt 4.6, Leading zero omitted, Abs format (unit mm)*
G04 Created by KiCad (PCBNEW (5.0.1)-3) date 9/6/2019 10:13:27 PM*
%MOMM*%
%LPD*%
G01*
G04 APERTURE LIST*
%ADD10C,0.100000*%
G04 APERTURE END LIST*
D10*
G36*
X22831000Y2689000D02*
X21029000Y2689000D01*
X21029000Y4491000D01*
X22831000Y4491000D01*
X22831000Y2689000D01*
X22831000Y2689000D01*
G37*
G36*
X24580443Y4484481D02*
X24646627Y4477963D01*
X24759853Y4443616D01*
X24816467Y4426443D01*
X24955087Y4352348D01*
X24972991Y4342778D01*
X25008729Y4313448D01*
X25110186Y4230186D01*
X25193448Y4128729D01*
X25222778Y4092991D01*
X25222779Y4092989D01*
X25306443Y3936467D01*
X25306443Y3936466D01*
X25357963Y3766627D01*
X25375359Y3590000D01*
X25357963Y3413373D01*
X25323616Y3300147D01*
X25306443Y3243533D01*
X25232348Y3104913D01*
X25222778Y3087009D01*
X25193448Y3051271D01*
X25110186Y2949814D01*
X25008729Y2866552D01*
X24972991Y2837222D01*
X24972989Y2837221D01*
X24816467Y2753557D01*
X24759853Y2736384D01*
X24646627Y2702037D01*
X24580443Y2695519D01*
X24514260Y2689000D01*
X24425740Y2689000D01*
X24359557Y2695519D01*
X24293373Y2702037D01*
X24180147Y2736384D01*
X24123533Y2753557D01*
X23967011Y2837221D01*
X23967009Y2837222D01*
X23931271Y2866552D01*
X23829814Y2949814D01*
X23746552Y3051271D01*
X23717222Y3087009D01*
X23707652Y3104913D01*
X23633557Y3243533D01*
X23616384Y3300147D01*
X23582037Y3413373D01*
X23564641Y3590000D01*
X23582037Y3766627D01*
X23633557Y3936466D01*
X23633557Y3936467D01*
X23717221Y4092989D01*
X23717222Y4092991D01*
X23746552Y4128729D01*
X23829814Y4230186D01*
X23931271Y4313448D01*
X23967009Y4342778D01*
X23984913Y4352348D01*
X24123533Y4426443D01*
X24180147Y4443616D01*
X24293373Y4477963D01*
X24359557Y4484481D01*
X24425740Y4491000D01*
X24514260Y4491000D01*
X24580443Y4484481D01*
X24580443Y4484481D01*
G37*
G36*
X3908871Y9961592D02*
X4213883Y9835252D01*
X4486538Y9653070D01*
X4488390Y9651832D01*
X4721832Y9418390D01*
X4721834Y9418387D01*
X4905252Y9143883D01*
X5031592Y8838871D01*
X5096000Y8515072D01*
X5096000Y8184928D01*
X5031592Y7861129D01*
X4905252Y7556117D01*
X4723070Y7283462D01*
X4721832Y7281610D01*
X4488390Y7048168D01*
X4488387Y7048166D01*
X4213883Y6864748D01*
X3908871Y6738408D01*
X3585072Y6674000D01*
X3254928Y6674000D01*
X2931129Y6738408D01*
X2626117Y6864748D01*
X2351613Y7048166D01*
X2351610Y7048168D01*
X2118168Y7281610D01*
X2116930Y7283462D01*
X1934748Y7556117D01*
X1808408Y7861129D01*
X1744000Y8184928D01*
X1744000Y8515072D01*
X1808408Y8838871D01*
X1934748Y9143883D01*
X2118166Y9418387D01*
X2118168Y9418390D01*
X2351610Y9651832D01*
X2353462Y9653070D01*
X2626117Y9835252D01*
X2931129Y9961592D01*
X3254928Y10026000D01*
X3585072Y10026000D01*
X3908871Y9961592D01*
X3908871Y9961592D01*
G37*
G36*
X33091000Y7759000D02*
X31289000Y7759000D01*
X31289000Y9561000D01*
X33091000Y9561000D01*
X33091000Y7759000D01*
X33091000Y7759000D01*
G37*
G36*
X13121000Y9449000D02*
X11499000Y9449000D01*
X11499000Y11071000D01*
X13121000Y11071000D01*
X13121000Y9449000D01*
X13121000Y9449000D01*
G37*
G36*
X32300443Y12094481D02*
X32366627Y12087963D01*
X32479853Y12053616D01*
X32536467Y12036443D01*
X32625225Y11989000D01*
X32692991Y11952778D01*
X32728729Y11923448D01*
X32830186Y11840186D01*
X32890608Y11766560D01*
X32942778Y11702991D01*
X32942779Y11702989D01*
X33026443Y11546467D01*
X33026443Y11546466D01*
X33077963Y11376627D01*
X33095359Y11200000D01*
X33077963Y11023373D01*
X33043616Y10910147D01*
X33026443Y10853533D01*
X32971191Y10750166D01*
X32942778Y10697009D01*
X32913448Y10661271D01*
X32830186Y10559814D01*
X32728729Y10476552D01*
X32692991Y10447222D01*
X32692989Y10447221D01*
X32536467Y10363557D01*
X32479853Y10346384D01*
X32366627Y10312037D01*
X32300443Y10305519D01*
X32234260Y10299000D01*
X32145740Y10299000D01*
X32079557Y10305519D01*
X32013373Y10312037D01*
X31900147Y10346384D01*
X31843533Y10363557D01*
X31687011Y10447221D01*
X31687009Y10447222D01*
X31651271Y10476552D01*
X31549814Y10559814D01*
X31466552Y10661271D01*
X31437222Y10697009D01*
X31408809Y10750166D01*
X31353557Y10853533D01*
X31336384Y10910147D01*
X31302037Y11023373D01*
X31284641Y11200000D01*
X31302037Y11376627D01*
X31353557Y11546466D01*
X31353557Y11546467D01*
X31437221Y11702989D01*
X31437222Y11702991D01*
X31489392Y11766560D01*
X31549814Y11840186D01*
X31651271Y11923448D01*
X31687009Y11952778D01*
X31754775Y11989000D01*
X31843533Y12036443D01*
X31900147Y12053616D01*
X32013373Y12087963D01*
X32079557Y12094481D01*
X32145740Y12101000D01*
X32234260Y12101000D01*
X32300443Y12094481D01*
X32300443Y12094481D01*
G37*
G36*
X10006560Y12309834D02*
X10154153Y12248699D01*
X10271848Y12170057D01*
X10286985Y12159943D01*
X10399943Y12046985D01*
X10399945Y12046982D01*
X10438688Y11989000D01*
X10488700Y11914151D01*
X10549834Y11766560D01*
X10581000Y11609878D01*
X10581000Y11450122D01*
X10549834Y11293440D01*
X10488699Y11145847D01*
X10406865Y11023375D01*
X10399943Y11013015D01*
X10286985Y10900057D01*
X10286982Y10900055D01*
X10154153Y10811301D01*
X10154152Y10811300D01*
X10154151Y10811300D01*
X10006560Y10750166D01*
X9849878Y10719000D01*
X9690122Y10719000D01*
X9533440Y10750166D01*
X9385849Y10811300D01*
X9385848Y10811300D01*
X9385847Y10811301D01*
X9253018Y10900055D01*
X9253015Y10900057D01*
X9140057Y11013015D01*
X9133135Y11023375D01*
X9051301Y11145847D01*
X8990166Y11293440D01*
X8959000Y11450122D01*
X8959000Y11609878D01*
X8990166Y11766560D01*
X9051300Y11914151D01*
X9101313Y11989000D01*
X9140055Y12046982D01*
X9140057Y12046985D01*
X9253015Y12159943D01*
X9268152Y12170057D01*
X9385847Y12248699D01*
X9533440Y12309834D01*
X9690122Y12341000D01*
X9849878Y12341000D01*
X10006560Y12309834D01*
X10006560Y12309834D01*
G37*
G36*
X12546560Y13579834D02*
X12694153Y13518699D01*
X12811848Y13440057D01*
X12826985Y13429943D01*
X12939943Y13316985D01*
X12939945Y13316982D01*
X13028699Y13184153D01*
X13089834Y13036560D01*
X13121000Y12879877D01*
X13121000Y12720123D01*
X13089834Y12563440D01*
X13028699Y12415847D01*
X12957863Y12309834D01*
X12939943Y12283015D01*
X12826985Y12170057D01*
X12826982Y12170055D01*
X12694153Y12081301D01*
X12694152Y12081300D01*
X12694151Y12081300D01*
X12546560Y12020166D01*
X12389878Y11989000D01*
X12230122Y11989000D01*
X12073440Y12020166D01*
X11925849Y12081300D01*
X11925848Y12081300D01*
X11925847Y12081301D01*
X11793018Y12170055D01*
X11793015Y12170057D01*
X11680057Y12283015D01*
X11662137Y12309834D01*
X11591301Y12415847D01*
X11530166Y12563440D01*
X11499000Y12720123D01*
X11499000Y12879877D01*
X11530166Y13036560D01*
X11591301Y13184153D01*
X11680055Y13316982D01*
X11680057Y13316985D01*
X11793015Y13429943D01*
X11808152Y13440057D01*
X11925847Y13518699D01*
X12073440Y13579834D01*
X12230122Y13611000D01*
X12389878Y13611000D01*
X12546560Y13579834D01*
X12546560Y13579834D01*
G37*
G36*
X32300443Y14634481D02*
X32366627Y14627963D01*
X32479853Y14593616D01*
X32536467Y14576443D01*
X32625225Y14529000D01*
X32692991Y14492778D01*
X32728729Y14463448D01*
X32830186Y14380186D01*
X32890608Y14306560D01*
X32942778Y14242991D01*
X32942779Y14242989D01*
X33026443Y14086467D01*
X33026443Y14086466D01*
X33077963Y13916627D01*
X33095359Y13740000D01*
X33077963Y13563373D01*
X33064411Y13518699D01*
X33026443Y13393533D01*
X32985525Y13316982D01*
X32942778Y13237009D01*
X32913448Y13201271D01*
X32830186Y13099814D01*
X32728729Y13016552D01*
X32692991Y12987222D01*
X32692989Y12987221D01*
X32536467Y12903557D01*
X32479853Y12886384D01*
X32366627Y12852037D01*
X32300442Y12845518D01*
X32234260Y12839000D01*
X32145740Y12839000D01*
X32079558Y12845518D01*
X32013373Y12852037D01*
X31900147Y12886384D01*
X31843533Y12903557D01*
X31687011Y12987221D01*
X31687009Y12987222D01*
X31651271Y13016552D01*
X31549814Y13099814D01*
X31466552Y13201271D01*
X31437222Y13237009D01*
X31394475Y13316982D01*
X31353557Y13393533D01*
X31315589Y13518699D01*
X31302037Y13563373D01*
X31284641Y13740000D01*
X31302037Y13916627D01*
X31353557Y14086466D01*
X31353557Y14086467D01*
X31437221Y14242989D01*
X31437222Y14242991D01*
X31489392Y14306560D01*
X31549814Y14380186D01*
X31651271Y14463448D01*
X31687009Y14492778D01*
X31754775Y14529000D01*
X31843533Y14576443D01*
X31900147Y14593616D01*
X32013373Y14627963D01*
X32079557Y14634481D01*
X32145740Y14641000D01*
X32234260Y14641000D01*
X32300443Y14634481D01*
X32300443Y14634481D01*
G37*
G36*
X10006560Y14849834D02*
X10154153Y14788699D01*
X10271848Y14710057D01*
X10286985Y14699943D01*
X10399943Y14586985D01*
X10399945Y14586982D01*
X10438688Y14529000D01*
X10488700Y14454151D01*
X10549834Y14306560D01*
X10581000Y14149878D01*
X10581000Y13990122D01*
X10549834Y13833440D01*
X10488699Y13685847D01*
X10417863Y13579834D01*
X10399943Y13553015D01*
X10286985Y13440057D01*
X10286982Y13440055D01*
X10154153Y13351301D01*
X10154152Y13351300D01*
X10154151Y13351300D01*
X10006560Y13290166D01*
X9849878Y13259000D01*
X9690122Y13259000D01*
X9533440Y13290166D01*
X9385849Y13351300D01*
X9385848Y13351300D01*
X9385847Y13351301D01*
X9253018Y13440055D01*
X9253015Y13440057D01*
X9140057Y13553015D01*
X9122137Y13579834D01*
X9051301Y13685847D01*
X8990166Y13833440D01*
X8959000Y13990122D01*
X8959000Y14149878D01*
X8990166Y14306560D01*
X9051300Y14454151D01*
X9101313Y14529000D01*
X9140055Y14586982D01*
X9140057Y14586985D01*
X9253015Y14699943D01*
X9268152Y14710057D01*
X9385847Y14788699D01*
X9533440Y14849834D01*
X9690122Y14881000D01*
X9849878Y14881000D01*
X10006560Y14849834D01*
X10006560Y14849834D01*
G37*
G36*
X12546560Y16119834D02*
X12694153Y16058699D01*
X12811848Y15980057D01*
X12826985Y15969943D01*
X12939943Y15856985D01*
X12939945Y15856982D01*
X13028699Y15724153D01*
X13089834Y15576560D01*
X13121000Y15419877D01*
X13121000Y15260123D01*
X13089834Y15103440D01*
X13028699Y14955847D01*
X12957863Y14849834D01*
X12939943Y14823015D01*
X12826985Y14710057D01*
X12826982Y14710055D01*
X12694153Y14621301D01*
X12694152Y14621300D01*
X12694151Y14621300D01*
X12546560Y14560166D01*
X12389878Y14529000D01*
X12230122Y14529000D01*
X12073440Y14560166D01*
X11925849Y14621300D01*
X11925848Y14621300D01*
X11925847Y14621301D01*
X11793018Y14710055D01*
X11793015Y14710057D01*
X11680057Y14823015D01*
X11662137Y14849834D01*
X11591301Y14955847D01*
X11530166Y15103440D01*
X11499000Y15260123D01*
X11499000Y15419877D01*
X11530166Y15576560D01*
X11591301Y15724153D01*
X11680055Y15856982D01*
X11680057Y15856985D01*
X11793015Y15969943D01*
X11808152Y15980057D01*
X11925847Y16058699D01*
X12073440Y16119834D01*
X12230122Y16151000D01*
X12389878Y16151000D01*
X12546560Y16119834D01*
X12546560Y16119834D01*
G37*
G36*
X32300442Y17174482D02*
X32366627Y17167963D01*
X32479853Y17133616D01*
X32536467Y17116443D01*
X32675087Y17042348D01*
X32692991Y17032778D01*
X32728729Y17003448D01*
X32830186Y16920186D01*
X32890608Y16846560D01*
X32942778Y16782991D01*
X32942779Y16782989D01*
X33026443Y16626467D01*
X33026443Y16626466D01*
X33077963Y16456627D01*
X33095359Y16280000D01*
X33077963Y16103373D01*
X33064411Y16058699D01*
X33026443Y15933533D01*
X32985525Y15856982D01*
X32942778Y15777009D01*
X32913448Y15741271D01*
X32830186Y15639814D01*
X32728729Y15556552D01*
X32692991Y15527222D01*
X32692989Y15527221D01*
X32536467Y15443557D01*
X32479853Y15426384D01*
X32366627Y15392037D01*
X32300443Y15385519D01*
X32234260Y15379000D01*
X32145740Y15379000D01*
X32079557Y15385519D01*
X32013373Y15392037D01*
X31900147Y15426384D01*
X31843533Y15443557D01*
X31687011Y15527221D01*
X31687009Y15527222D01*
X31651271Y15556552D01*
X31549814Y15639814D01*
X31466552Y15741271D01*
X31437222Y15777009D01*
X31394475Y15856982D01*
X31353557Y15933533D01*
X31315589Y16058699D01*
X31302037Y16103373D01*
X31284641Y16280000D01*
X31302037Y16456627D01*
X31353557Y16626466D01*
X31353557Y16626467D01*
X31437221Y16782989D01*
X31437222Y16782991D01*
X31489392Y16846560D01*
X31549814Y16920186D01*
X31651271Y17003448D01*
X31687009Y17032778D01*
X31704913Y17042348D01*
X31843533Y17116443D01*
X31900147Y17133616D01*
X32013373Y17167963D01*
X32079558Y17174482D01*
X32145740Y17181000D01*
X32234260Y17181000D01*
X32300442Y17174482D01*
X32300442Y17174482D01*
G37*
G36*
X10006560Y17389834D02*
X10154153Y17328699D01*
X10285213Y17241127D01*
X10286985Y17239943D01*
X10399943Y17126985D01*
X10488700Y16994151D01*
X10549834Y16846560D01*
X10581000Y16689878D01*
X10581000Y16530122D01*
X10549834Y16373440D01*
X10488699Y16225847D01*
X10417863Y16119834D01*
X10399943Y16093015D01*
X10286985Y15980057D01*
X10286982Y15980055D01*
X10154153Y15891301D01*
X10154152Y15891300D01*
X10154151Y15891300D01*
X10006560Y15830166D01*
X9849878Y15799000D01*
X9690122Y15799000D01*
X9533440Y15830166D01*
X9385849Y15891300D01*
X9385848Y15891300D01*
X9385847Y15891301D01*
X9253018Y15980055D01*
X9253015Y15980057D01*
X9140057Y16093015D01*
X9122137Y16119834D01*
X9051301Y16225847D01*
X8990166Y16373440D01*
X8959000Y16530122D01*
X8959000Y16689878D01*
X8990166Y16846560D01*
X9051300Y16994151D01*
X9140057Y17126985D01*
X9253015Y17239943D01*
X9254787Y17241127D01*
X9385847Y17328699D01*
X9533440Y17389834D01*
X9690122Y17421000D01*
X9849878Y17421000D01*
X10006560Y17389834D01*
X10006560Y17389834D01*
G37*
G36*
X3908871Y20121592D02*
X4213883Y19995252D01*
X4486538Y19813070D01*
X4488390Y19811832D01*
X4721832Y19578390D01*
X4721834Y19578387D01*
X4905252Y19303883D01*
X5031592Y18998871D01*
X5096000Y18675072D01*
X5096000Y18344928D01*
X5031592Y18021129D01*
X4905252Y17716117D01*
X4723070Y17443462D01*
X4721832Y17441610D01*
X4488390Y17208168D01*
X4488387Y17208166D01*
X4213883Y17024748D01*
X3961448Y16920186D01*
X3908871Y16898408D01*
X3585072Y16834000D01*
X3254928Y16834000D01*
X2931129Y16898408D01*
X2878552Y16920186D01*
X2626117Y17024748D01*
X2351613Y17208166D01*
X2351610Y17208168D01*
X2118168Y17441610D01*
X2116930Y17443462D01*
X1934748Y17716117D01*
X1808408Y18021129D01*
X1744000Y18344928D01*
X1744000Y18675072D01*
X1808408Y18998871D01*
X1934748Y19303883D01*
X2118166Y19578387D01*
X2118168Y19578390D01*
X2351610Y19811832D01*
X2353462Y19813070D01*
X2626117Y19995252D01*
X2931129Y20121592D01*
X3254928Y20186000D01*
X3585072Y20186000D01*
X3908871Y20121592D01*
X3908871Y20121592D01*
G37*
G36*
X32300442Y19714482D02*
X32366627Y19707963D01*
X32479853Y19673616D01*
X32536467Y19656443D01*
X32675087Y19582348D01*
X32692991Y19572778D01*
X32728729Y19543448D01*
X32830186Y19460186D01*
X32913448Y19358729D01*
X32942778Y19322991D01*
X32942779Y19322989D01*
X33026443Y19166467D01*
X33026443Y19166466D01*
X33077963Y18996627D01*
X33095359Y18820000D01*
X33077963Y18643373D01*
X33043616Y18530147D01*
X33026443Y18473533D01*
X32957701Y18344928D01*
X32942778Y18317009D01*
X32913448Y18281271D01*
X32830186Y18179814D01*
X32728729Y18096552D01*
X32692991Y18067222D01*
X32692989Y18067221D01*
X32536467Y17983557D01*
X32479853Y17966384D01*
X32366627Y17932037D01*
X32300443Y17925519D01*
X32234260Y17919000D01*
X32145740Y17919000D01*
X32079557Y17925519D01*
X32013373Y17932037D01*
X31900147Y17966384D01*
X31843533Y17983557D01*
X31687011Y18067221D01*
X31687009Y18067222D01*
X31651271Y18096552D01*
X31549814Y18179814D01*
X31466552Y18281271D01*
X31437222Y18317009D01*
X31422299Y18344928D01*
X31353557Y18473533D01*
X31336384Y18530147D01*
X31302037Y18643373D01*
X31284641Y18820000D01*
X31302037Y18996627D01*
X31353557Y19166466D01*
X31353557Y19166467D01*
X31437221Y19322989D01*
X31437222Y19322991D01*
X31466552Y19358729D01*
X31549814Y19460186D01*
X31651271Y19543448D01*
X31687009Y19572778D01*
X31704913Y19582348D01*
X31843533Y19656443D01*
X31900147Y19673616D01*
X32013373Y19707963D01*
X32079558Y19714482D01*
X32145740Y19721000D01*
X32234260Y19721000D01*
X32300442Y19714482D01*
X32300442Y19714482D01*
G37*
M02*
