G04 #@! TF.GenerationSoftware,KiCad,Pcbnew,(5.0.1)-3*
G04 #@! TF.CreationDate,2019-09-06T22:13:27-04:00*
G04 #@! TF.ProjectId,jebaoDosingAdapter,6A6562616F446F73696E674164617074,rev?*
G04 #@! TF.SameCoordinates,PX471b200PY51b5f80*
G04 #@! TF.FileFunction,Copper,L1,Top,Signal*
G04 #@! TF.FilePolarity,Positive*
%FSLAX46Y46*%
G04 Gerber Fmt 4.6, Leading zero omitted, Abs format (unit mm)*
G04 Created by KiCad (PCBNEW (5.0.1)-3) date 9/6/2019 10:13:27 PM*
%MOMM*%
%LPD*%
G01*
G04 APERTURE LIST*
G04 #@! TA.AperFunction,SMDPad,CuDef*
%ADD10R,2.000000X0.600000*%
G04 #@! TD*
G04 #@! TA.AperFunction,ComponentPad*
%ADD11R,1.700000X1.700000*%
G04 #@! TD*
G04 #@! TA.AperFunction,ComponentPad*
%ADD12O,1.700000X1.700000*%
G04 #@! TD*
G04 #@! TA.AperFunction,ComponentPad*
%ADD13C,1.520000*%
G04 #@! TD*
G04 #@! TA.AperFunction,ComponentPad*
%ADD14R,1.520000X1.520000*%
G04 #@! TD*
G04 #@! TA.AperFunction,Conductor*
%ADD15C,0.250000*%
G04 #@! TD*
G04 #@! TA.AperFunction,Conductor*
%ADD16C,0.500000*%
G04 #@! TD*
G04 #@! TA.AperFunction,Conductor*
%ADD17C,0.254000*%
G04 #@! TD*
G04 APERTURE END LIST*
D10*
G04 #@! TO.P,U1,1*
G04 #@! TO.N,Net-(J1-Pad1)*
X26810000Y9230000D03*
G04 #@! TO.P,U1,2*
G04 #@! TO.N,Net-(J1-Pad2)*
X26810000Y10500000D03*
G04 #@! TO.P,U1,3*
G04 #@! TO.N,Net-(J1-Pad3)*
X26810000Y11770000D03*
G04 #@! TO.P,U1,4*
G04 #@! TO.N,Net-(J1-Pad4)*
X26810000Y13040000D03*
G04 #@! TO.P,U1,5*
G04 #@! TO.N,Net-(U1-Pad5)*
X26810000Y14310000D03*
G04 #@! TO.P,U1,6*
G04 #@! TO.N,Net-(U1-Pad6)*
X26810000Y15580000D03*
G04 #@! TO.P,U1,7*
G04 #@! TO.N,Net-(U1-Pad7)*
X26810000Y16850000D03*
G04 #@! TO.P,U1,8*
G04 #@! TO.N,Net-(U1-Pad8)*
X26810000Y18120000D03*
G04 #@! TO.P,U1,9*
G04 #@! TO.N,GND*
X26810000Y19390000D03*
G04 #@! TO.P,U1,10*
G04 #@! TO.N,+12V*
X17410000Y19390000D03*
G04 #@! TO.P,U1,11*
G04 #@! TO.N,Net-(U1-Pad11)*
X17410000Y18120000D03*
G04 #@! TO.P,U1,12*
G04 #@! TO.N,Net-(U1-Pad12)*
X17410000Y16850000D03*
G04 #@! TO.P,U1,13*
G04 #@! TO.N,Net-(U1-Pad13)*
X17410000Y15580000D03*
G04 #@! TO.P,U1,14*
G04 #@! TO.N,Net-(U1-Pad14)*
X17410000Y14310000D03*
G04 #@! TO.P,U1,15*
G04 #@! TO.N,Net-(J3-Pad5)*
X17410000Y13040000D03*
G04 #@! TO.P,U1,16*
G04 #@! TO.N,Net-(J3-Pad4)*
X17410000Y11770000D03*
G04 #@! TO.P,U1,17*
G04 #@! TO.N,Net-(J3-Pad3)*
X17410000Y10500000D03*
G04 #@! TO.P,U1,18*
G04 #@! TO.N,Net-(J3-Pad2)*
X17410000Y9230000D03*
G04 #@! TD*
D11*
G04 #@! TO.P,J1,1*
G04 #@! TO.N,Net-(J1-Pad1)*
X32190000Y8660000D03*
D12*
G04 #@! TO.P,J1,2*
G04 #@! TO.N,Net-(J1-Pad2)*
X32190000Y11200000D03*
G04 #@! TO.P,J1,3*
G04 #@! TO.N,Net-(J1-Pad3)*
X32190000Y13740000D03*
G04 #@! TO.P,J1,4*
G04 #@! TO.N,Net-(J1-Pad4)*
X32190000Y16280000D03*
G04 #@! TO.P,J1,5*
G04 #@! TO.N,GND*
X32190000Y18820000D03*
G04 #@! TD*
D11*
G04 #@! TO.P,J2,1*
G04 #@! TO.N,+12V*
X21930000Y3590000D03*
D12*
G04 #@! TO.P,J2,2*
G04 #@! TO.N,GND*
X24470000Y3590000D03*
G04 #@! TD*
D13*
G04 #@! TO.P,J3,6*
G04 #@! TO.N,+12V*
X9770000Y16610000D03*
G04 #@! TO.P,J3,5*
G04 #@! TO.N,Net-(J3-Pad5)*
X12310000Y15340000D03*
G04 #@! TO.P,J3,4*
G04 #@! TO.N,Net-(J3-Pad4)*
X9770000Y14070000D03*
G04 #@! TO.P,J3,3*
G04 #@! TO.N,Net-(J3-Pad3)*
X12310000Y12800000D03*
G04 #@! TO.P,J3,2*
G04 #@! TO.N,Net-(J3-Pad2)*
X9770000Y11530000D03*
D14*
G04 #@! TO.P,J3,1*
G04 #@! TO.N,+12V*
X12310000Y10260000D03*
G04 #@! TD*
D15*
G04 #@! TO.N,Net-(J1-Pad1)*
X31620000Y9230000D02*
X32190000Y8660000D01*
X26810000Y9230000D02*
X31620000Y9230000D01*
G04 #@! TO.N,Net-(J1-Pad2)*
X31490000Y10500000D02*
X32190000Y11200000D01*
X26810000Y10500000D02*
X31490000Y10500000D01*
G04 #@! TO.N,Net-(J1-Pad3)*
X26810000Y11770000D02*
X29250000Y11770000D01*
X31220000Y13740000D02*
X32190000Y13740000D01*
X29250000Y11770000D02*
X31220000Y13740000D01*
G04 #@! TO.N,Net-(J1-Pad4)*
X26810000Y13040000D02*
X28540000Y13040000D01*
X28540000Y13040000D02*
X29790000Y14290000D01*
X29790000Y14290000D02*
X29790000Y15120000D01*
X30950000Y16280000D02*
X32190000Y16280000D01*
X29790000Y15120000D02*
X30950000Y16280000D01*
D16*
G04 #@! TO.N,+12V*
X21930000Y3590000D02*
X17720000Y3590000D01*
X12310000Y10260000D02*
X12310000Y6100000D01*
X14820000Y3590000D02*
X17720000Y3590000D01*
X12310000Y6100000D02*
X14820000Y3590000D01*
X9770000Y17320000D02*
X9770000Y16610000D01*
X17410000Y19390000D02*
X11840000Y19390000D01*
X11840000Y19390000D02*
X9770000Y17320000D01*
X17410000Y19390000D02*
X20020000Y19390000D01*
X21930000Y17480000D02*
X21930000Y3590000D01*
X20020000Y19390000D02*
X21930000Y17480000D01*
D15*
G04 #@! TO.N,Net-(J3-Pad5)*
X17410000Y13040000D02*
X15830000Y13040000D01*
X13530000Y15340000D02*
X12310000Y15340000D01*
X15830000Y13040000D02*
X13530000Y15340000D01*
G04 #@! TO.N,Net-(J3-Pad4)*
X9770000Y14070000D02*
X13220000Y14070000D01*
X15520000Y11770000D02*
X17410000Y11770000D01*
X13220000Y14070000D02*
X15520000Y11770000D01*
G04 #@! TO.N,Net-(J3-Pad3)*
X17410000Y10500000D02*
X15460000Y10500000D01*
X13160000Y12800000D02*
X12310000Y12800000D01*
X15460000Y10500000D02*
X13160000Y12800000D01*
G04 #@! TO.N,Net-(J3-Pad2)*
X17410000Y9230000D02*
X15610000Y9230000D01*
X13310000Y11530000D02*
X9770000Y11530000D01*
X15610000Y9230000D02*
X13310000Y11530000D01*
G04 #@! TD*
D17*
G04 #@! TO.N,GND*
G36*
X35950000Y660000D02*
X679718Y660000D01*
X676490Y8799542D01*
X1160000Y8799542D01*
X1160000Y7900458D01*
X1504065Y7069813D01*
X2139813Y6434065D01*
X2970458Y6090000D01*
X3869542Y6090000D01*
X4700187Y6434065D01*
X5335935Y7069813D01*
X5680000Y7900458D01*
X5680000Y8799542D01*
X5335935Y9630187D01*
X4700187Y10265935D01*
X3869542Y10610000D01*
X2970458Y10610000D01*
X2139813Y10265935D01*
X1504065Y9630187D01*
X1160000Y8799542D01*
X676490Y8799542D01*
X672460Y18959542D01*
X1160000Y18959542D01*
X1160000Y18060458D01*
X1504065Y17229813D01*
X2139813Y16594065D01*
X2970458Y16250000D01*
X3869542Y16250000D01*
X4700187Y16594065D01*
X4993605Y16887483D01*
X8375000Y16887483D01*
X8375000Y16332517D01*
X8587376Y15819796D01*
X8979796Y15427376D01*
X9190740Y15340000D01*
X8979796Y15252624D01*
X8587376Y14860204D01*
X8375000Y14347483D01*
X8375000Y13792517D01*
X8587376Y13279796D01*
X8979796Y12887376D01*
X9190740Y12800000D01*
X8979796Y12712624D01*
X8587376Y12320204D01*
X8375000Y11807483D01*
X8375000Y11252517D01*
X8587376Y10739796D01*
X8979796Y10347376D01*
X9492517Y10135000D01*
X10047483Y10135000D01*
X10560204Y10347376D01*
X10902560Y10689732D01*
X10902560Y9500000D01*
X10951843Y9252235D01*
X11092191Y9042191D01*
X11302235Y8901843D01*
X11425000Y8877424D01*
X11425001Y6187165D01*
X11407663Y6100000D01*
X11476348Y5754691D01*
X11622576Y5535846D01*
X11622578Y5535844D01*
X11671952Y5461951D01*
X11745845Y5412577D01*
X14132577Y3025844D01*
X14181951Y2951951D01*
X14255844Y2902577D01*
X14255845Y2902576D01*
X14311586Y2865331D01*
X14474690Y2756348D01*
X14732835Y2705000D01*
X14732840Y2705000D01*
X14819999Y2687663D01*
X14907159Y2705000D01*
X20439522Y2705000D01*
X20481843Y2492235D01*
X20622191Y2282191D01*
X20832235Y2141843D01*
X21080000Y2092560D01*
X22780000Y2092560D01*
X23027765Y2141843D01*
X23237809Y2282191D01*
X23378157Y2492235D01*
X23398739Y2595708D01*
X23703076Y2318355D01*
X24113110Y2148524D01*
X24343000Y2269845D01*
X24343000Y3463000D01*
X24597000Y3463000D01*
X24597000Y2269845D01*
X24826890Y2148524D01*
X25236924Y2318355D01*
X25665183Y2708642D01*
X25911486Y3233108D01*
X25790819Y3463000D01*
X24597000Y3463000D01*
X24343000Y3463000D01*
X24323000Y3463000D01*
X24323000Y3717000D01*
X24343000Y3717000D01*
X24343000Y4910155D01*
X24597000Y4910155D01*
X24597000Y3717000D01*
X25790819Y3717000D01*
X25911486Y3946892D01*
X25665183Y4471358D01*
X25236924Y4861645D01*
X24826890Y5031476D01*
X24597000Y4910155D01*
X24343000Y4910155D01*
X24113110Y5031476D01*
X23703076Y4861645D01*
X23398739Y4584292D01*
X23378157Y4687765D01*
X23237809Y4897809D01*
X23027765Y5038157D01*
X22815000Y5080478D01*
X22815000Y17392839D01*
X22832337Y17480000D01*
X22815000Y17567161D01*
X22815000Y17567165D01*
X22763652Y17825310D01*
X22617424Y18044155D01*
X22617423Y18044156D01*
X22568049Y18118049D01*
X22494156Y18167423D01*
X22241579Y18420000D01*
X25162560Y18420000D01*
X25162560Y17820000D01*
X25211843Y17572235D01*
X25270132Y17485000D01*
X25211843Y17397765D01*
X25162560Y17150000D01*
X25162560Y16550000D01*
X25211843Y16302235D01*
X25270132Y16215000D01*
X25211843Y16127765D01*
X25162560Y15880000D01*
X25162560Y15280000D01*
X25211843Y15032235D01*
X25270132Y14945000D01*
X25211843Y14857765D01*
X25162560Y14610000D01*
X25162560Y14010000D01*
X25211843Y13762235D01*
X25270132Y13675000D01*
X25211843Y13587765D01*
X25162560Y13340000D01*
X25162560Y12740000D01*
X25211843Y12492235D01*
X25270132Y12405000D01*
X25211843Y12317765D01*
X25162560Y12070000D01*
X25162560Y11470000D01*
X25211843Y11222235D01*
X25270132Y11135000D01*
X25211843Y11047765D01*
X25162560Y10800000D01*
X25162560Y10200000D01*
X25211843Y9952235D01*
X25270132Y9865000D01*
X25211843Y9777765D01*
X25162560Y9530000D01*
X25162560Y8930000D01*
X25211843Y8682235D01*
X25352191Y8472191D01*
X25562235Y8331843D01*
X25810000Y8282560D01*
X27810000Y8282560D01*
X28057765Y8331843D01*
X28264530Y8470000D01*
X30692560Y8470000D01*
X30692560Y7810000D01*
X30741843Y7562235D01*
X30882191Y7352191D01*
X31092235Y7211843D01*
X31340000Y7162560D01*
X33040000Y7162560D01*
X33287765Y7211843D01*
X33497809Y7352191D01*
X33638157Y7562235D01*
X33687440Y7810000D01*
X33687440Y9510000D01*
X33638157Y9757765D01*
X33497809Y9967809D01*
X33287765Y10108157D01*
X33242381Y10117184D01*
X33260625Y10129375D01*
X33588839Y10620582D01*
X33704092Y11200000D01*
X33588839Y11779418D01*
X33260625Y12270625D01*
X32962239Y12470000D01*
X33260625Y12669375D01*
X33588839Y13160582D01*
X33704092Y13740000D01*
X33588839Y14319418D01*
X33260625Y14810625D01*
X32962239Y15010000D01*
X33260625Y15209375D01*
X33588839Y15700582D01*
X33704092Y16280000D01*
X33588839Y16859418D01*
X33260625Y17350625D01*
X32941522Y17563843D01*
X33071358Y17624817D01*
X33461645Y18053076D01*
X33631476Y18463110D01*
X33510155Y18693000D01*
X32317000Y18693000D01*
X32317000Y18673000D01*
X32063000Y18673000D01*
X32063000Y18693000D01*
X30869845Y18693000D01*
X30748524Y18463110D01*
X30918355Y18053076D01*
X31308642Y17624817D01*
X31438478Y17563843D01*
X31119375Y17350625D01*
X30917443Y17048412D01*
X30875152Y17040000D01*
X30875148Y17040000D01*
X30701605Y17005480D01*
X30653462Y16995904D01*
X30491200Y16887483D01*
X30402071Y16827929D01*
X30359671Y16764473D01*
X29305528Y15710329D01*
X29242072Y15667929D01*
X29074097Y15416537D01*
X29030000Y15194852D01*
X29030000Y15194847D01*
X29015112Y15120000D01*
X29030000Y15045153D01*
X29030000Y14604802D01*
X28457440Y14032241D01*
X28457440Y14610000D01*
X28408157Y14857765D01*
X28349868Y14945000D01*
X28408157Y15032235D01*
X28457440Y15280000D01*
X28457440Y15880000D01*
X28408157Y16127765D01*
X28349868Y16215000D01*
X28408157Y16302235D01*
X28457440Y16550000D01*
X28457440Y17150000D01*
X28408157Y17397765D01*
X28349868Y17485000D01*
X28408157Y17572235D01*
X28457440Y17820000D01*
X28457440Y18420000D01*
X28408157Y18667765D01*
X28355232Y18746972D01*
X28445000Y18963690D01*
X28445000Y19104250D01*
X28372360Y19176890D01*
X30748524Y19176890D01*
X30869845Y18947000D01*
X32063000Y18947000D01*
X32063000Y20140819D01*
X32317000Y20140819D01*
X32317000Y18947000D01*
X33510155Y18947000D01*
X33631476Y19176890D01*
X33461645Y19586924D01*
X33071358Y20015183D01*
X32546892Y20261486D01*
X32317000Y20140819D01*
X32063000Y20140819D01*
X31833108Y20261486D01*
X31308642Y20015183D01*
X30918355Y19586924D01*
X30748524Y19176890D01*
X28372360Y19176890D01*
X28286250Y19263000D01*
X26937000Y19263000D01*
X26937000Y19243000D01*
X26683000Y19243000D01*
X26683000Y19263000D01*
X25333750Y19263000D01*
X25175000Y19104250D01*
X25175000Y18963690D01*
X25264768Y18746972D01*
X25211843Y18667765D01*
X25162560Y18420000D01*
X22241579Y18420000D01*
X20845269Y19816310D01*
X25175000Y19816310D01*
X25175000Y19675750D01*
X25333750Y19517000D01*
X26683000Y19517000D01*
X26683000Y20166250D01*
X26937000Y20166250D01*
X26937000Y19517000D01*
X28286250Y19517000D01*
X28445000Y19675750D01*
X28445000Y19816310D01*
X28348327Y20049699D01*
X28169698Y20228327D01*
X27936309Y20325000D01*
X27095750Y20325000D01*
X26937000Y20166250D01*
X26683000Y20166250D01*
X26524250Y20325000D01*
X25683691Y20325000D01*
X25450302Y20228327D01*
X25271673Y20049699D01*
X25175000Y19816310D01*
X20845269Y19816310D01*
X20707425Y19954153D01*
X20658049Y20028049D01*
X20365310Y20223652D01*
X20107165Y20275000D01*
X20107161Y20275000D01*
X20020000Y20292337D01*
X19932839Y20275000D01*
X18677456Y20275000D01*
X18657765Y20288157D01*
X18410000Y20337440D01*
X16410000Y20337440D01*
X16162235Y20288157D01*
X16142544Y20275000D01*
X11927159Y20275000D01*
X11839999Y20292337D01*
X11752840Y20275000D01*
X11752835Y20275000D01*
X11494690Y20223652D01*
X11331586Y20114669D01*
X11275845Y20077424D01*
X11275844Y20077423D01*
X11201951Y20028049D01*
X11152577Y19954156D01*
X9205847Y18007425D01*
X9131951Y17958049D01*
X9037345Y17816462D01*
X8979796Y17792624D01*
X8587376Y17400204D01*
X8375000Y16887483D01*
X4993605Y16887483D01*
X5335935Y17229813D01*
X5680000Y18060458D01*
X5680000Y18959542D01*
X5335935Y19790187D01*
X4700187Y20425935D01*
X3869542Y20770000D01*
X2970458Y20770000D01*
X2139813Y20425935D01*
X1504065Y19790187D01*
X1160000Y18959542D01*
X672460Y18959542D01*
X670274Y24470000D01*
X35950001Y24470000D01*
X35950000Y660000D01*
X35950000Y660000D01*
G37*
X35950000Y660000D02*
X679718Y660000D01*
X676490Y8799542D01*
X1160000Y8799542D01*
X1160000Y7900458D01*
X1504065Y7069813D01*
X2139813Y6434065D01*
X2970458Y6090000D01*
X3869542Y6090000D01*
X4700187Y6434065D01*
X5335935Y7069813D01*
X5680000Y7900458D01*
X5680000Y8799542D01*
X5335935Y9630187D01*
X4700187Y10265935D01*
X3869542Y10610000D01*
X2970458Y10610000D01*
X2139813Y10265935D01*
X1504065Y9630187D01*
X1160000Y8799542D01*
X676490Y8799542D01*
X672460Y18959542D01*
X1160000Y18959542D01*
X1160000Y18060458D01*
X1504065Y17229813D01*
X2139813Y16594065D01*
X2970458Y16250000D01*
X3869542Y16250000D01*
X4700187Y16594065D01*
X4993605Y16887483D01*
X8375000Y16887483D01*
X8375000Y16332517D01*
X8587376Y15819796D01*
X8979796Y15427376D01*
X9190740Y15340000D01*
X8979796Y15252624D01*
X8587376Y14860204D01*
X8375000Y14347483D01*
X8375000Y13792517D01*
X8587376Y13279796D01*
X8979796Y12887376D01*
X9190740Y12800000D01*
X8979796Y12712624D01*
X8587376Y12320204D01*
X8375000Y11807483D01*
X8375000Y11252517D01*
X8587376Y10739796D01*
X8979796Y10347376D01*
X9492517Y10135000D01*
X10047483Y10135000D01*
X10560204Y10347376D01*
X10902560Y10689732D01*
X10902560Y9500000D01*
X10951843Y9252235D01*
X11092191Y9042191D01*
X11302235Y8901843D01*
X11425000Y8877424D01*
X11425001Y6187165D01*
X11407663Y6100000D01*
X11476348Y5754691D01*
X11622576Y5535846D01*
X11622578Y5535844D01*
X11671952Y5461951D01*
X11745845Y5412577D01*
X14132577Y3025844D01*
X14181951Y2951951D01*
X14255844Y2902577D01*
X14255845Y2902576D01*
X14311586Y2865331D01*
X14474690Y2756348D01*
X14732835Y2705000D01*
X14732840Y2705000D01*
X14819999Y2687663D01*
X14907159Y2705000D01*
X20439522Y2705000D01*
X20481843Y2492235D01*
X20622191Y2282191D01*
X20832235Y2141843D01*
X21080000Y2092560D01*
X22780000Y2092560D01*
X23027765Y2141843D01*
X23237809Y2282191D01*
X23378157Y2492235D01*
X23398739Y2595708D01*
X23703076Y2318355D01*
X24113110Y2148524D01*
X24343000Y2269845D01*
X24343000Y3463000D01*
X24597000Y3463000D01*
X24597000Y2269845D01*
X24826890Y2148524D01*
X25236924Y2318355D01*
X25665183Y2708642D01*
X25911486Y3233108D01*
X25790819Y3463000D01*
X24597000Y3463000D01*
X24343000Y3463000D01*
X24323000Y3463000D01*
X24323000Y3717000D01*
X24343000Y3717000D01*
X24343000Y4910155D01*
X24597000Y4910155D01*
X24597000Y3717000D01*
X25790819Y3717000D01*
X25911486Y3946892D01*
X25665183Y4471358D01*
X25236924Y4861645D01*
X24826890Y5031476D01*
X24597000Y4910155D01*
X24343000Y4910155D01*
X24113110Y5031476D01*
X23703076Y4861645D01*
X23398739Y4584292D01*
X23378157Y4687765D01*
X23237809Y4897809D01*
X23027765Y5038157D01*
X22815000Y5080478D01*
X22815000Y17392839D01*
X22832337Y17480000D01*
X22815000Y17567161D01*
X22815000Y17567165D01*
X22763652Y17825310D01*
X22617424Y18044155D01*
X22617423Y18044156D01*
X22568049Y18118049D01*
X22494156Y18167423D01*
X22241579Y18420000D01*
X25162560Y18420000D01*
X25162560Y17820000D01*
X25211843Y17572235D01*
X25270132Y17485000D01*
X25211843Y17397765D01*
X25162560Y17150000D01*
X25162560Y16550000D01*
X25211843Y16302235D01*
X25270132Y16215000D01*
X25211843Y16127765D01*
X25162560Y15880000D01*
X25162560Y15280000D01*
X25211843Y15032235D01*
X25270132Y14945000D01*
X25211843Y14857765D01*
X25162560Y14610000D01*
X25162560Y14010000D01*
X25211843Y13762235D01*
X25270132Y13675000D01*
X25211843Y13587765D01*
X25162560Y13340000D01*
X25162560Y12740000D01*
X25211843Y12492235D01*
X25270132Y12405000D01*
X25211843Y12317765D01*
X25162560Y12070000D01*
X25162560Y11470000D01*
X25211843Y11222235D01*
X25270132Y11135000D01*
X25211843Y11047765D01*
X25162560Y10800000D01*
X25162560Y10200000D01*
X25211843Y9952235D01*
X25270132Y9865000D01*
X25211843Y9777765D01*
X25162560Y9530000D01*
X25162560Y8930000D01*
X25211843Y8682235D01*
X25352191Y8472191D01*
X25562235Y8331843D01*
X25810000Y8282560D01*
X27810000Y8282560D01*
X28057765Y8331843D01*
X28264530Y8470000D01*
X30692560Y8470000D01*
X30692560Y7810000D01*
X30741843Y7562235D01*
X30882191Y7352191D01*
X31092235Y7211843D01*
X31340000Y7162560D01*
X33040000Y7162560D01*
X33287765Y7211843D01*
X33497809Y7352191D01*
X33638157Y7562235D01*
X33687440Y7810000D01*
X33687440Y9510000D01*
X33638157Y9757765D01*
X33497809Y9967809D01*
X33287765Y10108157D01*
X33242381Y10117184D01*
X33260625Y10129375D01*
X33588839Y10620582D01*
X33704092Y11200000D01*
X33588839Y11779418D01*
X33260625Y12270625D01*
X32962239Y12470000D01*
X33260625Y12669375D01*
X33588839Y13160582D01*
X33704092Y13740000D01*
X33588839Y14319418D01*
X33260625Y14810625D01*
X32962239Y15010000D01*
X33260625Y15209375D01*
X33588839Y15700582D01*
X33704092Y16280000D01*
X33588839Y16859418D01*
X33260625Y17350625D01*
X32941522Y17563843D01*
X33071358Y17624817D01*
X33461645Y18053076D01*
X33631476Y18463110D01*
X33510155Y18693000D01*
X32317000Y18693000D01*
X32317000Y18673000D01*
X32063000Y18673000D01*
X32063000Y18693000D01*
X30869845Y18693000D01*
X30748524Y18463110D01*
X30918355Y18053076D01*
X31308642Y17624817D01*
X31438478Y17563843D01*
X31119375Y17350625D01*
X30917443Y17048412D01*
X30875152Y17040000D01*
X30875148Y17040000D01*
X30701605Y17005480D01*
X30653462Y16995904D01*
X30491200Y16887483D01*
X30402071Y16827929D01*
X30359671Y16764473D01*
X29305528Y15710329D01*
X29242072Y15667929D01*
X29074097Y15416537D01*
X29030000Y15194852D01*
X29030000Y15194847D01*
X29015112Y15120000D01*
X29030000Y15045153D01*
X29030000Y14604802D01*
X28457440Y14032241D01*
X28457440Y14610000D01*
X28408157Y14857765D01*
X28349868Y14945000D01*
X28408157Y15032235D01*
X28457440Y15280000D01*
X28457440Y15880000D01*
X28408157Y16127765D01*
X28349868Y16215000D01*
X28408157Y16302235D01*
X28457440Y16550000D01*
X28457440Y17150000D01*
X28408157Y17397765D01*
X28349868Y17485000D01*
X28408157Y17572235D01*
X28457440Y17820000D01*
X28457440Y18420000D01*
X28408157Y18667765D01*
X28355232Y18746972D01*
X28445000Y18963690D01*
X28445000Y19104250D01*
X28372360Y19176890D01*
X30748524Y19176890D01*
X30869845Y18947000D01*
X32063000Y18947000D01*
X32063000Y20140819D01*
X32317000Y20140819D01*
X32317000Y18947000D01*
X33510155Y18947000D01*
X33631476Y19176890D01*
X33461645Y19586924D01*
X33071358Y20015183D01*
X32546892Y20261486D01*
X32317000Y20140819D01*
X32063000Y20140819D01*
X31833108Y20261486D01*
X31308642Y20015183D01*
X30918355Y19586924D01*
X30748524Y19176890D01*
X28372360Y19176890D01*
X28286250Y19263000D01*
X26937000Y19263000D01*
X26937000Y19243000D01*
X26683000Y19243000D01*
X26683000Y19263000D01*
X25333750Y19263000D01*
X25175000Y19104250D01*
X25175000Y18963690D01*
X25264768Y18746972D01*
X25211843Y18667765D01*
X25162560Y18420000D01*
X22241579Y18420000D01*
X20845269Y19816310D01*
X25175000Y19816310D01*
X25175000Y19675750D01*
X25333750Y19517000D01*
X26683000Y19517000D01*
X26683000Y20166250D01*
X26937000Y20166250D01*
X26937000Y19517000D01*
X28286250Y19517000D01*
X28445000Y19675750D01*
X28445000Y19816310D01*
X28348327Y20049699D01*
X28169698Y20228327D01*
X27936309Y20325000D01*
X27095750Y20325000D01*
X26937000Y20166250D01*
X26683000Y20166250D01*
X26524250Y20325000D01*
X25683691Y20325000D01*
X25450302Y20228327D01*
X25271673Y20049699D01*
X25175000Y19816310D01*
X20845269Y19816310D01*
X20707425Y19954153D01*
X20658049Y20028049D01*
X20365310Y20223652D01*
X20107165Y20275000D01*
X20107161Y20275000D01*
X20020000Y20292337D01*
X19932839Y20275000D01*
X18677456Y20275000D01*
X18657765Y20288157D01*
X18410000Y20337440D01*
X16410000Y20337440D01*
X16162235Y20288157D01*
X16142544Y20275000D01*
X11927159Y20275000D01*
X11839999Y20292337D01*
X11752840Y20275000D01*
X11752835Y20275000D01*
X11494690Y20223652D01*
X11331586Y20114669D01*
X11275845Y20077424D01*
X11275844Y20077423D01*
X11201951Y20028049D01*
X11152577Y19954156D01*
X9205847Y18007425D01*
X9131951Y17958049D01*
X9037345Y17816462D01*
X8979796Y17792624D01*
X8587376Y17400204D01*
X8375000Y16887483D01*
X4993605Y16887483D01*
X5335935Y17229813D01*
X5680000Y18060458D01*
X5680000Y18959542D01*
X5335935Y19790187D01*
X4700187Y20425935D01*
X3869542Y20770000D01*
X2970458Y20770000D01*
X2139813Y20425935D01*
X1504065Y19790187D01*
X1160000Y18959542D01*
X672460Y18959542D01*
X670274Y24470000D01*
X35950001Y24470000D01*
X35950000Y660000D01*
G04 #@! TD*
M02*
