G04 #@! TF.GenerationSoftware,KiCad,Pcbnew,(5.0.1)-3*
G04 #@! TF.CreationDate,2019-09-14T23:59:44-04:00*
G04 #@! TF.ProjectId,jebaoDosingAdapter,6A6562616F446F73696E674164617074,rev?*
G04 #@! TF.SameCoordinates,PX46492a0PY53724e0*
G04 #@! TF.FileFunction,Soldermask,Top*
G04 #@! TF.FilePolarity,Negative*
%FSLAX46Y46*%
G04 Gerber Fmt 4.6, Leading zero omitted, Abs format (unit mm)*
G04 Created by KiCad (PCBNEW (5.0.1)-3) date 9/14/2019 11:59:44 PM*
%MOMM*%
%LPD*%
G01*
G04 APERTURE LIST*
%ADD10C,0.100000*%
G04 APERTURE END LIST*
D10*
G36*
X34117256Y6304702D02*
X34223579Y6283553D01*
X34524042Y6159097D01*
X34790852Y5980820D01*
X34794454Y5978413D01*
X35024413Y5748454D01*
X35024415Y5748451D01*
X35198505Y5487908D01*
X35205098Y5478040D01*
X35220524Y5440799D01*
X35274663Y5310096D01*
X35329553Y5177578D01*
X35377116Y4938466D01*
X35393000Y4858609D01*
X35393000Y4533391D01*
X35329553Y4214421D01*
X35205097Y3913958D01*
X35032735Y3656000D01*
X35024413Y3643546D01*
X34794454Y3413587D01*
X34794451Y3413585D01*
X34524042Y3232903D01*
X34223579Y3108447D01*
X34117256Y3087298D01*
X33904611Y3045000D01*
X33579389Y3045000D01*
X33366744Y3087298D01*
X33260421Y3108447D01*
X32959958Y3232903D01*
X32689549Y3413585D01*
X32689546Y3413587D01*
X32459587Y3643546D01*
X32451265Y3656000D01*
X32278903Y3913958D01*
X32154447Y4214421D01*
X32091000Y4533391D01*
X32091000Y4858609D01*
X32106885Y4938466D01*
X32154447Y5177578D01*
X32209338Y5310096D01*
X32263476Y5440799D01*
X32278902Y5478040D01*
X32285496Y5487908D01*
X32459585Y5748451D01*
X32459587Y5748454D01*
X32689546Y5978413D01*
X32693148Y5980820D01*
X32959958Y6159097D01*
X33260421Y6283553D01*
X33366744Y6304702D01*
X33579389Y6347000D01*
X33904611Y6347000D01*
X34117256Y6304702D01*
X34117256Y6304702D01*
G37*
G36*
X7955256Y6304702D02*
X8061579Y6283553D01*
X8362042Y6159097D01*
X8628852Y5980820D01*
X8632454Y5978413D01*
X8862413Y5748454D01*
X8862415Y5748451D01*
X9036505Y5487908D01*
X9043098Y5478040D01*
X9058524Y5440799D01*
X9112663Y5310096D01*
X9167553Y5177578D01*
X9215116Y4938466D01*
X9231000Y4858609D01*
X9231000Y4533391D01*
X9167553Y4214421D01*
X9043097Y3913958D01*
X8870735Y3656000D01*
X8862413Y3643546D01*
X8632454Y3413587D01*
X8632451Y3413585D01*
X8362042Y3232903D01*
X8061579Y3108447D01*
X7955256Y3087298D01*
X7742611Y3045000D01*
X7417389Y3045000D01*
X7204744Y3087298D01*
X7098421Y3108447D01*
X6797958Y3232903D01*
X6527549Y3413585D01*
X6527546Y3413587D01*
X6297587Y3643546D01*
X6289265Y3656000D01*
X6116903Y3913958D01*
X5992447Y4214421D01*
X5929000Y4533391D01*
X5929000Y4858609D01*
X5944885Y4938466D01*
X5992447Y5177578D01*
X6047338Y5310096D01*
X6101476Y5440799D01*
X6116902Y5478040D01*
X6123496Y5487908D01*
X6297585Y5748451D01*
X6297587Y5748454D01*
X6527546Y5978413D01*
X6531148Y5980820D01*
X6797958Y6159097D01*
X7098421Y6283553D01*
X7204744Y6304702D01*
X7417389Y6347000D01*
X7742611Y6347000D01*
X7955256Y6304702D01*
X7955256Y6304702D01*
G37*
G36*
X19988627Y5479963D02*
X20101853Y5445616D01*
X20158467Y5428443D01*
X20297087Y5354348D01*
X20314991Y5344778D01*
X20350729Y5315448D01*
X20452186Y5232186D01*
X20535448Y5130729D01*
X20564778Y5094991D01*
X20648443Y4938466D01*
X20699963Y4768626D01*
X20713000Y4636257D01*
X20713000Y4247742D01*
X20699963Y4115373D01*
X20665616Y4002147D01*
X20648443Y3945533D01*
X20574348Y3806913D01*
X20564778Y3789009D01*
X20535448Y3753271D01*
X20452186Y3651814D01*
X20314989Y3539221D01*
X20158466Y3455557D01*
X20117733Y3443201D01*
X19988626Y3404037D01*
X19812000Y3386641D01*
X19635373Y3404037D01*
X19506266Y3443201D01*
X19465533Y3455557D01*
X19309011Y3539221D01*
X19309009Y3539222D01*
X19266749Y3573904D01*
X19171814Y3651814D01*
X19059221Y3789011D01*
X18975557Y3945534D01*
X18958384Y4002148D01*
X18924037Y4115374D01*
X18911000Y4247743D01*
X18911000Y4636258D01*
X18924037Y4768627D01*
X18975557Y4938466D01*
X18975557Y4938467D01*
X19059222Y5094992D01*
X19171812Y5232183D01*
X19266750Y5310096D01*
X19309010Y5344778D01*
X19326914Y5354348D01*
X19465534Y5428443D01*
X19522148Y5445616D01*
X19635374Y5479963D01*
X19812000Y5497359D01*
X19988627Y5479963D01*
X19988627Y5479963D01*
G37*
G36*
X23070600Y5489011D02*
X23103649Y5478986D01*
X23134106Y5462706D01*
X23160799Y5440799D01*
X23182706Y5414106D01*
X23198986Y5383649D01*
X23209011Y5350600D01*
X23213000Y5310096D01*
X23213000Y3573904D01*
X23209011Y3533400D01*
X23198986Y3500351D01*
X23182706Y3469894D01*
X23160799Y3443201D01*
X23134106Y3421294D01*
X23103649Y3405014D01*
X23070600Y3394989D01*
X23030096Y3391000D01*
X21593904Y3391000D01*
X21553400Y3394989D01*
X21520351Y3405014D01*
X21489894Y3421294D01*
X21463201Y3443201D01*
X21441294Y3469894D01*
X21425014Y3500351D01*
X21414989Y3533400D01*
X21411000Y3573904D01*
X21411000Y5310096D01*
X21414989Y5350600D01*
X21425014Y5383649D01*
X21441294Y5414106D01*
X21463201Y5440799D01*
X21489894Y5462706D01*
X21520351Y5478986D01*
X21553400Y5489011D01*
X21593904Y5493000D01*
X23030096Y5493000D01*
X23070600Y5489011D01*
X23070600Y5489011D01*
G37*
G36*
X6736565Y10462611D02*
X6927834Y10383385D01*
X7099976Y10268363D01*
X7246363Y10121976D01*
X7361385Y9949834D01*
X7440611Y9758565D01*
X7481000Y9555516D01*
X7481000Y9348484D01*
X7440611Y9145435D01*
X7361385Y8954166D01*
X7246363Y8782024D01*
X7099976Y8635637D01*
X6927834Y8520615D01*
X6736565Y8441389D01*
X6533516Y8401000D01*
X6326484Y8401000D01*
X6123435Y8441389D01*
X5932166Y8520615D01*
X5760024Y8635637D01*
X5613637Y8782024D01*
X5498615Y8954166D01*
X5419389Y9145435D01*
X5379000Y9348484D01*
X5379000Y9555516D01*
X5419389Y9758565D01*
X5498615Y9949834D01*
X5613637Y10121976D01*
X5760024Y10268363D01*
X5932166Y10383385D01*
X6123435Y10462611D01*
X6326484Y10503000D01*
X6533516Y10503000D01*
X6736565Y10462611D01*
X6736565Y10462611D01*
G37*
G36*
X34117600Y12451011D02*
X34150649Y12440986D01*
X34181106Y12424706D01*
X34207799Y12402799D01*
X34229706Y12376106D01*
X34245986Y12345649D01*
X34256011Y12312600D01*
X34260000Y12272096D01*
X34260000Y10835904D01*
X34256011Y10795400D01*
X34245986Y10762351D01*
X34229706Y10731894D01*
X34207799Y10705201D01*
X34181106Y10683294D01*
X34150649Y10667014D01*
X34117600Y10656989D01*
X34077096Y10653000D01*
X32390904Y10653000D01*
X32350400Y10656989D01*
X32317351Y10667014D01*
X32286894Y10683294D01*
X32260201Y10705201D01*
X32238294Y10731894D01*
X32222014Y10762351D01*
X32211989Y10795400D01*
X32208000Y10835904D01*
X32208000Y12272096D01*
X32211989Y12312600D01*
X32222014Y12345649D01*
X32238294Y12376106D01*
X32260201Y12402799D01*
X32286894Y12424706D01*
X32317351Y12440986D01*
X32350400Y12451011D01*
X32390904Y12455000D01*
X34077096Y12455000D01*
X34117600Y12451011D01*
X34117600Y12451011D01*
G37*
G36*
X28721000Y10699000D02*
X26619000Y10699000D01*
X26619000Y11401000D01*
X28721000Y11401000D01*
X28721000Y10699000D01*
X28721000Y10699000D01*
G37*
G36*
X19321000Y10699000D02*
X17219000Y10699000D01*
X17219000Y11401000D01*
X19321000Y11401000D01*
X19321000Y10699000D01*
X19321000Y10699000D01*
G37*
G36*
X28721000Y11969000D02*
X26619000Y11969000D01*
X26619000Y12671000D01*
X28721000Y12671000D01*
X28721000Y11969000D01*
X28721000Y11969000D01*
G37*
G36*
X19321000Y11969000D02*
X17219000Y11969000D01*
X17219000Y12671000D01*
X19321000Y12671000D01*
X19321000Y11969000D01*
X19321000Y11969000D01*
G37*
G36*
X11364472Y13546062D02*
X11492049Y13493218D01*
X11606865Y13416500D01*
X11704500Y13318865D01*
X11781218Y13204049D01*
X11834062Y13076472D01*
X11861000Y12941044D01*
X11861000Y12802956D01*
X11834062Y12667528D01*
X11781218Y12539951D01*
X11704500Y12425135D01*
X11606865Y12327500D01*
X11492049Y12250782D01*
X11364472Y12197938D01*
X11229044Y12171000D01*
X11090956Y12171000D01*
X10955528Y12197938D01*
X10827951Y12250782D01*
X10713135Y12327500D01*
X10615500Y12425135D01*
X10538782Y12539951D01*
X10485938Y12667528D01*
X10459000Y12802956D01*
X10459000Y12941044D01*
X10485938Y13076472D01*
X10538782Y13204049D01*
X10615500Y13318865D01*
X10713135Y13416500D01*
X10827951Y13493218D01*
X10955528Y13546062D01*
X11090956Y13573000D01*
X11229044Y13573000D01*
X11364472Y13546062D01*
X11364472Y13546062D01*
G37*
G36*
X33469443Y14948481D02*
X33535627Y14941963D01*
X33648853Y14907616D01*
X33705467Y14890443D01*
X33797888Y14841042D01*
X33861991Y14806778D01*
X33897729Y14777448D01*
X33999186Y14694186D01*
X34082448Y14592729D01*
X34111778Y14556991D01*
X34111779Y14556989D01*
X34195443Y14400467D01*
X34195443Y14400466D01*
X34246963Y14230627D01*
X34264359Y14054000D01*
X34246963Y13877373D01*
X34212616Y13764147D01*
X34195443Y13707533D01*
X34186045Y13689951D01*
X34111778Y13551009D01*
X34107718Y13546062D01*
X33999186Y13413814D01*
X33897729Y13330552D01*
X33861991Y13301222D01*
X33861989Y13301221D01*
X33705467Y13217557D01*
X33660936Y13204049D01*
X33535627Y13166037D01*
X33469443Y13159519D01*
X33403260Y13153000D01*
X33064740Y13153000D01*
X32998557Y13159519D01*
X32932373Y13166037D01*
X32807064Y13204049D01*
X32762533Y13217557D01*
X32606011Y13301221D01*
X32606009Y13301222D01*
X32570271Y13330552D01*
X32468814Y13413814D01*
X32360282Y13546062D01*
X32356222Y13551009D01*
X32281955Y13689951D01*
X32272557Y13707533D01*
X32255384Y13764147D01*
X32221037Y13877373D01*
X32203641Y14054000D01*
X32221037Y14230627D01*
X32272557Y14400466D01*
X32272557Y14400467D01*
X32356221Y14556989D01*
X32356222Y14556991D01*
X32385552Y14592729D01*
X32468814Y14694186D01*
X32570271Y14777448D01*
X32606009Y14806778D01*
X32670112Y14841042D01*
X32762533Y14890443D01*
X32819147Y14907616D01*
X32932373Y14941963D01*
X32998557Y14948481D01*
X33064740Y14955000D01*
X33403260Y14955000D01*
X33469443Y14948481D01*
X33469443Y14948481D01*
G37*
G36*
X28721000Y13239000D02*
X26619000Y13239000D01*
X26619000Y13941000D01*
X28721000Y13941000D01*
X28721000Y13239000D01*
X28721000Y13239000D01*
G37*
G36*
X19321000Y13239000D02*
X17219000Y13239000D01*
X17219000Y13941000D01*
X19321000Y13941000D01*
X19321000Y13239000D01*
X19321000Y13239000D01*
G37*
G36*
X9064472Y14696062D02*
X9192049Y14643218D01*
X9306865Y14566500D01*
X9404500Y14468865D01*
X9481218Y14354049D01*
X9534062Y14226472D01*
X9561000Y14091044D01*
X9561000Y13952956D01*
X9534062Y13817528D01*
X9481218Y13689951D01*
X9404500Y13575135D01*
X9306865Y13477500D01*
X9192049Y13400782D01*
X9064472Y13347938D01*
X8929044Y13321000D01*
X8790956Y13321000D01*
X8655528Y13347938D01*
X8527951Y13400782D01*
X8413135Y13477500D01*
X8315500Y13575135D01*
X8238782Y13689951D01*
X8185938Y13817528D01*
X8159000Y13952956D01*
X8159000Y14091044D01*
X8185938Y14226472D01*
X8238782Y14354049D01*
X8315500Y14468865D01*
X8413135Y14566500D01*
X8527951Y14643218D01*
X8655528Y14696062D01*
X8790956Y14723000D01*
X8929044Y14723000D01*
X9064472Y14696062D01*
X9064472Y14696062D01*
G37*
G36*
X11364472Y15446062D02*
X11492049Y15393218D01*
X11606865Y15316500D01*
X11704500Y15218865D01*
X11781218Y15104049D01*
X11834062Y14976472D01*
X11861000Y14841044D01*
X11861000Y14702956D01*
X11834062Y14567528D01*
X11781218Y14439951D01*
X11704500Y14325135D01*
X11606865Y14227500D01*
X11492049Y14150782D01*
X11364472Y14097938D01*
X11229044Y14071000D01*
X11090956Y14071000D01*
X10955528Y14097938D01*
X10827951Y14150782D01*
X10713135Y14227500D01*
X10615500Y14325135D01*
X10538782Y14439951D01*
X10485938Y14567528D01*
X10459000Y14702956D01*
X10459000Y14841044D01*
X10485938Y14976472D01*
X10538782Y15104049D01*
X10615500Y15218865D01*
X10713135Y15316500D01*
X10827951Y15393218D01*
X10955528Y15446062D01*
X11090956Y15473000D01*
X11229044Y15473000D01*
X11364472Y15446062D01*
X11364472Y15446062D01*
G37*
G36*
X28721000Y14509000D02*
X26619000Y14509000D01*
X26619000Y15211000D01*
X28721000Y15211000D01*
X28721000Y14509000D01*
X28721000Y14509000D01*
G37*
G36*
X19321000Y14509000D02*
X17219000Y14509000D01*
X17219000Y15211000D01*
X19321000Y15211000D01*
X19321000Y14509000D01*
X19321000Y14509000D01*
G37*
G36*
X9064472Y16596062D02*
X9192049Y16543218D01*
X9306865Y16466500D01*
X9404500Y16368865D01*
X9481218Y16254049D01*
X9534062Y16126472D01*
X9561000Y15991044D01*
X9561000Y15852956D01*
X9534062Y15717528D01*
X9481218Y15589951D01*
X9404500Y15475135D01*
X9306865Y15377500D01*
X9192049Y15300782D01*
X9064472Y15247938D01*
X8929044Y15221000D01*
X8790956Y15221000D01*
X8655528Y15247938D01*
X8527951Y15300782D01*
X8413135Y15377500D01*
X8315500Y15475135D01*
X8238782Y15589951D01*
X8185938Y15717528D01*
X8159000Y15852956D01*
X8159000Y15991044D01*
X8185938Y16126472D01*
X8238782Y16254049D01*
X8315500Y16368865D01*
X8413135Y16466500D01*
X8527951Y16543218D01*
X8655528Y16596062D01*
X8790956Y16623000D01*
X8929044Y16623000D01*
X9064472Y16596062D01*
X9064472Y16596062D01*
G37*
G36*
X33469443Y17448481D02*
X33535627Y17441963D01*
X33648853Y17407616D01*
X33705467Y17390443D01*
X33844087Y17316348D01*
X33861991Y17306778D01*
X33897666Y17277500D01*
X33999186Y17194186D01*
X34082448Y17092729D01*
X34111778Y17056991D01*
X34111779Y17056989D01*
X34195443Y16900467D01*
X34212616Y16843853D01*
X34246963Y16730627D01*
X34264359Y16554000D01*
X34246963Y16377373D01*
X34244382Y16368865D01*
X34195443Y16207533D01*
X34152664Y16127500D01*
X34111778Y16051009D01*
X34082448Y16015271D01*
X33999186Y15913814D01*
X33925029Y15852956D01*
X33861991Y15801222D01*
X33861989Y15801221D01*
X33705467Y15717557D01*
X33648853Y15700384D01*
X33535627Y15666037D01*
X33469443Y15659519D01*
X33403260Y15653000D01*
X33064740Y15653000D01*
X32998557Y15659519D01*
X32932373Y15666037D01*
X32819147Y15700384D01*
X32762533Y15717557D01*
X32606011Y15801221D01*
X32606009Y15801222D01*
X32542971Y15852956D01*
X32468814Y15913814D01*
X32385552Y16015271D01*
X32356222Y16051009D01*
X32315336Y16127500D01*
X32272557Y16207533D01*
X32223618Y16368865D01*
X32221037Y16377373D01*
X32203641Y16554000D01*
X32221037Y16730627D01*
X32255384Y16843853D01*
X32272557Y16900467D01*
X32356221Y17056989D01*
X32356222Y17056991D01*
X32385552Y17092729D01*
X32468814Y17194186D01*
X32570334Y17277500D01*
X32606009Y17306778D01*
X32623913Y17316348D01*
X32762533Y17390443D01*
X32819147Y17407616D01*
X32932373Y17441963D01*
X32998557Y17448481D01*
X33064740Y17455000D01*
X33403260Y17455000D01*
X33469443Y17448481D01*
X33469443Y17448481D01*
G37*
G36*
X19321000Y15779000D02*
X17219000Y15779000D01*
X17219000Y16481000D01*
X19321000Y16481000D01*
X19321000Y15779000D01*
X19321000Y15779000D01*
G37*
G36*
X28721000Y15779000D02*
X26619000Y15779000D01*
X26619000Y16481000D01*
X28721000Y16481000D01*
X28721000Y15779000D01*
X28721000Y15779000D01*
G37*
G36*
X11364472Y17346062D02*
X11492049Y17293218D01*
X11606865Y17216500D01*
X11704500Y17118865D01*
X11781218Y17004049D01*
X11834062Y16876472D01*
X11861000Y16741044D01*
X11861000Y16602956D01*
X11834062Y16467528D01*
X11781218Y16339951D01*
X11704500Y16225135D01*
X11606865Y16127500D01*
X11492049Y16050782D01*
X11364472Y15997938D01*
X11229044Y15971000D01*
X11090956Y15971000D01*
X10955528Y15997938D01*
X10827951Y16050782D01*
X10713135Y16127500D01*
X10615500Y16225135D01*
X10538782Y16339951D01*
X10485938Y16467528D01*
X10459000Y16602956D01*
X10459000Y16741044D01*
X10485938Y16876472D01*
X10538782Y17004049D01*
X10615500Y17118865D01*
X10713135Y17216500D01*
X10827951Y17293218D01*
X10955528Y17346062D01*
X11090956Y17373000D01*
X11229044Y17373000D01*
X11364472Y17346062D01*
X11364472Y17346062D01*
G37*
G36*
X28721000Y17049000D02*
X26619000Y17049000D01*
X26619000Y17751000D01*
X28721000Y17751000D01*
X28721000Y17049000D01*
X28721000Y17049000D01*
G37*
G36*
X19321000Y17049000D02*
X17219000Y17049000D01*
X17219000Y17751000D01*
X19321000Y17751000D01*
X19321000Y17049000D01*
X19321000Y17049000D01*
G37*
G36*
X9064472Y18496062D02*
X9192049Y18443218D01*
X9306865Y18366500D01*
X9404500Y18268865D01*
X9481218Y18154049D01*
X9534062Y18026472D01*
X9561000Y17891044D01*
X9561000Y17752956D01*
X9534062Y17617528D01*
X9481218Y17489951D01*
X9404500Y17375135D01*
X9306865Y17277500D01*
X9192049Y17200782D01*
X9064472Y17147938D01*
X8929044Y17121000D01*
X8790956Y17121000D01*
X8655528Y17147938D01*
X8527951Y17200782D01*
X8413135Y17277500D01*
X8315500Y17375135D01*
X8238782Y17489951D01*
X8185938Y17617528D01*
X8159000Y17752956D01*
X8159000Y17891044D01*
X8185938Y18026472D01*
X8238782Y18154049D01*
X8315500Y18268865D01*
X8413135Y18366500D01*
X8527951Y18443218D01*
X8655528Y18496062D01*
X8790956Y18523000D01*
X8929044Y18523000D01*
X9064472Y18496062D01*
X9064472Y18496062D01*
G37*
G36*
X33469443Y19948481D02*
X33535627Y19941963D01*
X33648853Y19907616D01*
X33705467Y19890443D01*
X33844087Y19816348D01*
X33861991Y19806778D01*
X33897729Y19777448D01*
X33999186Y19694186D01*
X34082448Y19592729D01*
X34111778Y19556991D01*
X34111779Y19556989D01*
X34195443Y19400467D01*
X34195443Y19400466D01*
X34246963Y19230627D01*
X34264359Y19054000D01*
X34246963Y18877373D01*
X34212616Y18764147D01*
X34195443Y18707533D01*
X34121348Y18568913D01*
X34111778Y18551009D01*
X34088791Y18523000D01*
X33999186Y18413814D01*
X33897729Y18330552D01*
X33861991Y18301222D01*
X33861989Y18301221D01*
X33705467Y18217557D01*
X33648853Y18200384D01*
X33535627Y18166037D01*
X33469442Y18159518D01*
X33403260Y18153000D01*
X33064740Y18153000D01*
X32998558Y18159518D01*
X32932373Y18166037D01*
X32819147Y18200384D01*
X32762533Y18217557D01*
X32606011Y18301221D01*
X32606009Y18301222D01*
X32570271Y18330552D01*
X32468814Y18413814D01*
X32379209Y18523000D01*
X32356222Y18551009D01*
X32346652Y18568913D01*
X32272557Y18707533D01*
X32255384Y18764147D01*
X32221037Y18877373D01*
X32203641Y19054000D01*
X32221037Y19230627D01*
X32272557Y19400466D01*
X32272557Y19400467D01*
X32356221Y19556989D01*
X32356222Y19556991D01*
X32385552Y19592729D01*
X32468814Y19694186D01*
X32570271Y19777448D01*
X32606009Y19806778D01*
X32623913Y19816348D01*
X32762533Y19890443D01*
X32819147Y19907616D01*
X32932373Y19941963D01*
X32998557Y19948481D01*
X33064740Y19955000D01*
X33403260Y19955000D01*
X33469443Y19948481D01*
X33469443Y19948481D01*
G37*
G36*
X19321000Y18319000D02*
X17219000Y18319000D01*
X17219000Y19021000D01*
X19321000Y19021000D01*
X19321000Y18319000D01*
X19321000Y18319000D01*
G37*
G36*
X28721000Y18319000D02*
X26619000Y18319000D01*
X26619000Y19021000D01*
X28721000Y19021000D01*
X28721000Y18319000D01*
X28721000Y18319000D01*
G37*
G36*
X28721000Y19589000D02*
X26619000Y19589000D01*
X26619000Y20291000D01*
X28721000Y20291000D01*
X28721000Y19589000D01*
X28721000Y19589000D01*
G37*
G36*
X19321000Y19589000D02*
X17219000Y19589000D01*
X17219000Y20291000D01*
X19321000Y20291000D01*
X19321000Y19589000D01*
X19321000Y19589000D01*
G37*
G36*
X6736565Y22462611D02*
X6927834Y22383385D01*
X7099976Y22268363D01*
X7246363Y22121976D01*
X7361385Y21949834D01*
X7440611Y21758565D01*
X7481000Y21555516D01*
X7481000Y21348484D01*
X7440611Y21145435D01*
X7361385Y20954166D01*
X7246363Y20782024D01*
X7099976Y20635637D01*
X6927834Y20520615D01*
X6736565Y20441389D01*
X6533516Y20401000D01*
X6326484Y20401000D01*
X6123435Y20441389D01*
X5932166Y20520615D01*
X5760024Y20635637D01*
X5613637Y20782024D01*
X5498615Y20954166D01*
X5419389Y21145435D01*
X5379000Y21348484D01*
X5379000Y21555516D01*
X5419389Y21758565D01*
X5498615Y21949834D01*
X5613637Y22121976D01*
X5760024Y22268363D01*
X5932166Y22383385D01*
X6123435Y22462611D01*
X6326484Y22503000D01*
X6533516Y22503000D01*
X6736565Y22462611D01*
X6736565Y22462611D01*
G37*
G36*
X33469443Y22448481D02*
X33535627Y22441963D01*
X33648853Y22407616D01*
X33705467Y22390443D01*
X33844087Y22316348D01*
X33861991Y22306778D01*
X33897729Y22277448D01*
X33999186Y22194186D01*
X34082448Y22092729D01*
X34111778Y22056991D01*
X34111779Y22056989D01*
X34195443Y21900467D01*
X34195443Y21900466D01*
X34246963Y21730627D01*
X34264359Y21554000D01*
X34246963Y21377373D01*
X34212616Y21264147D01*
X34195443Y21207533D01*
X34162250Y21145435D01*
X34111778Y21051009D01*
X34082448Y21015271D01*
X33999186Y20913814D01*
X33897729Y20830552D01*
X33861991Y20801222D01*
X33861989Y20801221D01*
X33705467Y20717557D01*
X33648853Y20700384D01*
X33535627Y20666037D01*
X33469442Y20659518D01*
X33403260Y20653000D01*
X33064740Y20653000D01*
X32998558Y20659518D01*
X32932373Y20666037D01*
X32819147Y20700384D01*
X32762533Y20717557D01*
X32606011Y20801221D01*
X32606009Y20801222D01*
X32570271Y20830552D01*
X32468814Y20913814D01*
X32385552Y21015271D01*
X32356222Y21051009D01*
X32305750Y21145435D01*
X32272557Y21207533D01*
X32255384Y21264147D01*
X32221037Y21377373D01*
X32203641Y21554000D01*
X32221037Y21730627D01*
X32272557Y21900466D01*
X32272557Y21900467D01*
X32356221Y22056989D01*
X32356222Y22056991D01*
X32385552Y22092729D01*
X32468814Y22194186D01*
X32570271Y22277448D01*
X32606009Y22306778D01*
X32623913Y22316348D01*
X32762533Y22390443D01*
X32819147Y22407616D01*
X32932373Y22441963D01*
X32998557Y22448481D01*
X33064740Y22455000D01*
X33403260Y22455000D01*
X33469443Y22448481D01*
X33469443Y22448481D01*
G37*
G36*
X19321000Y20859000D02*
X17219000Y20859000D01*
X17219000Y21561000D01*
X19321000Y21561000D01*
X19321000Y20859000D01*
X19321000Y20859000D01*
G37*
G36*
X28721000Y20859000D02*
X26619000Y20859000D01*
X26619000Y21561000D01*
X28721000Y21561000D01*
X28721000Y20859000D01*
X28721000Y20859000D01*
G37*
G36*
X34117256Y29672702D02*
X34223579Y29651553D01*
X34524042Y29527097D01*
X34790852Y29348820D01*
X34794454Y29346413D01*
X35024413Y29116454D01*
X35205098Y28846040D01*
X35329553Y28545578D01*
X35393000Y28226611D01*
X35393000Y27901389D01*
X35329553Y27582422D01*
X35205098Y27281960D01*
X35024413Y27011546D01*
X34794454Y26781587D01*
X34794451Y26781585D01*
X34524042Y26600903D01*
X34223579Y26476447D01*
X34117256Y26455298D01*
X33904611Y26413000D01*
X33579389Y26413000D01*
X33366744Y26455298D01*
X33260421Y26476447D01*
X32959958Y26600903D01*
X32689549Y26781585D01*
X32689546Y26781587D01*
X32459587Y27011546D01*
X32278902Y27281960D01*
X32154447Y27582422D01*
X32091000Y27901389D01*
X32091000Y28226611D01*
X32154447Y28545578D01*
X32278902Y28846040D01*
X32459587Y29116454D01*
X32689546Y29346413D01*
X32693148Y29348820D01*
X32959958Y29527097D01*
X33260421Y29651553D01*
X33366744Y29672702D01*
X33579389Y29715000D01*
X33904611Y29715000D01*
X34117256Y29672702D01*
X34117256Y29672702D01*
G37*
G36*
X7955256Y29672702D02*
X8061579Y29651553D01*
X8362042Y29527097D01*
X8628852Y29348820D01*
X8632454Y29346413D01*
X8862413Y29116454D01*
X9043098Y28846040D01*
X9167553Y28545578D01*
X9231000Y28226611D01*
X9231000Y27901389D01*
X9167553Y27582422D01*
X9043098Y27281960D01*
X8862413Y27011546D01*
X8632454Y26781587D01*
X8632451Y26781585D01*
X8362042Y26600903D01*
X8061579Y26476447D01*
X7955256Y26455298D01*
X7742611Y26413000D01*
X7417389Y26413000D01*
X7204744Y26455298D01*
X7098421Y26476447D01*
X6797958Y26600903D01*
X6527549Y26781585D01*
X6527546Y26781587D01*
X6297587Y27011546D01*
X6116902Y27281960D01*
X5992447Y27582422D01*
X5929000Y27901389D01*
X5929000Y28226611D01*
X5992447Y28545578D01*
X6116902Y28846040D01*
X6297587Y29116454D01*
X6527546Y29346413D01*
X6531148Y29348820D01*
X6797958Y29527097D01*
X7098421Y29651553D01*
X7204744Y29672702D01*
X7417389Y29715000D01*
X7742611Y29715000D01*
X7955256Y29672702D01*
X7955256Y29672702D01*
G37*
M02*
